<svg xmlns="http://www.w3.org/2000/svg" xmlns:xlink="http://www.w3.org/1999/xlink" width="250" zoomAndPan="magnify" viewBox="0 0 187.5 74.999997" height="100" preserveAspectRatio="xMidYMid meet" version="1.0"><defs><g/><clipPath id="251f3ef4aa"><path d="M 2.007812 12.765625 L 185.753906 12.765625 L 185.753906 62.265625 L 2.007812 62.265625 Z M 2.007812 12.765625 " clip-rule="nonzero"/></clipPath><clipPath id="85f4093db5"><path d="M 26.875 12.765625 L 160.882812 12.765625 C 167.480469 12.765625 173.804688 15.375 178.46875 20.015625 C 183.132812 24.65625 185.753906 30.953125 185.753906 37.515625 C 185.753906 44.078125 183.132812 50.375 178.46875 55.015625 C 173.804688 59.660156 167.480469 62.265625 160.882812 62.265625 L 26.875 62.265625 C 20.28125 62.265625 13.953125 59.660156 9.292969 55.015625 C 4.628906 50.375 2.007812 44.078125 2.007812 37.515625 C 2.007812 30.953125 4.628906 24.65625 9.292969 20.015625 C 13.953125 15.375 20.28125 12.765625 26.875 12.765625 " clip-rule="nonzero"/></clipPath><clipPath id="a1d7236868"><path d="M 9.980469 18.027344 L 109.90625 18.027344 L 109.90625 57.667969 L 9.980469 57.667969 Z M 9.980469 18.027344 " clip-rule="nonzero"/></clipPath><clipPath id="63fcb61304"><path d="M 29.554688 18.027344 L 89.902344 18.027344 C 100.710938 18.027344 109.476562 26.789062 109.476562 37.601562 C 109.476562 48.410156 100.710938 57.171875 89.902344 57.171875 L 29.554688 57.171875 C 18.746094 57.171875 9.980469 48.410156 9.980469 37.601562 C 9.980469 26.789062 18.746094 18.027344 29.554688 18.027344 " clip-rule="nonzero"/></clipPath></defs><g clip-path="url(#251f3ef4aa)"><g clip-path="url(#85f4093db5)"><path stroke-linecap="butt" transform="matrix(0.751102, 0, 0, 0.747522, 2.0072, 12.765891)" fill="none" stroke-linejoin="miter" d="M 33.108433 -0.000355617 L 211.523438 -0.000355617 C 220.30741 -0.000355617 228.727334 3.490343 234.936962 9.698351 C 241.146591 15.90636 244.636256 24.330021 244.636256 33.109023 C 244.636256 41.888025 241.146591 50.311687 234.936962 56.519695 C 228.727334 62.732929 220.30741 66.218402 211.523438 66.218402 L 33.108433 66.218402 C 24.329662 66.218402 15.904538 62.732929 9.70011 56.519695 C 3.490482 50.311687 0.000815948 41.888025 0.000815948 33.109023 C 0.000815948 24.330021 3.490482 15.90636 9.70011 9.698351 C 15.904538 3.490343 24.329662 -0.000355617 33.108433 -0.000355617 " stroke="#00a19b" stroke-width="4" stroke-opacity="1" stroke-miterlimit="4"/></g></g><g clip-path="url(#a1d7236868)"><g clip-path="url(#63fcb61304)"><path fill="#00a19b" d="M 9.980469 18.027344 L 109.359375 18.027344 L 109.359375 57.125 L 9.980469 57.125 Z M 9.980469 18.027344 " fill-opacity="1" fill-rule="nonzero"/></g></g><g fill="#ffffff" fill-opacity="1"><g transform="translate(19.182008, 42.687125)"><g><path d="M 3.929688 -2.207031 C 4.105469 -2.1875 4.28125 -2.148438 4.457031 -2.148438 C 4.652344 -2.148438 4.828125 -2.148438 5.003906 -2.148438 C 5.179688 -2.148438 5.355469 -2.167969 5.53125 -2.167969 C 5.707031 -2.167969 5.882812 -2.167969 6.058594 -2.167969 C 6.234375 -2.1875 6.429688 -2.226562 6.625 -2.226562 C 6.839844 -2.207031 7.035156 -2.1875 7.210938 -2.1875 C 7.542969 -2.167969 7.542969 -2.285156 7.796875 -2.167969 C 8.011719 -2.070312 7.875 -1.972656 8.03125 -1.738281 C 8.109375 -1.621094 8.226562 -1.503906 8.308594 -1.347656 C 8.386719 -1.210938 8.445312 -1.074219 8.503906 -0.917969 C 8.582031 -0.78125 8.660156 -0.625 8.679688 -0.488281 C 8.738281 -0.273438 8.835938 -0.175781 8.933594 -0.0976562 C 9.050781 -0.0195312 9.1875 -0.0195312 9.382812 -0.0195312 C 9.519531 -0.0195312 9.695312 0 9.871094 0 C 10.066406 0 10.222656 -0.0390625 10.359375 -0.0585938 C 10.574219 -0.0976562 10.710938 -0.15625 10.769531 -0.273438 C 10.828125 -0.390625 10.808594 -0.546875 10.730469 -0.761719 C 10.671875 -0.898438 10.613281 -1.074219 10.535156 -1.25 C 10.476562 -1.40625 10.457031 -1.601562 10.378906 -1.757812 C 10.320312 -1.933594 10.203125 -2.070312 10.144531 -2.246094 C 10.066406 -2.421875 10.007812 -2.578125 9.929688 -2.757812 C 9.871094 -2.914062 9.851562 -3.109375 9.792969 -3.265625 C 9.714844 -3.441406 9.617188 -3.597656 9.558594 -3.753906 C 9.5 -3.929688 9.402344 -4.085938 9.34375 -4.242188 C 9.285156 -4.398438 9.246094 -4.574219 9.1875 -4.730469 C 9.128906 -4.886719 9.03125 -5.042969 8.972656 -5.199219 C 8.914062 -5.375 8.835938 -5.53125 8.777344 -5.6875 C 8.71875 -5.84375 8.679688 -6.019531 8.621094 -6.175781 C 8.5625 -6.351562 8.503906 -6.507812 8.445312 -6.664062 C 8.367188 -6.820312 8.308594 -6.976562 8.226562 -7.152344 C 8.167969 -7.308594 8.148438 -7.484375 8.089844 -7.640625 C 8.03125 -7.816406 7.914062 -7.953125 7.855469 -8.109375 C 7.796875 -8.269531 7.757812 -8.445312 7.699219 -8.601562 C 7.621094 -8.777344 7.601562 -8.933594 7.542969 -9.109375 C 7.484375 -9.265625 7.386719 -9.421875 7.308594 -9.578125 C 7.25 -9.734375 7.210938 -9.910156 7.152344 -10.066406 C 7.074219 -10.222656 7.015625 -10.378906 6.957031 -10.554688 C 6.898438 -10.710938 6.800781 -10.867188 6.742188 -11.023438 C 6.683594 -11.179688 6.605469 -11.335938 6.546875 -11.492188 C 6.449219 -11.746094 6.429688 -11.941406 6.351562 -12.058594 C 6.195312 -12.292969 6.039062 -12.332031 5.84375 -12.351562 C 5.6875 -12.371094 5.511719 -12.371094 5.257812 -12.351562 C 5.082031 -12.351562 4.984375 -12.332031 4.828125 -12.214844 C 4.75 -12.136719 4.613281 -12.058594 4.496094 -11.882812 C 4.4375 -11.765625 4.417969 -11.609375 4.339844 -11.433594 C 4.28125 -11.296875 4.203125 -11.160156 4.144531 -11.003906 C 4.085938 -10.847656 4.046875 -10.671875 3.988281 -10.496094 C 3.929688 -10.339844 3.871094 -10.183594 3.8125 -10.007812 C 3.753906 -9.851562 3.695312 -9.675781 3.636719 -9.519531 C 3.578125 -9.34375 3.5 -9.1875 3.441406 -9.011719 C 3.382812 -8.855469 3.382812 -8.660156 3.324219 -8.503906 C 3.265625 -8.328125 3.167969 -8.1875 3.109375 -8.011719 C 3.050781 -7.855469 3.03125 -7.679688 2.972656 -7.503906 C 2.914062 -7.328125 2.816406 -7.191406 2.757812 -7.015625 C 2.714844 -6.859375 2.65625 -6.683594 2.597656 -6.507812 C 2.539062 -6.351562 2.5 -6.175781 2.441406 -6.019531 C 2.382812 -5.84375 2.324219 -5.6875 2.265625 -5.511719 C 2.207031 -5.355469 2.167969 -5.179688 2.109375 -5.003906 C 2.050781 -4.847656 1.933594 -4.691406 1.875 -4.535156 C 1.816406 -4.378906 1.835938 -4.183594 1.777344 -4.007812 C 1.71875 -3.851562 1.660156 -3.695312 1.601562 -3.519531 C 1.542969 -3.363281 1.425781 -3.207031 1.367188 -3.050781 C 1.308594 -2.875 1.308594 -2.695312 1.25 -2.539062 C 1.191406 -2.363281 1.113281 -2.207031 1.054688 -2.050781 C 1.015625 -1.953125 0.9375 -1.738281 0.839844 -1.503906 C 0.78125 -1.328125 0.722656 -1.132812 0.644531 -0.957031 C 0.566406 -0.703125 0.527344 -0.488281 0.527344 -0.390625 C 0.488281 -0.0585938 0.605469 0.0195312 0.859375 0.0195312 C 1.035156 0.0390625 1.25 0 1.503906 0.0195312 C 1.679688 0.0390625 1.914062 0.0390625 2.128906 0 C 2.34375 -0.0390625 2.5 -0.117188 2.617188 -0.3125 C 2.695312 -0.46875 2.796875 -0.605469 2.855469 -0.761719 C 2.914062 -0.917969 2.972656 -1.074219 3.03125 -1.230469 C 3.089844 -1.386719 3.128906 -1.542969 3.207031 -1.699219 C 3.265625 -1.855469 3.304688 -2.03125 3.382812 -2.1875 C 3.558594 -2.1875 3.753906 -2.207031 3.929688 -2.207031 Z M 4.183594 -4.808594 C 4.242188 -4.984375 4.300781 -5.140625 4.359375 -5.296875 C 4.417969 -5.472656 4.476562 -5.628906 4.535156 -5.804688 C 4.59375 -5.960938 4.652344 -6.117188 4.730469 -6.273438 C 4.789062 -6.449219 4.828125 -6.605469 4.90625 -6.761719 C 4.964844 -6.9375 5.082031 -7.074219 5.140625 -7.230469 C 5.199219 -7.386719 5.199219 -7.582031 5.257812 -7.757812 C 5.316406 -7.914062 5.414062 -8.089844 5.472656 -8.269531 C 5.570312 -8.089844 5.628906 -7.894531 5.707031 -7.757812 C 5.804688 -7.582031 5.921875 -7.445312 6 -7.289062 C 6.097656 -7.132812 6.15625 -6.957031 6.214844 -6.800781 C 6.292969 -6.644531 6.351562 -6.46875 6.410156 -6.3125 C 6.488281 -6.136719 6.566406 -5.980469 6.625 -5.804688 C 6.703125 -5.648438 6.800781 -5.492188 6.859375 -5.335938 C 6.9375 -5.160156 6.957031 -4.984375 7.015625 -4.808594 C 7.09375 -4.652344 7.171875 -4.496094 7.25 -4.320312 C 7.054688 -4.320312 6.898438 -4.300781 6.722656 -4.300781 C 6.527344 -4.300781 6.351562 -4.300781 6.175781 -4.300781 C 5.980469 -4.300781 5.804688 -4.339844 5.628906 -4.339844 C 5.453125 -4.339844 5.277344 -4.320312 5.082031 -4.320312 C 4.90625 -4.320312 4.730469 -4.320312 4.535156 -4.320312 C 4.359375 -4.320312 4.164062 -4.300781 3.96875 -4.300781 C 4.027344 -4.476562 4.125 -4.652344 4.183594 -4.808594 Z M 4.183594 -4.808594 "/></g></g></g><g fill="#ffffff" fill-opacity="1"><g transform="translate(32.003629, 42.687125)"><g><path d="M 4.203125 -4.828125 C 4.398438 -4.867188 4.574219 -4.964844 4.730469 -4.984375 C 4.945312 -5.003906 5.140625 -4.984375 5.296875 -4.964844 C 5.511719 -4.964844 5.667969 -4.925781 5.824219 -4.828125 C 5.960938 -4.75 6.097656 -4.632812 6.214844 -4.457031 C 6.292969 -4.320312 6.371094 -4.144531 6.46875 -3.949219 C 6.527344 -3.792969 6.585938 -3.617188 6.683594 -3.441406 C 6.742188 -3.285156 6.859375 -3.128906 6.9375 -2.953125 C 7.015625 -2.777344 7.054688 -2.597656 7.132812 -2.421875 C 7.210938 -2.246094 7.289062 -2.089844 7.367188 -1.914062 C 7.445312 -1.738281 7.5625 -1.601562 7.640625 -1.425781 C 7.71875 -1.269531 7.816406 -1.09375 7.875 -0.9375 C 7.972656 -0.742188 8.011719 -0.566406 8.089844 -0.429688 C 8.207031 -0.234375 8.367188 -0.15625 8.484375 -0.078125 C 8.640625 0 8.777344 0 8.992188 0 C 9.148438 -0.0195312 9.324219 -0.0195312 9.539062 -0.0195312 C 9.734375 -0.0195312 9.910156 0 10.027344 -0.0195312 C 10.242188 -0.0585938 10.339844 -0.136719 10.320312 -0.332031 C 10.300781 -0.449219 10.28125 -0.625 10.203125 -0.820312 C 10.164062 -0.957031 10.046875 -1.09375 9.96875 -1.269531 C 9.910156 -1.425781 9.851562 -1.582031 9.773438 -1.757812 C 9.714844 -1.914062 9.597656 -2.070312 9.519531 -2.246094 C 9.460938 -2.402344 9.382812 -2.558594 9.324219 -2.734375 C 9.246094 -2.894531 9.167969 -3.050781 9.089844 -3.207031 C 9.011719 -3.382812 8.953125 -3.539062 8.875 -3.695312 C 8.796875 -3.871094 8.738281 -4.027344 8.660156 -4.183594 C 8.582031 -4.359375 8.503906 -4.515625 8.445312 -4.671875 C 8.367188 -4.828125 8.328125 -5.023438 8.269531 -5.179688 C 8.207031 -5.296875 8.207031 -5.453125 8.328125 -5.550781 C 8.503906 -5.707031 8.660156 -5.863281 8.796875 -5.980469 C 8.972656 -6.136719 9.167969 -6.234375 9.324219 -6.390625 C 9.441406 -6.527344 9.519531 -6.683594 9.617188 -6.820312 C 9.714844 -6.957031 9.8125 -7.113281 9.890625 -7.269531 C 9.949219 -7.425781 9.988281 -7.601562 10.046875 -7.757812 C 10.085938 -7.933594 10.125 -8.089844 10.144531 -8.269531 C 10.164062 -8.425781 10.203125 -8.601562 10.203125 -8.777344 C 10.203125 -8.953125 10.222656 -9.128906 10.203125 -9.304688 C 10.183594 -9.460938 10.105469 -9.636719 10.046875 -9.792969 C 10.007812 -9.96875 9.929688 -10.125 9.871094 -10.28125 C 9.792969 -10.4375 9.734375 -10.59375 9.636719 -10.730469 C 9.539062 -10.867188 9.441406 -11.003906 9.324219 -11.140625 C 9.207031 -11.257812 9.070312 -11.375 8.933594 -11.472656 C 8.796875 -11.589844 8.679688 -11.6875 8.523438 -11.785156 C 8.367188 -11.863281 8.207031 -11.921875 8.050781 -11.980469 C 7.894531 -12.039062 7.738281 -12.136719 7.5625 -12.15625 C 7.367188 -12.195312 7.191406 -12.175781 6.996094 -12.214844 C 6.820312 -12.234375 6.644531 -12.273438 6.449219 -12.292969 C 6.273438 -12.3125 6.078125 -12.3125 5.902344 -12.332031 C 5.707031 -12.332031 5.53125 -12.351562 5.335938 -12.371094 C 5.160156 -12.371094 4.964844 -12.351562 4.789062 -12.371094 C 4.613281 -12.371094 4.417969 -12.371094 4.242188 -12.371094 C 4.046875 -12.371094 3.871094 -12.390625 3.675781 -12.390625 C 3.5 -12.371094 3.304688 -12.351562 3.128906 -12.351562 C 2.914062 -12.351562 2.714844 -12.371094 2.539062 -12.371094 C 2.304688 -12.371094 2.128906 -12.332031 1.972656 -12.273438 C 1.796875 -12.195312 1.699219 -12.078125 1.640625 -11.84375 C 1.621094 -11.6875 1.601562 -11.492188 1.601562 -11.257812 C 1.582031 -11.082031 1.582031 -10.90625 1.582031 -10.730469 C 1.582031 -10.574219 1.582031 -10.398438 1.582031 -10.222656 C 1.582031 -10.046875 1.582031 -9.871094 1.582031 -9.695312 C 1.582031 -9.519531 1.582031 -9.34375 1.582031 -9.167969 C 1.582031 -8.992188 1.5625 -8.816406 1.542969 -8.640625 C 1.542969 -8.464844 1.503906 -8.289062 1.503906 -8.109375 C 1.503906 -7.933594 1.542969 -7.757812 1.542969 -7.582031 C 1.542969 -7.40625 1.523438 -7.230469 1.523438 -7.054688 C 1.523438 -6.878906 1.523438 -6.703125 1.523438 -6.527344 C 1.523438 -6.351562 1.523438 -6.175781 1.523438 -6 C 1.523438 -5.824219 1.542969 -5.648438 1.542969 -5.472656 C 1.542969 -5.296875 1.503906 -5.140625 1.503906 -4.964844 C 1.503906 -4.789062 1.503906 -4.613281 1.503906 -4.4375 C 1.503906 -4.261719 1.523438 -4.085938 1.523438 -3.910156 C 1.523438 -3.734375 1.503906 -3.558594 1.503906 -3.402344 C 1.523438 -3.226562 1.523438 -3.050781 1.523438 -2.875 C 1.523438 -2.695312 1.523438 -2.519531 1.523438 -2.34375 C 1.523438 -2.167969 1.5625 -1.992188 1.5625 -1.816406 C 1.5625 -1.660156 1.523438 -1.484375 1.503906 -1.289062 C 1.484375 -1.09375 1.503906 -0.917969 1.503906 -0.742188 C 1.523438 -0.527344 1.503906 -0.332031 1.582031 -0.195312 C 1.640625 -0.0585938 1.875 -0.0390625 2.089844 0 C 2.304688 0.0390625 2.539062 0.0390625 2.65625 0.0195312 C 2.816406 -0.0195312 2.992188 0 3.148438 -0.0195312 C 3.34375 -0.0585938 3.519531 -0.0976562 3.578125 -0.253906 C 3.636719 -0.410156 3.65625 -0.625 3.65625 -0.839844 C 3.675781 -1.035156 3.675781 -1.25 3.675781 -1.445312 C 3.65625 -1.679688 3.65625 -1.875 3.65625 -2.050781 C 3.65625 -2.226562 3.65625 -2.421875 3.65625 -2.597656 C 3.65625 -2.777344 3.65625 -2.972656 3.65625 -3.148438 C 3.65625 -3.324219 3.617188 -3.519531 3.617188 -3.695312 C 3.617188 -3.871094 3.675781 -4.066406 3.675781 -4.242188 C 3.675781 -4.417969 3.617188 -4.613281 3.617188 -4.789062 C 3.832031 -4.828125 4.027344 -4.808594 4.203125 -4.828125 Z M 3.714844 -7.542969 C 3.714844 -7.738281 3.734375 -7.914062 3.734375 -8.089844 C 3.734375 -8.289062 3.734375 -8.464844 3.734375 -8.640625 C 3.734375 -8.816406 3.714844 -9.011719 3.714844 -9.1875 C 3.714844 -9.363281 3.734375 -9.558594 3.734375 -9.734375 C 3.734375 -9.910156 3.734375 -10.066406 3.734375 -10.261719 C 3.929688 -10.261719 4.085938 -10.28125 4.261719 -10.28125 C 4.4375 -10.28125 4.613281 -10.28125 4.789062 -10.28125 C 4.984375 -10.28125 5.160156 -10.300781 5.335938 -10.300781 C 5.511719 -10.300781 5.6875 -10.300781 5.863281 -10.300781 C 6.039062 -10.28125 6.234375 -10.300781 6.410156 -10.300781 C 6.585938 -10.28125 6.742188 -10.242188 6.878906 -10.183594 C 7.054688 -10.144531 7.230469 -10.125 7.367188 -10.046875 C 7.503906 -9.96875 7.621094 -9.832031 7.738281 -9.734375 C 7.855469 -9.617188 7.992188 -9.5 8.050781 -9.363281 C 8.128906 -9.207031 8.167969 -9.03125 8.167969 -8.875 C 8.1875 -8.679688 8.128906 -8.503906 8.070312 -8.308594 C 8.011719 -8.128906 7.875 -7.992188 7.757812 -7.835938 C 7.640625 -7.699219 7.523438 -7.542969 7.367188 -7.425781 C 7.230469 -7.328125 7.054688 -7.230469 6.878906 -7.171875 C 6.703125 -7.09375 6.527344 -7.054688 6.332031 -7.035156 C 6.175781 -7.035156 6 -6.996094 5.824219 -6.996094 C 5.648438 -6.996094 5.472656 -6.996094 5.296875 -6.996094 C 5.121094 -6.996094 4.945312 -6.957031 4.769531 -6.957031 C 4.59375 -6.957031 4.417969 -7.015625 4.242188 -7.015625 C 4.066406 -7.035156 3.890625 -6.976562 3.695312 -6.976562 C 3.695312 -7.171875 3.734375 -7.367188 3.714844 -7.542969 Z M 3.714844 -7.542969 "/></g></g></g><g fill="#ffffff" fill-opacity="1"><g transform="translate(44.844796, 42.687125)"><g><path d="M 3.675781 -6.703125 C 3.675781 -6.878906 3.675781 -7.054688 3.675781 -7.230469 C 3.675781 -7.40625 3.675781 -7.601562 3.675781 -7.777344 C 3.675781 -7.953125 3.714844 -8.128906 3.714844 -8.308594 C 3.714844 -8.484375 3.753906 -8.679688 3.753906 -8.855469 C 3.753906 -9.03125 3.714844 -9.207031 3.714844 -9.382812 C 3.714844 -9.558594 3.695312 -9.734375 3.695312 -9.910156 C 3.695312 -10.105469 3.714844 -10.28125 3.714844 -10.457031 C 3.714844 -10.632812 3.695312 -10.808594 3.695312 -10.984375 C 3.695312 -11.179688 3.753906 -11.355469 3.734375 -11.511719 C 3.714844 -11.726562 3.65625 -11.902344 3.597656 -12.039062 C 3.519531 -12.214844 3.363281 -12.253906 3.167969 -12.292969 C 3.03125 -12.3125 2.855469 -12.351562 2.636719 -12.351562 C 2.441406 -12.351562 2.265625 -12.332031 2.128906 -12.3125 C 1.953125 -12.273438 1.796875 -12.253906 1.699219 -12.058594 C 1.640625 -11.941406 1.601562 -11.785156 1.582031 -11.550781 C 1.5625 -11.394531 1.5625 -11.21875 1.5625 -11.023438 C 1.5625 -10.847656 1.601562 -10.691406 1.601562 -10.515625 C 1.601562 -10.339844 1.601562 -10.164062 1.601562 -9.988281 C 1.582031 -9.8125 1.582031 -9.636719 1.582031 -9.460938 C 1.582031 -9.285156 1.542969 -9.109375 1.542969 -8.933594 C 1.542969 -8.777344 1.5625 -8.601562 1.5625 -8.425781 C 1.5625 -8.246094 1.582031 -8.070312 1.582031 -7.894531 C 1.582031 -7.71875 1.523438 -7.542969 1.523438 -7.367188 C 1.523438 -7.191406 1.582031 -7.015625 1.582031 -6.839844 C 1.582031 -6.664062 1.5625 -6.488281 1.5625 -6.3125 C 1.5625 -6.136719 1.523438 -5.980469 1.523438 -5.804688 C 1.523438 -5.628906 1.5625 -5.453125 1.5625 -5.277344 C 1.5625 -5.101562 1.503906 -4.925781 1.503906 -4.75 C 1.503906 -4.574219 1.503906 -4.417969 1.503906 -4.242188 C 1.503906 -4.066406 1.542969 -3.890625 1.542969 -3.714844 C 1.542969 -3.539062 1.503906 -3.363281 1.503906 -3.1875 C 1.503906 -3.03125 1.542969 -2.855469 1.542969 -2.675781 C 1.542969 -2.5 1.523438 -2.324219 1.523438 -2.148438 C 1.523438 -1.992188 1.484375 -1.816406 1.484375 -1.640625 C 1.484375 -1.484375 1.484375 -1.308594 1.464844 -1.09375 C 1.445312 -0.9375 1.445312 -0.761719 1.445312 -0.546875 C 1.425781 -0.292969 1.542969 -0.117188 1.71875 -0.0390625 C 1.914062 0.078125 2.1875 0.0390625 2.304688 0.0390625 C 2.480469 0.0390625 2.675781 0.0195312 2.855469 0.0195312 C 3.050781 0 3.246094 -0.0195312 3.402344 -0.0585938 C 3.597656 -0.136719 3.714844 -0.234375 3.695312 -0.429688 C 3.675781 -0.585938 3.695312 -0.742188 3.695312 -0.898438 C 3.695312 -1.054688 3.675781 -1.210938 3.675781 -1.347656 C 3.675781 -1.503906 3.734375 -1.660156 3.734375 -1.816406 C 3.734375 -1.992188 3.714844 -2.167969 3.714844 -2.34375 C 3.714844 -2.539062 3.734375 -2.714844 3.734375 -2.894531 C 3.734375 -3.089844 3.714844 -3.265625 3.714844 -3.441406 C 3.714844 -3.617188 3.714844 -3.8125 3.714844 -3.988281 C 3.714844 -4.164062 3.714844 -4.359375 3.714844 -4.535156 C 3.714844 -4.710938 3.714844 -4.90625 3.714844 -5.082031 C 3.714844 -5.257812 3.714844 -5.433594 3.714844 -5.628906 C 3.714844 -5.804688 3.753906 -5.980469 3.753906 -6.175781 C 3.753906 -6.332031 3.675781 -6.527344 3.675781 -6.703125 Z M 3.675781 -6.703125 "/></g></g></g><g fill="#ffffff" fill-opacity="1"><g transform="translate(51.607505, 42.687125)"><g><path d="M 3.773438 -7.191406 C 3.851562 -7.191406 3.988281 -6.996094 4.144531 -6.742188 C 4.222656 -6.605469 4.359375 -6.449219 4.457031 -6.273438 C 4.554688 -6.117188 4.632812 -5.941406 4.710938 -5.765625 C 4.808594 -5.589844 4.867188 -5.394531 4.945312 -5.257812 C 5.042969 -5.101562 5.160156 -4.964844 5.257812 -4.808594 C 5.335938 -4.652344 5.433594 -4.496094 5.53125 -4.339844 C 5.628906 -4.203125 5.6875 -4.027344 5.785156 -3.890625 C 5.882812 -3.734375 6.039062 -3.617188 6.117188 -3.460938 C 6.214844 -3.304688 6.332031 -3.167969 6.429688 -3.011719 C 6.527344 -2.875 6.605469 -2.714844 6.703125 -2.558594 C 6.820312 -2.402344 6.917969 -2.265625 7.015625 -2.109375 C 7.113281 -1.953125 7.171875 -1.796875 7.269531 -1.640625 C 7.367188 -1.484375 7.484375 -1.347656 7.582031 -1.191406 C 7.679688 -1.035156 7.757812 -0.859375 7.855469 -0.703125 C 7.972656 -0.566406 8.109375 -0.429688 8.246094 -0.3125 C 8.386719 -0.214844 8.542969 -0.117188 8.71875 -0.0585938 C 8.894531 0 9.070312 0 9.285156 0 C 9.5 0 9.65625 0 9.773438 -0.0195312 C 9.988281 -0.078125 10.046875 -0.195312 10.085938 -0.371094 C 10.105469 -0.507812 10.105469 -0.664062 10.125 -0.878906 C 10.125 -1.054688 10.105469 -1.230469 10.125 -1.40625 C 10.125 -1.582031 10.164062 -1.757812 10.183594 -1.933594 C 10.183594 -2.109375 10.144531 -2.285156 10.144531 -2.460938 C 10.144531 -2.636719 10.164062 -2.816406 10.164062 -2.992188 C 10.164062 -3.167969 10.203125 -3.34375 10.203125 -3.519531 C 10.203125 -3.695312 10.164062 -3.871094 10.183594 -4.066406 C 10.183594 -4.242188 10.222656 -4.417969 10.222656 -4.59375 C 10.222656 -4.769531 10.242188 -4.945312 10.242188 -5.121094 C 10.242188 -5.296875 10.203125 -5.472656 10.203125 -5.648438 C 10.203125 -5.824219 10.261719 -6 10.261719 -6.175781 C 10.261719 -6.371094 10.261719 -6.546875 10.261719 -6.722656 C 10.28125 -6.898438 10.242188 -7.074219 10.242188 -7.25 C 10.242188 -7.425781 10.242188 -7.601562 10.242188 -7.777344 C 10.242188 -7.953125 10.28125 -8.128906 10.28125 -8.308594 C 10.28125 -8.484375 10.300781 -8.660156 10.300781 -8.816406 C 10.300781 -9.011719 10.261719 -9.1875 10.261719 -9.34375 C 10.261719 -9.539062 10.320312 -9.714844 10.320312 -9.890625 C 10.320312 -10.066406 10.300781 -10.242188 10.300781 -10.417969 C 10.300781 -10.59375 10.300781 -10.769531 10.300781 -10.945312 C 10.300781 -11.140625 10.339844 -11.296875 10.320312 -11.453125 C 10.300781 -11.648438 10.28125 -11.824219 10.222656 -11.960938 C 10.144531 -12.136719 10.027344 -12.253906 9.851562 -12.3125 C 9.714844 -12.371094 9.539062 -12.332031 9.34375 -12.332031 C 9.1875 -12.3125 9.011719 -12.3125 8.816406 -12.273438 C 8.679688 -12.253906 8.523438 -12.175781 8.347656 -12.117188 C 8.347656 -11.960938 8.308594 -11.824219 8.308594 -11.628906 C 8.289062 -11.472656 8.308594 -11.296875 8.308594 -11.121094 C 8.308594 -10.945312 8.269531 -10.769531 8.269531 -10.59375 C 8.269531 -10.417969 8.308594 -10.242188 8.308594 -10.066406 C 8.308594 -9.910156 8.269531 -9.734375 8.269531 -9.558594 C 8.269531 -9.382812 8.289062 -9.207031 8.289062 -9.03125 C 8.289062 -8.855469 8.226562 -8.679688 8.226562 -8.503906 C 8.226562 -8.347656 8.289062 -8.167969 8.289062 -7.992188 C 8.289062 -7.816406 8.246094 -7.640625 8.246094 -7.464844 C 8.246094 -7.289062 8.226562 -7.113281 8.226562 -6.957031 C 8.226562 -6.78125 8.246094 -6.605469 8.246094 -6.429688 C 8.246094 -6.253906 8.226562 -6.078125 8.226562 -5.921875 C 8.207031 -5.726562 8.1875 -5.550781 8.1875 -5.414062 C 8.167969 -5.082031 8.167969 -4.886719 8.148438 -4.90625 C 7.972656 -4.925781 7.835938 -5.101562 7.699219 -5.296875 C 7.582031 -5.492188 7.484375 -5.726562 7.40625 -5.84375 C 7.308594 -5.980469 7.171875 -6.117188 7.09375 -6.253906 C 6.996094 -6.410156 6.898438 -6.566406 6.800781 -6.722656 C 6.703125 -6.859375 6.664062 -7.035156 6.566406 -7.191406 C 6.46875 -7.347656 6.332031 -7.464844 6.234375 -7.621094 C 6.15625 -7.777344 6.058594 -7.914062 5.960938 -8.070312 C 5.863281 -8.226562 5.785156 -8.386719 5.6875 -8.542969 C 5.589844 -8.699219 5.511719 -8.855469 5.433594 -9.011719 C 5.335938 -9.148438 5.238281 -9.304688 5.140625 -9.460938 C 5.042969 -9.617188 4.984375 -9.773438 4.886719 -9.929688 C 4.808594 -10.085938 4.671875 -10.203125 4.574219 -10.359375 C 4.476562 -10.496094 4.417969 -10.671875 4.320312 -10.808594 C 4.222656 -10.964844 4.105469 -11.101562 4.007812 -11.257812 C 3.929688 -11.414062 3.832031 -11.570312 3.753906 -11.707031 C 3.636719 -11.921875 3.539062 -12.039062 3.421875 -12.15625 C 3.285156 -12.273438 3.148438 -12.3125 2.933594 -12.332031 C 2.796875 -12.351562 2.597656 -12.351562 2.382812 -12.332031 C 2.070312 -12.351562 1.894531 -12.351562 1.777344 -12.351562 C 1.542969 -12.332031 1.523438 -12.253906 1.523438 -11.902344 C 1.523438 -11.726562 1.5625 -11.550781 1.5625 -11.375 C 1.5625 -11.199219 1.5625 -11.023438 1.5625 -10.847656 C 1.5625 -10.671875 1.503906 -10.496094 1.503906 -10.320312 C 1.503906 -10.144531 1.523438 -9.96875 1.523438 -9.792969 C 1.523438 -9.617188 1.503906 -9.441406 1.523438 -9.265625 C 1.523438 -9.089844 1.542969 -8.914062 1.542969 -8.738281 C 1.542969 -8.5625 1.5625 -8.386719 1.5625 -8.207031 C 1.5625 -8.03125 1.542969 -7.855469 1.542969 -7.679688 C 1.542969 -7.503906 1.503906 -7.328125 1.503906 -7.171875 C 1.523438 -6.996094 1.5625 -6.820312 1.5625 -6.644531 C 1.5625 -6.46875 1.582031 -6.292969 1.582031 -6.117188 C 1.582031 -5.941406 1.5625 -5.765625 1.5625 -5.589844 C 1.5625 -5.414062 1.5625 -5.238281 1.5625 -5.0625 C 1.5625 -4.90625 1.582031 -4.710938 1.582031 -4.535156 C 1.582031 -4.359375 1.5625 -4.183594 1.5625 -3.988281 C 1.5625 -3.8125 1.5625 -3.636719 1.5625 -3.441406 C 1.5625 -3.265625 1.523438 -3.089844 1.523438 -2.894531 C 1.523438 -2.714844 1.5625 -2.539062 1.5625 -2.363281 C 1.5625 -2.167969 1.542969 -1.992188 1.523438 -1.816406 C 1.523438 -1.640625 1.542969 -1.445312 1.542969 -1.269531 C 1.542969 -1.09375 1.523438 -0.898438 1.523438 -0.742188 C 1.523438 -0.507812 1.5625 -0.351562 1.640625 -0.234375 C 1.71875 -0.0976562 1.855469 0 2.050781 0.0390625 C 2.1875 0.078125 2.363281 0.0976562 2.558594 0.0976562 C 2.777344 0.0976562 2.953125 0.078125 3.109375 0.0390625 C 3.304688 0 3.460938 -0.078125 3.558594 -0.234375 C 3.636719 -0.351562 3.65625 -0.527344 3.675781 -0.742188 C 3.675781 -0.878906 3.675781 -1.054688 3.65625 -1.230469 C 3.65625 -1.40625 3.65625 -1.5625 3.65625 -1.738281 C 3.636719 -1.914062 3.636719 -2.089844 3.636719 -2.226562 C 3.636719 -2.421875 3.636719 -2.617188 3.636719 -2.796875 C 3.617188 -2.992188 3.617188 -3.167969 3.617188 -3.34375 C 3.617188 -3.539062 3.617188 -3.734375 3.617188 -3.910156 C 3.617188 -4.105469 3.636719 -4.28125 3.636719 -4.476562 C 3.636719 -4.652344 3.675781 -4.847656 3.675781 -5.023438 C 3.675781 -5.21875 3.636719 -5.394531 3.636719 -5.589844 C 3.636719 -5.765625 3.636719 -5.960938 3.636719 -6.15625 C 3.636719 -6.332031 3.636719 -6.507812 3.617188 -6.722656 C 3.636719 -6.9375 3.558594 -7.230469 3.773438 -7.191406 Z M 3.773438 -7.191406 "/></g></g></g><g fill="#ffffff" fill-opacity="1"><g transform="translate(64.878658, 42.687125)"><g><path d="M 1.953125 -5.023438 C 1.757812 -5.003906 1.582031 -4.964844 1.445312 -4.945312 C 1.230469 -4.90625 1.054688 -4.90625 0.9375 -4.847656 C 0.800781 -4.75 0.722656 -4.59375 0.683594 -4.398438 C 0.664062 -4.261719 0.683594 -4.105469 0.683594 -3.890625 C 0.683594 -3.734375 0.703125 -3.578125 0.722656 -3.441406 C 0.722656 -3.285156 0.703125 -3.128906 0.722656 -2.972656 C 0.742188 -2.816406 0.742188 -2.675781 0.761719 -2.519531 C 0.800781 -2.34375 0.878906 -2.167969 0.917969 -2.011719 C 0.957031 -1.835938 1.015625 -1.660156 1.074219 -1.523438 C 1.152344 -1.347656 1.230469 -1.191406 1.328125 -1.054688 C 1.445312 -0.917969 1.582031 -0.820312 1.71875 -0.703125 C 1.855469 -0.585938 1.992188 -0.488281 2.148438 -0.410156 C 2.304688 -0.3125 2.421875 -0.195312 2.597656 -0.136719 C 2.757812 -0.0585938 2.914062 0 3.089844 0.0585938 C 3.265625 0.0976562 3.441406 0.117188 3.617188 0.136719 C 3.792969 0.15625 3.96875 0.15625 4.144531 0.175781 C 4.320312 0.175781 4.496094 0.234375 4.671875 0.234375 C 4.847656 0.234375 5.023438 0.195312 5.199219 0.175781 C 5.375 0.15625 5.550781 0.0976562 5.726562 0.0585938 C 5.902344 0.0195312 6.058594 -0.0390625 6.234375 -0.0976562 C 6.390625 -0.175781 6.566406 -0.214844 6.722656 -0.292969 C 6.878906 -0.390625 7.035156 -0.46875 7.171875 -0.566406 C 7.328125 -0.664062 7.503906 -0.742188 7.621094 -0.859375 C 7.757812 -0.976562 7.875 -1.132812 7.992188 -1.269531 C 8.109375 -1.386719 8.226562 -1.523438 8.328125 -1.679688 C 8.425781 -1.816406 8.484375 -1.992188 8.542969 -2.167969 C 8.621094 -2.324219 8.699219 -2.480469 8.757812 -2.65625 C 8.796875 -2.835938 8.777344 -3.011719 8.796875 -3.1875 C 8.816406 -3.363281 8.796875 -3.539062 8.816406 -3.734375 C 8.816406 -3.910156 8.855469 -4.085938 8.855469 -4.261719 C 8.875 -4.4375 8.855469 -4.613281 8.855469 -4.789062 C 8.855469 -4.984375 8.835938 -5.160156 8.835938 -5.335938 C 8.835938 -5.511719 8.894531 -5.6875 8.894531 -5.882812 C 8.894531 -6.058594 8.875 -6.234375 8.875 -6.410156 C 8.875 -6.585938 8.855469 -6.761719 8.855469 -6.957031 C 8.855469 -7.132812 8.875 -7.308594 8.875 -7.484375 C 8.875 -7.660156 8.835938 -7.835938 8.835938 -8.03125 C 8.835938 -8.207031 8.835938 -8.386719 8.816406 -8.5625 C 8.816406 -8.738281 8.816406 -8.914062 8.816406 -9.089844 C 8.796875 -9.265625 8.777344 -9.441406 8.777344 -9.636719 C 8.777344 -9.8125 8.796875 -9.988281 8.796875 -10.164062 C 8.796875 -10.339844 8.777344 -10.515625 8.796875 -10.691406 C 8.796875 -10.886719 8.835938 -11.0625 8.835938 -11.21875 C 8.816406 -11.433594 8.738281 -11.589844 8.699219 -11.746094 C 8.640625 -11.941406 8.601562 -12.097656 8.484375 -12.214844 C 8.367188 -12.3125 8.1875 -12.332031 7.972656 -12.332031 C 7.757812 -12.332031 7.5625 -12.371094 7.367188 -12.332031 C 7.171875 -12.292969 6.996094 -12.195312 6.820312 -12.097656 C 6.664062 -12 6.527344 -11.902344 6.371094 -11.726562 C 6.390625 -11.550781 6.390625 -11.375 6.410156 -11.179688 C 6.410156 -11.003906 6.390625 -10.808594 6.390625 -10.632812 C 6.410156 -10.4375 6.390625 -10.261719 6.410156 -10.085938 C 6.410156 -9.890625 6.488281 -9.714844 6.488281 -9.539062 C 6.507812 -9.34375 6.507812 -9.167969 6.507812 -8.992188 C 6.527344 -8.796875 6.527344 -8.621094 6.527344 -8.425781 C 6.546875 -8.246094 6.546875 -8.070312 6.546875 -7.875 C 6.546875 -7.699219 6.566406 -7.523438 6.585938 -7.328125 C 6.585938 -7.152344 6.585938 -6.976562 6.605469 -6.78125 C 6.605469 -6.605469 6.605469 -6.429688 6.605469 -6.234375 C 6.625 -6.058594 6.625 -5.863281 6.644531 -5.6875 C 6.644531 -5.511719 6.605469 -5.316406 6.605469 -5.140625 C 6.605469 -4.964844 6.644531 -4.789062 6.644531 -4.59375 C 6.644531 -4.417969 6.605469 -4.242188 6.605469 -4.066406 C 6.585938 -3.890625 6.585938 -3.695312 6.566406 -3.519531 C 6.527344 -3.34375 6.488281 -3.167969 6.449219 -2.992188 C 6.390625 -2.816406 6.332031 -2.636719 6.253906 -2.5 C 6.15625 -2.324219 6.019531 -2.207031 5.882812 -2.089844 C 5.746094 -1.972656 5.609375 -1.894531 5.433594 -1.835938 C 5.238281 -1.796875 5.0625 -1.777344 4.867188 -1.757812 C 4.691406 -1.757812 4.496094 -1.71875 4.300781 -1.738281 C 4.125 -1.757812 3.929688 -1.816406 3.773438 -1.875 C 3.578125 -1.933594 3.421875 -2.03125 3.265625 -2.128906 C 3.109375 -2.246094 3.011719 -2.402344 2.933594 -2.558594 C 2.855469 -2.714844 2.757812 -2.894531 2.714844 -3.070312 C 2.695312 -3.246094 2.675781 -3.441406 2.675781 -3.617188 C 2.675781 -3.8125 2.675781 -4.007812 2.675781 -4.183594 C 2.65625 -4.378906 2.65625 -4.59375 2.617188 -4.730469 C 2.402344 -4.847656 2.167969 -4.925781 1.953125 -5.023438 Z M 1.953125 -5.023438 "/></g></g></g><g fill="#ffffff" fill-opacity="1"><g transform="translate(76.644854, 42.687125)"><g><path d="M 3.929688 -2.207031 C 4.105469 -2.1875 4.28125 -2.148438 4.457031 -2.148438 C 4.652344 -2.148438 4.828125 -2.148438 5.003906 -2.148438 C 5.179688 -2.148438 5.355469 -2.167969 5.53125 -2.167969 C 5.707031 -2.167969 5.882812 -2.167969 6.058594 -2.167969 C 6.234375 -2.1875 6.429688 -2.226562 6.625 -2.226562 C 6.839844 -2.207031 7.035156 -2.1875 7.210938 -2.1875 C 7.542969 -2.167969 7.542969 -2.285156 7.796875 -2.167969 C 8.011719 -2.070312 7.875 -1.972656 8.03125 -1.738281 C 8.109375 -1.621094 8.226562 -1.503906 8.308594 -1.347656 C 8.386719 -1.210938 8.445312 -1.074219 8.503906 -0.917969 C 8.582031 -0.78125 8.660156 -0.625 8.679688 -0.488281 C 8.738281 -0.273438 8.835938 -0.175781 8.933594 -0.0976562 C 9.050781 -0.0195312 9.1875 -0.0195312 9.382812 -0.0195312 C 9.519531 -0.0195312 9.695312 0 9.871094 0 C 10.066406 0 10.222656 -0.0390625 10.359375 -0.0585938 C 10.574219 -0.0976562 10.710938 -0.15625 10.769531 -0.273438 C 10.828125 -0.390625 10.808594 -0.546875 10.730469 -0.761719 C 10.671875 -0.898438 10.613281 -1.074219 10.535156 -1.25 C 10.476562 -1.40625 10.457031 -1.601562 10.378906 -1.757812 C 10.320312 -1.933594 10.203125 -2.070312 10.144531 -2.246094 C 10.066406 -2.421875 10.007812 -2.578125 9.929688 -2.757812 C 9.871094 -2.914062 9.851562 -3.109375 9.792969 -3.265625 C 9.714844 -3.441406 9.617188 -3.597656 9.558594 -3.753906 C 9.5 -3.929688 9.402344 -4.085938 9.34375 -4.242188 C 9.285156 -4.398438 9.246094 -4.574219 9.1875 -4.730469 C 9.128906 -4.886719 9.03125 -5.042969 8.972656 -5.199219 C 8.914062 -5.375 8.835938 -5.53125 8.777344 -5.6875 C 8.71875 -5.84375 8.679688 -6.019531 8.621094 -6.175781 C 8.5625 -6.351562 8.503906 -6.507812 8.445312 -6.664062 C 8.367188 -6.820312 8.308594 -6.976562 8.226562 -7.152344 C 8.167969 -7.308594 8.148438 -7.484375 8.089844 -7.640625 C 8.03125 -7.816406 7.914062 -7.953125 7.855469 -8.109375 C 7.796875 -8.269531 7.757812 -8.445312 7.699219 -8.601562 C 7.621094 -8.777344 7.601562 -8.933594 7.542969 -9.109375 C 7.484375 -9.265625 7.386719 -9.421875 7.308594 -9.578125 C 7.25 -9.734375 7.210938 -9.910156 7.152344 -10.066406 C 7.074219 -10.222656 7.015625 -10.378906 6.957031 -10.554688 C 6.898438 -10.710938 6.800781 -10.867188 6.742188 -11.023438 C 6.683594 -11.179688 6.605469 -11.335938 6.546875 -11.492188 C 6.449219 -11.746094 6.429688 -11.941406 6.351562 -12.058594 C 6.195312 -12.292969 6.039062 -12.332031 5.84375 -12.351562 C 5.6875 -12.371094 5.511719 -12.371094 5.257812 -12.351562 C 5.082031 -12.351562 4.984375 -12.332031 4.828125 -12.214844 C 4.75 -12.136719 4.613281 -12.058594 4.496094 -11.882812 C 4.4375 -11.765625 4.417969 -11.609375 4.339844 -11.433594 C 4.28125 -11.296875 4.203125 -11.160156 4.144531 -11.003906 C 4.085938 -10.847656 4.046875 -10.671875 3.988281 -10.496094 C 3.929688 -10.339844 3.871094 -10.183594 3.8125 -10.007812 C 3.753906 -9.851562 3.695312 -9.675781 3.636719 -9.519531 C 3.578125 -9.34375 3.5 -9.1875 3.441406 -9.011719 C 3.382812 -8.855469 3.382812 -8.660156 3.324219 -8.503906 C 3.265625 -8.328125 3.167969 -8.1875 3.109375 -8.011719 C 3.050781 -7.855469 3.03125 -7.679688 2.972656 -7.503906 C 2.914062 -7.328125 2.816406 -7.191406 2.757812 -7.015625 C 2.714844 -6.859375 2.65625 -6.683594 2.597656 -6.507812 C 2.539062 -6.351562 2.5 -6.175781 2.441406 -6.019531 C 2.382812 -5.84375 2.324219 -5.6875 2.265625 -5.511719 C 2.207031 -5.355469 2.167969 -5.179688 2.109375 -5.003906 C 2.050781 -4.847656 1.933594 -4.691406 1.875 -4.535156 C 1.816406 -4.378906 1.835938 -4.183594 1.777344 -4.007812 C 1.71875 -3.851562 1.660156 -3.695312 1.601562 -3.519531 C 1.542969 -3.363281 1.425781 -3.207031 1.367188 -3.050781 C 1.308594 -2.875 1.308594 -2.695312 1.25 -2.539062 C 1.191406 -2.363281 1.113281 -2.207031 1.054688 -2.050781 C 1.015625 -1.953125 0.9375 -1.738281 0.839844 -1.503906 C 0.78125 -1.328125 0.722656 -1.132812 0.644531 -0.957031 C 0.566406 -0.703125 0.527344 -0.488281 0.527344 -0.390625 C 0.488281 -0.0585938 0.605469 0.0195312 0.859375 0.0195312 C 1.035156 0.0390625 1.25 0 1.503906 0.0195312 C 1.679688 0.0390625 1.914062 0.0390625 2.128906 0 C 2.34375 -0.0390625 2.5 -0.117188 2.617188 -0.3125 C 2.695312 -0.46875 2.796875 -0.605469 2.855469 -0.761719 C 2.914062 -0.917969 2.972656 -1.074219 3.03125 -1.230469 C 3.089844 -1.386719 3.128906 -1.542969 3.207031 -1.699219 C 3.265625 -1.855469 3.304688 -2.03125 3.382812 -2.1875 C 3.558594 -2.1875 3.753906 -2.207031 3.929688 -2.207031 Z M 4.183594 -4.808594 C 4.242188 -4.984375 4.300781 -5.140625 4.359375 -5.296875 C 4.417969 -5.472656 4.476562 -5.628906 4.535156 -5.804688 C 4.59375 -5.960938 4.652344 -6.117188 4.730469 -6.273438 C 4.789062 -6.449219 4.828125 -6.605469 4.90625 -6.761719 C 4.964844 -6.9375 5.082031 -7.074219 5.140625 -7.230469 C 5.199219 -7.386719 5.199219 -7.582031 5.257812 -7.757812 C 5.316406 -7.914062 5.414062 -8.089844 5.472656 -8.269531 C 5.570312 -8.089844 5.628906 -7.894531 5.707031 -7.757812 C 5.804688 -7.582031 5.921875 -7.445312 6 -7.289062 C 6.097656 -7.132812 6.15625 -6.957031 6.214844 -6.800781 C 6.292969 -6.644531 6.351562 -6.46875 6.410156 -6.3125 C 6.488281 -6.136719 6.566406 -5.980469 6.625 -5.804688 C 6.703125 -5.648438 6.800781 -5.492188 6.859375 -5.335938 C 6.9375 -5.160156 6.957031 -4.984375 7.015625 -4.808594 C 7.09375 -4.652344 7.171875 -4.496094 7.25 -4.320312 C 7.054688 -4.320312 6.898438 -4.300781 6.722656 -4.300781 C 6.527344 -4.300781 6.351562 -4.300781 6.175781 -4.300781 C 5.980469 -4.300781 5.804688 -4.339844 5.628906 -4.339844 C 5.453125 -4.339844 5.277344 -4.320312 5.082031 -4.320312 C 4.90625 -4.320312 4.730469 -4.320312 4.535156 -4.320312 C 4.359375 -4.320312 4.164062 -4.300781 3.96875 -4.300781 C 4.027344 -4.476562 4.125 -4.652344 4.183594 -4.808594 Z M 4.183594 -4.808594 "/></g></g></g><g fill="#ffffff" fill-opacity="1"><g transform="translate(89.466479, 42.687125)"><g><path d="M 4.769531 -8.914062 C 4.691406 -9.070312 4.632812 -9.246094 4.554688 -9.382812 C 4.4375 -9.578125 4.300781 -9.695312 4.222656 -9.792969 C 4.105469 -9.910156 3.988281 -10.046875 3.890625 -10.183594 C 3.773438 -10.320312 3.714844 -10.476562 3.636719 -10.632812 C 3.539062 -10.769531 3.441406 -10.90625 3.382812 -11.0625 C 3.304688 -11.257812 3.226562 -11.414062 3.167969 -11.550781 C 3.070312 -11.726562 3.011719 -11.882812 2.933594 -11.980469 C 2.796875 -12.15625 2.675781 -12.253906 2.519531 -12.292969 C 2.382812 -12.351562 2.207031 -12.332031 2.011719 -12.332031 C 1.855469 -12.332031 1.699219 -12.390625 1.503906 -12.390625 C 1.308594 -12.390625 1.152344 -12.351562 0.996094 -12.351562 C 0.78125 -12.351562 0.585938 -12.332031 0.488281 -12.273438 C 0.371094 -12.175781 0.332031 -12.019531 0.390625 -11.765625 C 0.429688 -11.667969 0.566406 -11.492188 0.703125 -11.277344 C 0.78125 -11.121094 0.898438 -10.945312 1.015625 -10.789062 C 1.113281 -10.613281 1.230469 -10.4375 1.328125 -10.300781 C 1.464844 -10.085938 1.621094 -9.929688 1.679688 -9.832031 C 1.777344 -9.714844 1.835938 -9.558594 1.933594 -9.402344 C 2.03125 -9.285156 2.128906 -9.148438 2.226562 -8.992188 C 2.304688 -8.855469 2.382812 -8.699219 2.480469 -8.5625 C 2.558594 -8.425781 2.65625 -8.289062 2.757812 -8.148438 C 2.855469 -7.992188 2.933594 -7.855469 3.03125 -7.71875 C 3.128906 -7.582031 3.226562 -7.445312 3.324219 -7.308594 C 3.421875 -7.171875 3.480469 -7.015625 3.578125 -6.878906 C 3.65625 -6.78125 3.792969 -6.664062 3.871094 -6.507812 C 3.929688 -6.390625 3.988281 -6.234375 4.046875 -6.097656 C 4.125 -5.921875 4.183594 -5.746094 4.183594 -5.648438 C 4.183594 -5.394531 4.144531 -5.238281 4.144531 -5.101562 C 4.144531 -4.90625 4.183594 -4.769531 4.164062 -4.574219 C 4.164062 -4.417969 4.164062 -4.261719 4.164062 -4.007812 C 4.144531 -3.832031 4.105469 -3.65625 4.105469 -3.460938 C 4.085938 -3.265625 4.105469 -3.070312 4.085938 -2.894531 C 4.085938 -2.695312 4.066406 -2.5 4.046875 -2.304688 C 4.046875 -2.128906 4.007812 -1.933594 3.988281 -1.738281 C 3.988281 -1.5625 4.007812 -1.367188 4.007812 -1.171875 C 4.007812 -0.976562 4.027344 -0.800781 4.046875 -0.625 C 4.046875 -0.410156 4.085938 -0.273438 4.183594 -0.175781 C 4.28125 -0.078125 4.4375 -0.0195312 4.613281 0 C 4.75 0.0195312 4.925781 0.0195312 5.101562 0.0195312 C 5.277344 0.0195312 5.472656 -0.0195312 5.667969 -0.0585938 C 5.863281 -0.078125 6.058594 -0.0976562 6.195312 -0.195312 C 6.371094 -0.292969 6.488281 -0.449219 6.488281 -0.664062 C 6.46875 -0.839844 6.449219 -0.996094 6.429688 -1.152344 C 6.429688 -1.289062 6.429688 -1.445312 6.429688 -1.640625 C 6.429688 -1.777344 6.390625 -1.933594 6.390625 -2.128906 C 6.390625 -2.285156 6.429688 -2.441406 6.429688 -2.617188 C 6.449219 -2.777344 6.429688 -2.933594 6.429688 -3.128906 C 6.449219 -3.304688 6.46875 -3.5 6.46875 -3.714844 C 6.449219 -3.910156 6.429688 -4.105469 6.410156 -4.300781 C 6.390625 -4.515625 6.371094 -4.710938 6.351562 -4.886719 C 6.332031 -5.121094 6.332031 -5.335938 6.332031 -5.472656 C 6.332031 -5.648438 6.371094 -5.824219 6.449219 -6.019531 C 6.527344 -6.195312 6.585938 -6.371094 6.683594 -6.566406 C 6.78125 -6.722656 6.878906 -6.878906 6.996094 -7.054688 C 7.113281 -7.210938 7.230469 -7.347656 7.367188 -7.503906 C 7.464844 -7.660156 7.621094 -7.796875 7.738281 -7.953125 C 7.816406 -8.03125 7.914062 -8.207031 8.070312 -8.40625 C 8.167969 -8.542969 8.269531 -8.699219 8.386719 -8.855469 C 8.503906 -8.992188 8.5625 -9.167969 8.679688 -9.324219 C 8.777344 -9.480469 8.914062 -9.617188 9.03125 -9.773438 C 9.128906 -9.929688 9.246094 -10.066406 9.34375 -10.222656 C 9.460938 -10.378906 9.558594 -10.535156 9.65625 -10.671875 C 9.773438 -10.847656 9.832031 -11.023438 9.910156 -11.160156 C 10.066406 -11.375 10.164062 -11.53125 10.222656 -11.628906 C 10.398438 -11.882812 10.476562 -12.039062 10.417969 -12.136719 C 10.359375 -12.253906 10.183594 -12.332031 9.890625 -12.351562 C 9.734375 -12.371094 9.539062 -12.332031 9.304688 -12.332031 C 9.089844 -12.332031 8.914062 -12.410156 8.777344 -12.410156 C 8.542969 -12.410156 8.40625 -12.351562 8.269531 -12.234375 C 8.167969 -12.15625 8.070312 -12.019531 7.914062 -11.824219 C 7.835938 -11.707031 7.679688 -11.589844 7.5625 -11.414062 C 7.464844 -11.296875 7.386719 -11.140625 7.289062 -10.984375 C 7.210938 -10.847656 7.152344 -10.691406 7.054688 -10.554688 C 6.976562 -10.417969 6.898438 -10.261719 6.820312 -10.105469 C 6.742188 -9.96875 6.625 -9.851562 6.546875 -9.695312 C 6.46875 -9.558594 6.371094 -9.421875 6.292969 -9.265625 C 6.195312 -9.128906 6.15625 -8.953125 6.058594 -8.816406 C 5.960938 -8.679688 5.863281 -8.5625 5.765625 -8.425781 C 5.667969 -8.289062 5.53125 -8.246094 5.394531 -8.269531 C 5.238281 -8.269531 5.101562 -8.308594 5.023438 -8.445312 C 4.925781 -8.601562 4.847656 -8.757812 4.769531 -8.914062 Z M 4.769531 -8.914062 "/></g></g></g><g fill="#00a19b" fill-opacity="1"><g transform="translate(119.237555, 42.687125)"><g><path d="M 3.402344 -9.324219 C 3.460938 -9.5 3.539062 -9.65625 3.636719 -9.792969 C 3.734375 -9.929688 3.871094 -10.027344 4.007812 -10.125 C 4.144531 -10.222656 4.261719 -10.359375 4.4375 -10.417969 C 4.59375 -10.476562 4.769531 -10.496094 4.945312 -10.515625 C 5.140625 -10.554688 5.335938 -10.574219 5.511719 -10.535156 C 5.707031 -10.496094 5.882812 -10.4375 6.058594 -10.359375 C 6.234375 -10.28125 6.410156 -10.203125 6.585938 -10.105469 C 6.742188 -10.007812 6.917969 -9.890625 7.074219 -9.792969 C 7.25 -9.695312 7.40625 -9.578125 7.5625 -9.5 C 7.757812 -9.382812 7.894531 -9.34375 8.011719 -9.324219 C 8.1875 -9.304688 8.328125 -9.34375 8.484375 -9.480469 C 8.582031 -9.578125 8.660156 -9.734375 8.796875 -9.890625 C 8.894531 -10.007812 9.011719 -10.203125 9.109375 -10.417969 C 9.1875 -10.652344 9.265625 -10.90625 9.128906 -11.023438 C 8.855469 -11.238281 8.738281 -11.316406 8.601562 -11.414062 C 8.484375 -11.492188 8.347656 -11.589844 8.050781 -11.765625 C 7.875 -11.882812 7.679688 -11.941406 7.523438 -12.019531 C 7.347656 -12.097656 7.171875 -12.175781 6.996094 -12.234375 C 6.820312 -12.292969 6.644531 -12.371094 6.449219 -12.410156 C 6.273438 -12.449219 6.078125 -12.507812 5.882812 -12.527344 C 5.707031 -12.546875 5.511719 -12.507812 5.316406 -12.507812 C 5.121094 -12.507812 4.945312 -12.488281 4.789062 -12.46875 C 4.59375 -12.449219 4.417969 -12.449219 4.242188 -12.410156 C 4.066406 -12.371094 3.910156 -12.3125 3.734375 -12.253906 C 3.578125 -12.195312 3.421875 -12.117188 3.265625 -12.039062 C 3.089844 -11.960938 2.933594 -11.882812 2.796875 -11.785156 C 2.636719 -11.6875 2.5 -11.570312 2.382812 -11.453125 C 2.246094 -11.316406 2.089844 -11.21875 1.992188 -11.082031 C 1.875 -10.945312 1.816406 -10.769531 1.71875 -10.613281 C 1.640625 -10.457031 1.542969 -10.320312 1.464844 -10.144531 C 1.40625 -9.988281 1.367188 -9.8125 1.328125 -9.636719 C 1.289062 -9.460938 1.25 -9.285156 1.230469 -9.109375 C 1.210938 -8.933594 1.210938 -8.757812 1.210938 -8.5625 C 1.210938 -8.386719 1.210938 -8.1875 1.25 -8.011719 C 1.269531 -7.835938 1.328125 -7.640625 1.386719 -7.484375 C 1.445312 -7.308594 1.5625 -7.152344 1.640625 -6.996094 C 1.738281 -6.839844 1.855469 -6.683594 1.972656 -6.546875 C 2.089844 -6.410156 2.246094 -6.3125 2.402344 -6.195312 C 2.539062 -6.078125 2.695312 -5.980469 2.855469 -5.902344 C 3.011719 -5.824219 3.1875 -5.746094 3.363281 -5.6875 C 3.519531 -5.628906 3.695312 -5.570312 3.851562 -5.511719 C 4.027344 -5.453125 4.183594 -5.394531 4.359375 -5.335938 C 4.515625 -5.277344 4.691406 -5.21875 4.847656 -5.160156 C 5.023438 -5.101562 5.179688 -5.0625 5.355469 -4.984375 C 5.511719 -4.925781 5.667969 -4.847656 5.824219 -4.789062 C 6 -4.730469 6.136719 -4.613281 6.3125 -4.554688 C 6.46875 -4.496094 6.644531 -4.457031 6.800781 -4.378906 C 6.957031 -4.28125 7.09375 -4.183594 7.210938 -4.066406 C 7.328125 -3.929688 7.425781 -3.792969 7.464844 -3.617188 C 7.484375 -3.460938 7.503906 -3.285156 7.464844 -3.089844 C 7.425781 -2.933594 7.347656 -2.757812 7.230469 -2.578125 C 7.132812 -2.441406 6.976562 -2.34375 6.820312 -2.226562 C 6.683594 -2.109375 6.507812 -2.03125 6.351562 -1.953125 C 6.175781 -1.875 6.019531 -1.796875 5.84375 -1.757812 C 5.648438 -1.71875 5.472656 -1.738281 5.296875 -1.757812 C 5.101562 -1.777344 4.925781 -1.816406 4.730469 -1.875 C 4.554688 -1.933594 4.378906 -2.011719 4.203125 -2.109375 C 4.027344 -2.1875 3.851562 -2.265625 3.695312 -2.363281 C 3.519531 -2.460938 3.382812 -2.597656 3.226562 -2.714844 C 3.070312 -2.855469 2.894531 -2.953125 2.796875 -3.089844 C 2.636719 -3.265625 2.539062 -3.382812 2.402344 -3.421875 C 2.246094 -3.460938 2.128906 -3.363281 1.953125 -3.226562 C 1.835938 -3.148438 1.71875 -3.03125 1.582031 -2.894531 C 1.425781 -2.734375 1.269531 -2.597656 1.171875 -2.480469 C 1.035156 -2.304688 0.917969 -2.128906 0.976562 -1.953125 C 1.035156 -1.816406 1.152344 -1.660156 1.347656 -1.503906 C 1.425781 -1.40625 1.542969 -1.269531 1.738281 -1.113281 C 1.855469 -0.996094 1.992188 -0.878906 2.148438 -0.761719 C 2.285156 -0.664062 2.460938 -0.585938 2.617188 -0.488281 C 2.777344 -0.390625 2.933594 -0.3125 3.109375 -0.234375 C 3.285156 -0.15625 3.460938 -0.136719 3.636719 -0.0976562 C 3.8125 -0.0390625 3.96875 0.078125 4.164062 0.0976562 C 4.320312 0.136719 4.515625 0.117188 4.710938 0.136719 C 4.886719 0.15625 5.0625 0.214844 5.257812 0.214844 C 5.433594 0.214844 5.609375 0.195312 5.765625 0.195312 C 5.960938 0.175781 6.117188 0.136719 6.292969 0.117188 C 6.46875 0.0976562 6.625 0.0390625 6.800781 0 C 6.976562 -0.0390625 7.132812 -0.078125 7.289062 -0.136719 C 7.464844 -0.195312 7.621094 -0.253906 7.777344 -0.332031 C 7.933594 -0.410156 8.089844 -0.488281 8.226562 -0.585938 C 8.386719 -0.683594 8.503906 -0.820312 8.621094 -0.9375 C 8.757812 -1.035156 8.914062 -1.132812 9.011719 -1.269531 C 9.128906 -1.40625 9.207031 -1.5625 9.285156 -1.71875 C 9.363281 -1.875 9.460938 -2.011719 9.519531 -2.1875 C 9.578125 -2.34375 9.617188 -2.519531 9.65625 -2.695312 C 9.675781 -2.855469 9.675781 -3.03125 9.675781 -3.207031 C 9.675781 -3.382812 9.675781 -3.558594 9.65625 -3.734375 C 9.636719 -3.890625 9.597656 -4.066406 9.558594 -4.222656 C 9.519531 -4.398438 9.441406 -4.554688 9.382812 -4.710938 C 9.324219 -4.867188 9.285156 -5.023438 9.1875 -5.179688 C 9.109375 -5.316406 8.992188 -5.453125 8.894531 -5.589844 C 8.777344 -5.707031 8.640625 -5.824219 8.523438 -5.941406 C 8.386719 -6.039062 8.289062 -6.175781 8.128906 -6.273438 C 7.992188 -6.371094 7.855469 -6.449219 7.699219 -6.527344 C 7.542969 -6.605469 7.386719 -6.664062 7.210938 -6.722656 C 7.054688 -6.761719 6.898438 -6.800781 6.742188 -6.859375 C 6.605469 -6.898438 6.449219 -6.976562 6.292969 -7.015625 C 6.15625 -7.074219 6 -7.113281 5.84375 -7.171875 C 5.6875 -7.230469 5.53125 -7.25 5.375 -7.308594 C 5.21875 -7.367188 5.042969 -7.40625 4.867188 -7.484375 C 4.710938 -7.542969 4.554688 -7.640625 4.398438 -7.71875 C 4.222656 -7.777344 4.066406 -7.855469 3.910156 -7.953125 C 3.753906 -8.070312 3.636719 -8.1875 3.539062 -8.328125 C 3.421875 -8.464844 3.324219 -8.640625 3.304688 -8.816406 C 3.304688 -8.992188 3.363281 -9.167969 3.402344 -9.324219 Z M 3.402344 -9.324219 "/></g></g></g><g fill="#00a19b" fill-opacity="1"><g transform="translate(129.909062, 42.687125)"><g><path d="M 3.675781 -6.703125 C 3.675781 -6.878906 3.675781 -7.054688 3.675781 -7.230469 C 3.675781 -7.40625 3.675781 -7.601562 3.675781 -7.777344 C 3.675781 -7.953125 3.714844 -8.128906 3.714844 -8.308594 C 3.714844 -8.484375 3.753906 -8.679688 3.753906 -8.855469 C 3.753906 -9.03125 3.714844 -9.207031 3.714844 -9.382812 C 3.714844 -9.558594 3.695312 -9.734375 3.695312 -9.910156 C 3.695312 -10.105469 3.714844 -10.28125 3.714844 -10.457031 C 3.714844 -10.632812 3.695312 -10.808594 3.695312 -10.984375 C 3.695312 -11.179688 3.753906 -11.355469 3.734375 -11.511719 C 3.714844 -11.726562 3.65625 -11.902344 3.597656 -12.039062 C 3.519531 -12.214844 3.363281 -12.253906 3.167969 -12.292969 C 3.03125 -12.3125 2.855469 -12.351562 2.636719 -12.351562 C 2.441406 -12.351562 2.265625 -12.332031 2.128906 -12.3125 C 1.953125 -12.273438 1.796875 -12.253906 1.699219 -12.058594 C 1.640625 -11.941406 1.601562 -11.785156 1.582031 -11.550781 C 1.5625 -11.394531 1.5625 -11.21875 1.5625 -11.023438 C 1.5625 -10.847656 1.601562 -10.691406 1.601562 -10.515625 C 1.601562 -10.339844 1.601562 -10.164062 1.601562 -9.988281 C 1.582031 -9.8125 1.582031 -9.636719 1.582031 -9.460938 C 1.582031 -9.285156 1.542969 -9.109375 1.542969 -8.933594 C 1.542969 -8.777344 1.5625 -8.601562 1.5625 -8.425781 C 1.5625 -8.246094 1.582031 -8.070312 1.582031 -7.894531 C 1.582031 -7.71875 1.523438 -7.542969 1.523438 -7.367188 C 1.523438 -7.191406 1.582031 -7.015625 1.582031 -6.839844 C 1.582031 -6.664062 1.5625 -6.488281 1.5625 -6.3125 C 1.5625 -6.136719 1.523438 -5.980469 1.523438 -5.804688 C 1.523438 -5.628906 1.5625 -5.453125 1.5625 -5.277344 C 1.5625 -5.101562 1.503906 -4.925781 1.503906 -4.75 C 1.503906 -4.574219 1.503906 -4.417969 1.503906 -4.242188 C 1.503906 -4.066406 1.542969 -3.890625 1.542969 -3.714844 C 1.542969 -3.539062 1.503906 -3.363281 1.503906 -3.1875 C 1.503906 -3.03125 1.542969 -2.855469 1.542969 -2.675781 C 1.542969 -2.5 1.523438 -2.324219 1.523438 -2.148438 C 1.523438 -1.992188 1.484375 -1.816406 1.484375 -1.640625 C 1.484375 -1.484375 1.484375 -1.308594 1.464844 -1.09375 C 1.445312 -0.9375 1.445312 -0.761719 1.445312 -0.546875 C 1.425781 -0.292969 1.542969 -0.117188 1.71875 -0.0390625 C 1.914062 0.078125 2.1875 0.0390625 2.304688 0.0390625 C 2.480469 0.0390625 2.675781 0.0195312 2.855469 0.0195312 C 3.050781 0 3.246094 -0.0195312 3.402344 -0.0585938 C 3.597656 -0.136719 3.714844 -0.234375 3.695312 -0.429688 C 3.675781 -0.585938 3.695312 -0.742188 3.695312 -0.898438 C 3.695312 -1.054688 3.675781 -1.210938 3.675781 -1.347656 C 3.675781 -1.503906 3.734375 -1.660156 3.734375 -1.816406 C 3.734375 -1.992188 3.714844 -2.167969 3.714844 -2.34375 C 3.714844 -2.539062 3.734375 -2.714844 3.734375 -2.894531 C 3.734375 -3.089844 3.714844 -3.265625 3.714844 -3.441406 C 3.714844 -3.617188 3.714844 -3.8125 3.714844 -3.988281 C 3.714844 -4.164062 3.714844 -4.359375 3.714844 -4.535156 C 3.714844 -4.710938 3.714844 -4.90625 3.714844 -5.082031 C 3.714844 -5.257812 3.714844 -5.433594 3.714844 -5.628906 C 3.714844 -5.804688 3.753906 -5.980469 3.753906 -6.175781 C 3.753906 -6.332031 3.675781 -6.527344 3.675781 -6.703125 Z M 3.675781 -6.703125 "/></g></g></g><g fill="#00a19b" fill-opacity="1"><g transform="translate(135.186182, 42.687125)"><g><path d="M 3.773438 -7.191406 C 3.851562 -7.191406 3.988281 -6.996094 4.144531 -6.742188 C 4.222656 -6.605469 4.359375 -6.449219 4.457031 -6.273438 C 4.554688 -6.117188 4.632812 -5.941406 4.710938 -5.765625 C 4.808594 -5.589844 4.867188 -5.394531 4.945312 -5.257812 C 5.042969 -5.101562 5.160156 -4.964844 5.257812 -4.808594 C 5.335938 -4.652344 5.433594 -4.496094 5.53125 -4.339844 C 5.628906 -4.203125 5.6875 -4.027344 5.785156 -3.890625 C 5.882812 -3.734375 6.039062 -3.617188 6.117188 -3.460938 C 6.214844 -3.304688 6.332031 -3.167969 6.429688 -3.011719 C 6.527344 -2.875 6.605469 -2.714844 6.703125 -2.558594 C 6.820312 -2.402344 6.917969 -2.265625 7.015625 -2.109375 C 7.113281 -1.953125 7.171875 -1.796875 7.269531 -1.640625 C 7.367188 -1.484375 7.484375 -1.347656 7.582031 -1.191406 C 7.679688 -1.035156 7.757812 -0.859375 7.855469 -0.703125 C 7.972656 -0.566406 8.109375 -0.429688 8.246094 -0.3125 C 8.386719 -0.214844 8.542969 -0.117188 8.71875 -0.0585938 C 8.894531 0 9.070312 0 9.285156 0 C 9.5 0 9.65625 0 9.773438 -0.0195312 C 9.988281 -0.078125 10.046875 -0.195312 10.085938 -0.371094 C 10.105469 -0.507812 10.105469 -0.664062 10.125 -0.878906 C 10.125 -1.054688 10.105469 -1.230469 10.125 -1.40625 C 10.125 -1.582031 10.164062 -1.757812 10.183594 -1.933594 C 10.183594 -2.109375 10.144531 -2.285156 10.144531 -2.460938 C 10.144531 -2.636719 10.164062 -2.816406 10.164062 -2.992188 C 10.164062 -3.167969 10.203125 -3.34375 10.203125 -3.519531 C 10.203125 -3.695312 10.164062 -3.871094 10.183594 -4.066406 C 10.183594 -4.242188 10.222656 -4.417969 10.222656 -4.59375 C 10.222656 -4.769531 10.242188 -4.945312 10.242188 -5.121094 C 10.242188 -5.296875 10.203125 -5.472656 10.203125 -5.648438 C 10.203125 -5.824219 10.261719 -6 10.261719 -6.175781 C 10.261719 -6.371094 10.261719 -6.546875 10.261719 -6.722656 C 10.28125 -6.898438 10.242188 -7.074219 10.242188 -7.25 C 10.242188 -7.425781 10.242188 -7.601562 10.242188 -7.777344 C 10.242188 -7.953125 10.28125 -8.128906 10.28125 -8.308594 C 10.28125 -8.484375 10.300781 -8.660156 10.300781 -8.816406 C 10.300781 -9.011719 10.261719 -9.1875 10.261719 -9.34375 C 10.261719 -9.539062 10.320312 -9.714844 10.320312 -9.890625 C 10.320312 -10.066406 10.300781 -10.242188 10.300781 -10.417969 C 10.300781 -10.59375 10.300781 -10.769531 10.300781 -10.945312 C 10.300781 -11.140625 10.339844 -11.296875 10.320312 -11.453125 C 10.300781 -11.648438 10.28125 -11.824219 10.222656 -11.960938 C 10.144531 -12.136719 10.027344 -12.253906 9.851562 -12.3125 C 9.714844 -12.371094 9.539062 -12.332031 9.34375 -12.332031 C 9.1875 -12.3125 9.011719 -12.3125 8.816406 -12.273438 C 8.679688 -12.253906 8.523438 -12.175781 8.347656 -12.117188 C 8.347656 -11.960938 8.308594 -11.824219 8.308594 -11.628906 C 8.289062 -11.472656 8.308594 -11.296875 8.308594 -11.121094 C 8.308594 -10.945312 8.269531 -10.769531 8.269531 -10.59375 C 8.269531 -10.417969 8.308594 -10.242188 8.308594 -10.066406 C 8.308594 -9.910156 8.269531 -9.734375 8.269531 -9.558594 C 8.269531 -9.382812 8.289062 -9.207031 8.289062 -9.03125 C 8.289062 -8.855469 8.226562 -8.679688 8.226562 -8.503906 C 8.226562 -8.347656 8.289062 -8.167969 8.289062 -7.992188 C 8.289062 -7.816406 8.246094 -7.640625 8.246094 -7.464844 C 8.246094 -7.289062 8.226562 -7.113281 8.226562 -6.957031 C 8.226562 -6.78125 8.246094 -6.605469 8.246094 -6.429688 C 8.246094 -6.253906 8.226562 -6.078125 8.226562 -5.921875 C 8.207031 -5.726562 8.1875 -5.550781 8.1875 -5.414062 C 8.167969 -5.082031 8.167969 -4.886719 8.148438 -4.90625 C 7.972656 -4.925781 7.835938 -5.101562 7.699219 -5.296875 C 7.582031 -5.492188 7.484375 -5.726562 7.40625 -5.84375 C 7.308594 -5.980469 7.171875 -6.117188 7.09375 -6.253906 C 6.996094 -6.410156 6.898438 -6.566406 6.800781 -6.722656 C 6.703125 -6.859375 6.664062 -7.035156 6.566406 -7.191406 C 6.46875 -7.347656 6.332031 -7.464844 6.234375 -7.621094 C 6.15625 -7.777344 6.058594 -7.914062 5.960938 -8.070312 C 5.863281 -8.226562 5.785156 -8.386719 5.6875 -8.542969 C 5.589844 -8.699219 5.511719 -8.855469 5.433594 -9.011719 C 5.335938 -9.148438 5.238281 -9.304688 5.140625 -9.460938 C 5.042969 -9.617188 4.984375 -9.773438 4.886719 -9.929688 C 4.808594 -10.085938 4.671875 -10.203125 4.574219 -10.359375 C 4.476562 -10.496094 4.417969 -10.671875 4.320312 -10.808594 C 4.222656 -10.964844 4.105469 -11.101562 4.007812 -11.257812 C 3.929688 -11.414062 3.832031 -11.570312 3.753906 -11.707031 C 3.636719 -11.921875 3.539062 -12.039062 3.421875 -12.15625 C 3.285156 -12.273438 3.148438 -12.3125 2.933594 -12.332031 C 2.796875 -12.351562 2.597656 -12.351562 2.382812 -12.332031 C 2.070312 -12.351562 1.894531 -12.351562 1.777344 -12.351562 C 1.542969 -12.332031 1.523438 -12.253906 1.523438 -11.902344 C 1.523438 -11.726562 1.5625 -11.550781 1.5625 -11.375 C 1.5625 -11.199219 1.5625 -11.023438 1.5625 -10.847656 C 1.5625 -10.671875 1.503906 -10.496094 1.503906 -10.320312 C 1.503906 -10.144531 1.523438 -9.96875 1.523438 -9.792969 C 1.523438 -9.617188 1.503906 -9.441406 1.523438 -9.265625 C 1.523438 -9.089844 1.542969 -8.914062 1.542969 -8.738281 C 1.542969 -8.5625 1.5625 -8.386719 1.5625 -8.207031 C 1.5625 -8.03125 1.542969 -7.855469 1.542969 -7.679688 C 1.542969 -7.503906 1.503906 -7.328125 1.503906 -7.171875 C 1.523438 -6.996094 1.5625 -6.820312 1.5625 -6.644531 C 1.5625 -6.46875 1.582031 -6.292969 1.582031 -6.117188 C 1.582031 -5.941406 1.5625 -5.765625 1.5625 -5.589844 C 1.5625 -5.414062 1.5625 -5.238281 1.5625 -5.0625 C 1.5625 -4.90625 1.582031 -4.710938 1.582031 -4.535156 C 1.582031 -4.359375 1.5625 -4.183594 1.5625 -3.988281 C 1.5625 -3.8125 1.5625 -3.636719 1.5625 -3.441406 C 1.5625 -3.265625 1.523438 -3.089844 1.523438 -2.894531 C 1.523438 -2.714844 1.5625 -2.539062 1.5625 -2.363281 C 1.5625 -2.167969 1.542969 -1.992188 1.523438 -1.816406 C 1.523438 -1.640625 1.542969 -1.445312 1.542969 -1.269531 C 1.542969 -1.09375 1.523438 -0.898438 1.523438 -0.742188 C 1.523438 -0.507812 1.5625 -0.351562 1.640625 -0.234375 C 1.71875 -0.0976562 1.855469 0 2.050781 0.0390625 C 2.1875 0.078125 2.363281 0.0976562 2.558594 0.0976562 C 2.777344 0.0976562 2.953125 0.078125 3.109375 0.0390625 C 3.304688 0 3.460938 -0.078125 3.558594 -0.234375 C 3.636719 -0.351562 3.65625 -0.527344 3.675781 -0.742188 C 3.675781 -0.878906 3.675781 -1.054688 3.65625 -1.230469 C 3.65625 -1.40625 3.65625 -1.5625 3.65625 -1.738281 C 3.636719 -1.914062 3.636719 -2.089844 3.636719 -2.226562 C 3.636719 -2.421875 3.636719 -2.617188 3.636719 -2.796875 C 3.617188 -2.992188 3.617188 -3.167969 3.617188 -3.34375 C 3.617188 -3.539062 3.617188 -3.734375 3.617188 -3.910156 C 3.617188 -4.105469 3.636719 -4.28125 3.636719 -4.476562 C 3.636719 -4.652344 3.675781 -4.847656 3.675781 -5.023438 C 3.675781 -5.21875 3.636719 -5.394531 3.636719 -5.589844 C 3.636719 -5.765625 3.636719 -5.960938 3.636719 -6.15625 C 3.636719 -6.332031 3.636719 -6.507812 3.617188 -6.722656 C 3.636719 -6.9375 3.558594 -7.230469 3.773438 -7.191406 Z M 3.773438 -7.191406 "/></g></g></g><g fill="#00a19b" fill-opacity="1"><g transform="translate(146.971746, 42.687125)"><g><path d="M 8.914062 -4.28125 C 8.875 -4.085938 8.835938 -3.910156 8.777344 -3.734375 C 8.71875 -3.558594 8.621094 -3.402344 8.542969 -3.246094 C 8.464844 -3.070312 8.367188 -2.914062 8.269531 -2.777344 C 8.128906 -2.636719 8.03125 -2.460938 7.894531 -2.363281 C 7.738281 -2.246094 7.582031 -2.148438 7.40625 -2.089844 C 7.25 -2.011719 7.054688 -1.972656 6.878906 -1.933594 C 6.703125 -1.894531 6.507812 -1.855469 6.332031 -1.855469 C 6.136719 -1.855469 5.960938 -1.894531 5.785156 -1.914062 C 5.609375 -1.953125 5.433594 -1.992188 5.257812 -2.070312 C 5.082031 -2.128906 4.925781 -2.226562 4.769531 -2.324219 C 4.632812 -2.441406 4.515625 -2.578125 4.398438 -2.714844 C 4.28125 -2.855469 4.125 -2.972656 4.027344 -3.128906 C 3.949219 -3.285156 3.871094 -3.441406 3.792969 -3.597656 C 3.714844 -3.773438 3.695312 -3.949219 3.636719 -4.105469 C 3.558594 -4.28125 3.480469 -4.417969 3.421875 -4.59375 C 3.382812 -4.769531 3.304688 -4.925781 3.265625 -5.101562 C 3.226562 -5.277344 3.226562 -5.453125 3.207031 -5.628906 C 3.1875 -5.804688 3.128906 -5.980469 3.128906 -6.15625 C 3.128906 -6.332031 3.109375 -6.507812 3.128906 -6.683594 C 3.128906 -6.859375 3.1875 -7.035156 3.207031 -7.210938 C 3.246094 -7.367188 3.265625 -7.542969 3.324219 -7.71875 C 3.363281 -7.894531 3.402344 -8.070312 3.460938 -8.226562 C 3.519531 -8.40625 3.617188 -8.542969 3.695312 -8.71875 C 3.773438 -8.875 3.792969 -9.050781 3.890625 -9.207031 C 3.988281 -9.34375 4.105469 -9.480469 4.222656 -9.597656 C 4.339844 -9.734375 4.496094 -9.832031 4.632812 -9.929688 C 4.769531 -10.046875 4.886719 -10.183594 5.042969 -10.242188 C 5.199219 -10.320312 5.375 -10.378906 5.550781 -10.417969 C 5.707031 -10.457031 5.882812 -10.476562 6.058594 -10.496094 C 6.234375 -10.496094 6.410156 -10.515625 6.585938 -10.476562 C 6.761719 -10.457031 6.9375 -10.4375 7.09375 -10.378906 C 7.269531 -10.320312 7.40625 -10.203125 7.5625 -10.125 C 7.71875 -10.046875 7.894531 -10.007812 8.050781 -9.910156 C 8.207031 -9.8125 8.328125 -9.675781 8.464844 -9.558594 C 8.621094 -9.441406 8.777344 -9.363281 8.933594 -9.285156 C 9.109375 -9.167969 9.246094 -9.03125 9.402344 -9.011719 C 9.578125 -8.972656 9.734375 -9.050781 9.910156 -9.148438 C 10.027344 -9.226562 10.183594 -9.324219 10.320312 -9.5 C 10.4375 -9.65625 10.515625 -9.8125 10.554688 -9.949219 C 10.632812 -10.125 10.652344 -10.28125 10.613281 -10.4375 C 10.574219 -10.59375 10.476562 -10.730469 10.339844 -10.867188 C 10.222656 -11.003906 10.105469 -11.121094 9.988281 -11.238281 C 9.851562 -11.355469 9.675781 -11.414062 9.539062 -11.511719 C 9.402344 -11.609375 9.285156 -11.746094 9.148438 -11.824219 C 8.992188 -11.921875 8.835938 -11.960938 8.679688 -12.039062 C 8.523438 -12.117188 8.386719 -12.214844 8.226562 -12.273438 C 8.050781 -12.332031 7.894531 -12.371094 7.71875 -12.410156 C 7.5625 -12.449219 7.386719 -12.46875 7.230469 -12.488281 C 7.054688 -12.507812 6.878906 -12.527344 6.722656 -12.546875 C 6.546875 -12.546875 6.371094 -12.527344 6.214844 -12.527344 C 6.039062 -12.527344 5.863281 -12.566406 5.6875 -12.546875 C 5.53125 -12.527344 5.355469 -12.449219 5.199219 -12.410156 C 5.023438 -12.371094 4.847656 -12.351562 4.671875 -12.292969 C 4.515625 -12.253906 4.320312 -12.253906 4.164062 -12.195312 C 3.988281 -12.136719 3.851562 -12 3.714844 -11.921875 C 3.558594 -11.84375 3.402344 -11.765625 3.246094 -11.667969 C 3.109375 -11.570312 2.953125 -11.472656 2.835938 -11.355469 C 2.695312 -11.238281 2.597656 -11.101562 2.480469 -10.964844 C 2.363281 -10.828125 2.285156 -10.671875 2.1875 -10.515625 C 2.089844 -10.378906 1.972656 -10.242188 1.875 -10.085938 C 1.796875 -9.929688 1.738281 -9.773438 1.660156 -9.597656 C 1.601562 -9.441406 1.601562 -9.265625 1.542969 -9.089844 C 1.503906 -8.933594 1.464844 -8.757812 1.425781 -8.601562 C 1.386719 -8.425781 1.308594 -8.269531 1.269531 -8.089844 C 1.230469 -7.914062 1.210938 -7.757812 1.191406 -7.582031 C 1.152344 -7.40625 1.152344 -7.230469 1.132812 -7.074219 C 1.113281 -6.898438 1.113281 -6.722656 1.113281 -6.546875 C 1.09375 -6.371094 1.074219 -6.195312 1.074219 -6.039062 C 1.074219 -5.863281 1.035156 -5.6875 1.054688 -5.511719 C 1.054688 -5.335938 1.113281 -5.160156 1.132812 -5.003906 C 1.152344 -4.828125 1.191406 -4.652344 1.230469 -4.496094 C 1.25 -4.320312 1.289062 -4.144531 1.328125 -3.988281 C 1.367188 -3.8125 1.425781 -3.65625 1.484375 -3.480469 C 1.523438 -3.324219 1.523438 -3.128906 1.582031 -2.972656 C 1.640625 -2.816406 1.757812 -2.675781 1.835938 -2.5 C 1.914062 -2.34375 1.953125 -2.167969 2.050781 -2.03125 C 2.128906 -1.875 2.246094 -1.738281 2.34375 -1.601562 C 2.441406 -1.445312 2.539062 -1.308594 2.675781 -1.171875 C 2.796875 -1.054688 2.933594 -0.9375 3.070312 -0.839844 C 3.207031 -0.722656 3.324219 -0.605469 3.480469 -0.507812 C 3.617188 -0.410156 3.753906 -0.292969 3.910156 -0.214844 C 4.066406 -0.136719 4.242188 -0.078125 4.417969 -0.0195312 C 4.574219 0.0390625 4.730469 0.0976562 4.90625 0.136719 C 5.082031 0.175781 5.257812 0.214844 5.433594 0.234375 C 5.589844 0.253906 5.765625 0.234375 5.941406 0.253906 C 6.117188 0.253906 6.292969 0.273438 6.449219 0.253906 C 6.625 0.253906 6.800781 0.175781 6.957031 0.15625 C 7.132812 0.117188 7.308594 0.136719 7.484375 0.0976562 C 7.640625 0.0390625 7.816406 0 7.972656 -0.0585938 C 8.128906 -0.117188 8.269531 -0.234375 8.425781 -0.3125 C 8.582031 -0.390625 8.757812 -0.429688 8.894531 -0.527344 C 9.050781 -0.605469 9.1875 -0.703125 9.324219 -0.800781 C 9.460938 -0.917969 9.558594 -1.054688 9.675781 -1.171875 C 9.8125 -1.289062 9.949219 -1.386719 10.066406 -1.523438 C 10.183594 -1.660156 10.300781 -1.777344 10.398438 -1.914062 C 10.496094 -2.050781 10.535156 -2.226562 10.632812 -2.382812 C 10.710938 -2.539062 10.847656 -2.65625 10.925781 -2.816406 C 10.984375 -2.972656 10.984375 -3.148438 11.042969 -3.324219 C 11.101562 -3.480469 11.160156 -3.636719 11.199219 -3.8125 C 11.238281 -3.96875 11.257812 -4.144531 11.277344 -4.320312 C 11.316406 -4.476562 11.355469 -4.652344 11.375 -4.828125 C 11.375 -4.984375 11.375 -5.160156 11.375 -5.335938 C 11.375 -5.511719 11.394531 -5.6875 11.355469 -5.84375 C 11.316406 -6.019531 11.277344 -6.175781 11.199219 -6.332031 C 11.101562 -6.46875 10.964844 -6.566406 10.828125 -6.664062 C 10.691406 -6.742188 10.535156 -6.820312 10.359375 -6.839844 C 10.183594 -6.839844 10.007812 -6.820312 9.832031 -6.839844 C 9.675781 -6.839844 9.5 -6.839844 9.324219 -6.839844 C 9.167969 -6.839844 8.992188 -6.859375 8.835938 -6.859375 C 8.660156 -6.859375 8.484375 -6.859375 8.328125 -6.859375 C 8.148438 -6.878906 7.972656 -6.917969 7.816406 -6.917969 C 7.640625 -6.917969 7.464844 -6.9375 7.289062 -6.9375 C 7.132812 -6.9375 6.957031 -6.898438 6.78125 -6.898438 C 6.625 -6.898438 6.449219 -6.859375 6.273438 -6.859375 C 6.117188 -6.839844 5.941406 -6.878906 5.765625 -6.859375 C 5.628906 -6.859375 5.550781 -6.683594 5.492188 -6.488281 C 5.453125 -6.3125 5.355469 -6.136719 5.355469 -5.980469 C 5.335938 -5.824219 5.335938 -5.628906 5.355469 -5.472656 C 5.394531 -5.296875 5.511719 -5.179688 5.648438 -5.0625 C 5.785156 -4.964844 5.941406 -4.90625 6.136719 -4.886719 C 6.3125 -4.867188 6.507812 -4.886719 6.683594 -4.886719 C 6.898438 -4.867188 7.09375 -4.808594 7.269531 -4.808594 C 7.464844 -4.789062 7.660156 -4.789062 7.855469 -4.789062 C 8.03125 -4.769531 8.226562 -4.789062 8.445312 -4.789062 C 8.621094 -4.789062 8.816406 -4.828125 9.050781 -4.828125 C 9.011719 -4.632812 8.953125 -4.4375 8.914062 -4.28125 Z M 8.914062 -4.28125 "/></g></g></g><g fill="#00a19b" fill-opacity="1"><g transform="translate(159.32411, 42.687125)"><g><path d="M 3.695312 -7.679688 C 3.695312 -7.855469 3.714844 -8.011719 3.695312 -8.148438 C 3.695312 -8.308594 3.675781 -8.464844 3.675781 -8.621094 C 3.65625 -8.777344 3.65625 -8.933594 3.617188 -9.070312 C 3.617188 -9.226562 3.539062 -9.402344 3.539062 -9.597656 C 3.519531 -9.753906 3.558594 -9.929688 3.558594 -10.105469 C 3.558594 -10.28125 3.519531 -10.457031 3.5 -10.632812 C 3.5 -10.808594 3.519531 -11.003906 3.519531 -11.160156 C 3.519531 -11.355469 3.5 -11.53125 3.480469 -11.6875 C 3.480469 -11.882812 3.421875 -12 3.363281 -12.097656 C 3.285156 -12.214844 3.167969 -12.273438 2.992188 -12.292969 C 2.855469 -12.3125 2.714844 -12.3125 2.539062 -12.3125 C 2.363281 -12.332031 2.207031 -12.390625 2.070312 -12.390625 C 1.894531 -12.371094 1.777344 -12.273438 1.679688 -12.175781 C 1.601562 -12.097656 1.542969 -11.980469 1.523438 -11.765625 C 1.503906 -11.667969 1.445312 -11.453125 1.464844 -11.257812 C 1.464844 -11.042969 1.523438 -10.847656 1.523438 -10.730469 C 1.523438 -10.554688 1.503906 -10.378906 1.503906 -10.203125 C 1.503906 -10.027344 1.484375 -9.851562 1.484375 -9.675781 C 1.484375 -9.5 1.503906 -9.324219 1.503906 -9.148438 C 1.503906 -8.972656 1.542969 -8.796875 1.542969 -8.640625 C 1.542969 -8.464844 1.484375 -8.289062 1.484375 -8.109375 C 1.484375 -7.933594 1.503906 -7.757812 1.503906 -7.582031 C 1.503906 -7.40625 1.542969 -7.230469 1.542969 -7.054688 C 1.542969 -6.878906 1.542969 -6.703125 1.542969 -6.546875 C 1.5625 -6.371094 1.503906 -6.195312 1.523438 -6.019531 C 1.523438 -5.84375 1.523438 -5.667969 1.523438 -5.492188 C 1.523438 -5.316406 1.542969 -5.140625 1.542969 -4.964844 C 1.542969 -4.789062 1.5625 -4.613281 1.5625 -4.4375 C 1.5625 -4.28125 1.542969 -4.105469 1.542969 -3.929688 C 1.542969 -3.753906 1.503906 -3.578125 1.503906 -3.402344 C 1.523438 -3.226562 1.542969 -3.050781 1.542969 -2.875 C 1.5625 -2.695312 1.582031 -2.519531 1.582031 -2.34375 C 1.582031 -2.1875 1.582031 -2.011719 1.582031 -1.835938 C 1.582031 -1.640625 1.601562 -1.464844 1.621094 -1.328125 C 1.621094 -1.132812 1.582031 -0.957031 1.601562 -0.800781 C 1.640625 -0.605469 1.738281 -0.46875 1.796875 -0.351562 C 1.894531 -0.175781 1.992188 -0.0390625 2.148438 0 C 2.285156 0.0390625 2.460938 0.0195312 2.65625 0.0195312 C 2.894531 0.0195312 3.089844 -0.0195312 3.226562 -0.0976562 C 3.402344 -0.195312 3.480469 -0.390625 3.539062 -0.585938 C 3.578125 -0.761719 3.597656 -0.957031 3.597656 -1.152344 C 3.597656 -1.347656 3.617188 -1.5625 3.636719 -1.738281 C 3.65625 -1.914062 3.636719 -2.109375 3.636719 -2.285156 C 3.65625 -2.460938 3.675781 -2.636719 3.675781 -2.835938 C 3.675781 -3.011719 3.675781 -3.1875 3.675781 -3.382812 C 3.675781 -3.558594 3.65625 -3.734375 3.65625 -3.929688 C 3.65625 -4.105469 3.695312 -4.28125 3.695312 -4.476562 C 3.695312 -4.652344 3.65625 -4.867188 3.675781 -5.042969 C 3.851562 -5.042969 4.046875 -5.003906 4.222656 -5.003906 C 4.398438 -5.003906 4.59375 -4.984375 4.769531 -4.984375 C 4.945312 -4.984375 5.121094 -5.042969 5.316406 -5.042969 C 5.492188 -5.023438 5.667969 -4.984375 5.863281 -4.984375 C 6.039062 -4.984375 6.214844 -4.964844 6.410156 -4.964844 C 6.585938 -4.964844 6.761719 -5.023438 6.957031 -5.023438 C 7.132812 -5.003906 7.308594 -4.984375 7.484375 -4.984375 C 7.679688 -4.984375 7.835938 -4.964844 8.011719 -4.964844 C 8.03125 -4.789062 8.070312 -4.632812 8.089844 -4.476562 C 8.089844 -4.300781 8.03125 -4.125 8.03125 -3.96875 C 8.050781 -3.792969 8.109375 -3.636719 8.109375 -3.460938 C 8.128906 -3.285156 8.109375 -3.128906 8.128906 -2.953125 C 8.128906 -2.796875 8.148438 -2.617188 8.148438 -2.441406 C 8.167969 -2.285156 8.128906 -2.109375 8.148438 -1.933594 C 8.148438 -1.757812 8.167969 -1.582031 8.1875 -1.40625 C 8.1875 -1.230469 8.148438 -1.054688 8.167969 -0.878906 C 8.167969 -0.683594 8.1875 -0.527344 8.226562 -0.410156 C 8.308594 -0.234375 8.445312 -0.15625 8.601562 -0.0976562 C 8.71875 -0.0390625 8.875 0.0195312 9.050781 0.0195312 C 9.226562 0.0390625 9.382812 0 9.519531 -0.0390625 C 9.695312 -0.0976562 9.792969 -0.175781 9.871094 -0.3125 C 9.949219 -0.429688 9.96875 -0.566406 9.96875 -0.761719 C 10.007812 -0.996094 10.007812 -1.210938 10.007812 -1.445312 C 10.007812 -1.621094 10.046875 -1.816406 10.046875 -1.992188 C 10.046875 -2.167969 10.066406 -2.363281 10.066406 -2.539062 C 10.066406 -2.714844 10.046875 -2.894531 10.046875 -3.089844 C 10.046875 -3.265625 10.007812 -3.441406 10.007812 -3.617188 C 10.007812 -3.8125 10.046875 -3.988281 10.046875 -4.164062 C 10.046875 -4.359375 10.027344 -4.535156 10.027344 -4.710938 C 10.027344 -4.886719 10.085938 -5.082031 10.085938 -5.257812 C 10.085938 -5.433594 10.085938 -5.609375 10.085938 -5.804688 C 10.085938 -5.980469 10.027344 -6.15625 10.027344 -6.332031 C 10.027344 -6.527344 10.046875 -6.703125 10.046875 -6.878906 C 10.046875 -7.074219 10.027344 -7.25 10.027344 -7.425781 C 10.027344 -7.601562 10.085938 -7.796875 10.085938 -7.972656 C 10.085938 -8.148438 10.105469 -8.328125 10.105469 -8.523438 C 10.105469 -8.699219 10.085938 -8.875 10.085938 -9.050781 C 10.085938 -9.246094 10.066406 -9.421875 10.066406 -9.597656 C 10.066406 -9.792969 10.066406 -9.96875 10.066406 -10.144531 C 10.066406 -10.320312 10.066406 -10.515625 10.066406 -10.691406 C 10.066406 -10.828125 10.105469 -11.003906 10.105469 -11.179688 C 10.125 -11.355469 10.085938 -11.53125 10.066406 -11.6875 C 10.027344 -11.882812 9.929688 -12.039062 9.832031 -12.136719 C 9.695312 -12.273438 9.539062 -12.371094 9.363281 -12.410156 C 9.1875 -12.429688 9.011719 -12.332031 8.835938 -12.292969 C 8.679688 -12.253906 8.484375 -12.234375 8.347656 -12.175781 C 8.167969 -12.117188 8.03125 -12.039062 7.953125 -11.863281 C 7.914062 -11.707031 7.933594 -11.511719 7.933594 -11.277344 C 7.933594 -11.101562 7.894531 -10.886719 7.914062 -10.691406 C 7.914062 -10.476562 7.953125 -10.28125 7.953125 -10.125 C 7.933594 -9.929688 7.992188 -9.753906 7.992188 -9.558594 C 7.992188 -9.382812 7.953125 -9.1875 7.953125 -9.011719 C 7.953125 -8.816406 8.011719 -8.640625 8.011719 -8.445312 C 8.011719 -8.269531 7.972656 -8.070312 7.972656 -7.894531 C 7.972656 -7.699219 7.953125 -7.542969 7.933594 -7.347656 C 7.71875 -7.328125 7.5625 -7.289062 7.40625 -7.289062 C 7.191406 -7.269531 7.015625 -7.289062 6.839844 -7.289062 C 6.683594 -7.289062 6.507812 -7.308594 6.332031 -7.308594 C 6.15625 -7.289062 5.980469 -7.230469 5.804688 -7.230469 C 5.628906 -7.230469 5.453125 -7.210938 5.277344 -7.210938 C 5.101562 -7.210938 4.925781 -7.210938 4.75 -7.210938 C 4.574219 -7.210938 4.398438 -7.191406 4.222656 -7.191406 C 4.046875 -7.191406 3.871094 -7.230469 3.695312 -7.230469 C 3.695312 -7.386719 3.695312 -7.542969 3.695312 -7.679688 Z M 3.695312 -7.679688 "/></g></g></g></svg>