<svg xmlns="http://www.w3.org/2000/svg" xmlns:xlink="http://www.w3.org/1999/xlink" width="250" zoomAndPan="magnify" viewBox="0 0 187.5 74.999997" height="100" preserveAspectRatio="xMidYMid meet" version="1.0"><defs><g/><clipPath id="34397c308b"><path d="M 2.101562 13.492188 L 185.253906 13.492188 L 185.253906 61.660156 L 2.101562 61.660156 Z M 2.101562 13.492188 " clip-rule="nonzero"/></clipPath><clipPath id="d81b1fb90a"><path d="M 7.476562 18.019531 L 107.722656 18.019531 L 107.722656 57.179688 L 7.476562 57.179688 Z M 7.476562 18.019531 " clip-rule="nonzero"/></clipPath></defs><g clip-path="url(#34397c308b)"><path stroke-linecap="butt" transform="matrix(0.501402, 0, 0, 0.501299, 2.101953, 13.490336)" fill="none" stroke-linejoin="miter" d="M -0.000778959 0.00369438 L 365.279474 0.00369438 L 365.279474 96.089996 L -0.000778959 96.089996 L -0.000778959 0.00369438 " stroke="#000000" stroke-width="8.967918" stroke-opacity="1" stroke-miterlimit="4"/></g><g clip-path="url(#d81b1fb90a)"><path fill="#000000" d="M 7.476562 18.019531 L 107.761719 18.019531 L 107.761719 57.234375 L 7.476562 57.234375 Z M 7.476562 18.019531 " fill-opacity="1" fill-rule="nonzero"/></g><g fill="#ffffff" fill-opacity="1"><g transform="translate(10.774152, 43.700318)"><g><path d="M 0.320312 0 L 2.085938 0 L 3.289062 -2.988281 L 9.695312 -2.988281 L 10.9375 0 L 12.683594 0 L 7.273438 -13.15625 L 5.730469 -13.15625 Z M 3.925781 -4.527344 L 6.503906 -10.84375 L 9.078125 -4.527344 Z M 3.925781 -4.527344 "/></g></g></g><g fill="#ffffff" fill-opacity="1"><g transform="translate(25.202132, 43.700318)"><g><path d="M 1.917969 0 L 3.570312 0 L 3.570312 -4.714844 L 6.464844 -4.714844 L 9.679688 0 L 11.667969 0 L 8.363281 -4.886719 C 10.277344 -5.355469 11.464844 -6.800781 11.464844 -8.925781 C 11.464844 -11.539062 9.660156 -13.15625 6.933594 -13.15625 L 1.917969 -13.15625 Z M 3.570312 -6.296875 L 3.570312 -11.574219 L 6.746094 -11.574219 C 8.664062 -11.574219 9.773438 -10.597656 9.773438 -8.925781 C 9.773438 -7.253906 8.664062 -6.296875 6.746094 -6.296875 Z M 3.570312 -6.296875 "/></g></g></g><g fill="#ffffff" fill-opacity="1"><g transform="translate(39.423474, 43.700318)"><g><path d="M 1.917969 0 L 3.570312 0 L 3.570312 -13.15625 L 1.917969 -13.15625 Z M 1.917969 0 "/></g></g></g><g fill="#ffffff" fill-opacity="1"><g transform="translate(46.337183, 43.700318)"><g><path d="M 1.917969 0 L 3.550781 0 L 3.550781 -10.296875 L 10.824219 0 L 12.363281 0 L 12.363281 -13.15625 L 10.75 -13.15625 L 10.75 -2.855469 L 3.476562 -13.15625 L 1.917969 -13.15625 Z M 1.917969 0 "/></g></g></g><g fill="#ffffff" fill-opacity="1"><g transform="translate(62.04259, 43.700318)"><g><path d="M 0.828125 0 L 2.707031 0 C 5.730469 0 7.140625 -1.730469 7.140625 -4.339844 L 7.140625 -13.15625 L 5.488281 -13.15625 L 5.488281 -4.433594 C 5.488281 -2.6875 4.8125 -1.578125 2.707031 -1.578125 L 0.828125 -1.578125 Z M 0.828125 0 "/></g></g></g><g fill="#ffffff" fill-opacity="1"><g transform="translate(72.488006, 43.700318)"><g><path d="M 0.320312 0 L 2.085938 0 L 3.289062 -2.988281 L 9.695312 -2.988281 L 10.9375 0 L 12.683594 0 L 7.273438 -13.15625 L 5.730469 -13.15625 Z M 3.925781 -4.527344 L 6.503906 -10.84375 L 9.078125 -4.527344 Z M 3.925781 -4.527344 "/></g></g></g><g fill="#ffffff" fill-opacity="1"><g transform="translate(86.915987, 43.700318)"><g><path d="M 5.261719 0 L 6.878906 0 L 6.878906 -4.734375 L 11.820312 -13.15625 L 9.960938 -13.15625 L 6.089844 -6.503906 L 4.378906 -9.472656 L 2.234375 -13.15625 L 0.320312 -13.15625 L 5.261719 -4.734375 Z M 5.261719 0 "/></g></g></g><g fill="#000000" fill-opacity="1"><g transform="translate(115.103982, 43.801515)"><g><path d="M 6.105469 0.28125 C 9.375 0.28125 11.3125 -1.257812 11.3125 -3.851562 C 11.3125 -6.03125 9.902344 -7.308594 6.707031 -8.023438 C 5.015625 -8.398438 4.398438 -8.8125 4.398438 -9.488281 C 4.398438 -10.128906 4.960938 -10.523438 5.84375 -10.523438 C 6.894531 -10.523438 7.496094 -9.976562 7.496094 -8.980469 L 11.066406 -8.980469 C 11.066406 -11.6875 9 -13.4375 5.769531 -13.4375 C 2.667969 -13.4375 0.75 -11.894531 0.75 -9.414062 C 0.75 -7.195312 2.199219 -5.824219 5.167969 -5.261719 C 6.765625 -4.941406 7.535156 -4.453125 7.535156 -3.703125 C 7.535156 -3.042969 6.972656 -2.667969 6.050781 -2.667969 C 4.960938 -2.667969 4.320312 -3.25 4.320312 -4.265625 L 0.65625 -4.265625 C 0.65625 -1.429688 2.6875 0.28125 6.105469 0.28125 Z M 6.105469 0.28125 "/></g></g></g><g fill="#000000" fill-opacity="1"><g transform="translate(127.111, 43.801515)"><g><path d="M 1.390625 0 L 5.1875 0 L 5.1875 -13.152344 L 1.390625 -13.152344 Z M 1.390625 0 "/></g></g></g><g fill="#000000" fill-opacity="1"><g transform="translate(133.687617, 43.801515)"><g><path d="M 1.390625 0 L 5.148438 0 L 5.148438 -6.707031 L 10.148438 0 L 13.230469 0 L 13.230469 -13.152344 L 9.488281 -13.152344 L 9.488281 -6.484375 L 4.492188 -13.152344 L 1.390625 -13.152344 Z M 1.390625 0 "/></g></g></g><g fill="#000000" fill-opacity="1"><g transform="translate(148.325278, 43.801515)"><g><path d="M 7.667969 0.28125 C 12.195312 0.28125 15.03125 -3.007812 14.621094 -7.628906 L 7.007812 -7.628906 L 7.007812 -4.960938 L 10.636719 -4.960938 C 10.261719 -3.851562 9.207031 -3.101562 7.703125 -3.101562 C 5.601562 -3.101562 4.378906 -4.585938 4.378906 -6.578125 C 4.378906 -8.644531 5.710938 -10.054688 7.667969 -10.054688 C 8.832031 -10.054688 9.828125 -9.546875 10.335938 -8.71875 L 14.375 -8.71875 C 13.605469 -11.59375 10.9375 -13.4375 7.609375 -13.4375 C 3.476562 -13.4375 0.640625 -10.617188 0.640625 -6.578125 C 0.640625 -2.519531 3.496094 0.28125 7.667969 0.28125 Z M 7.667969 0.28125 "/></g></g></g><g fill="#000000" fill-opacity="1"><g transform="translate(163.583018, 43.801515)"><g><path d="M 9.246094 0 L 13.042969 0 L 13.042969 -13.152344 L 9.246094 -13.152344 L 9.246094 -8.4375 L 5.1875 -8.4375 L 5.1875 -13.152344 L 1.390625 -13.152344 L 1.390625 0 L 5.1875 0 L 5.1875 -4.941406 L 9.246094 -4.941406 Z M 9.246094 0 "/></g></g></g></svg>