<svg xmlns="http://www.w3.org/2000/svg" xmlns:xlink="http://www.w3.org/1999/xlink" width="250" zoomAndPan="magnify" viewBox="0 0 187.5 74.999997" height="100" preserveAspectRatio="xMidYMid meet" version="1.0"><defs><g/><clipPath id="6f84e573ca"><path d="M 2.738281 10.132812 L 184.859375 10.132812 L 184.859375 64.976562 L 2.738281 64.976562 Z M 2.738281 10.132812 " clip-rule="nonzero"/></clipPath><clipPath id="f7d574bfb5"><path d="M 30.175781 10.132812 L 157.371094 10.132812 C 172.527344 10.132812 184.8125 22.410156 184.8125 37.554688 C 184.8125 52.699219 172.527344 64.976562 157.371094 64.976562 L 30.175781 64.976562 C 15.023438 64.976562 2.738281 52.699219 2.738281 37.554688 C 2.738281 22.410156 15.023438 10.132812 30.175781 10.132812 " clip-rule="nonzero"/></clipPath><clipPath id="4dd0680d88"><path d="M 8.789062 16.980469 L 112.609375 16.980469 L 112.609375 58 L 8.789062 58 Z M 8.789062 16.980469 " clip-rule="nonzero"/></clipPath><clipPath id="0e341403ee"><path d="M 29.238281 16.980469 L 91.597656 16.980469 C 102.890625 16.980469 112.042969 26.136719 112.042969 37.429688 C 112.042969 48.722656 102.890625 57.875 91.597656 57.875 L 29.238281 57.875 C 17.941406 57.875 8.789062 48.722656 8.789062 37.429688 C 8.789062 26.136719 17.941406 16.980469 29.238281 16.980469 " clip-rule="nonzero"/></clipPath></defs><g clip-path="url(#6f84e573ca)"><g clip-path="url(#f7d574bfb5)"><path stroke-linecap="butt" transform="matrix(1.957806, 0, 0, 1.956609, 2.736585, 10.131558)" fill="none" stroke-linejoin="miter" d="M 14.015279 0.000641084 L 78.983574 0.000641084 C 86.72502 0.000641084 92.999982 6.275449 92.999982 14.015642 C 92.999982 21.755836 86.72502 28.030643 78.983574 28.030643 L 14.015279 28.030643 C 6.275827 28.030643 0.000866205 21.755836 0.000866205 14.015642 C 0.000866205 6.275449 6.275827 0.000641084 14.015279 0.000641084 " stroke="#00a19b" stroke-width="2.297334" stroke-opacity="1" stroke-miterlimit="4"/></g></g><g clip-path="url(#4dd0680d88)"><g clip-path="url(#0e341403ee)"><path fill="#00a19b" d="M 8.789062 16.980469 L 112.609375 16.980469 L 112.609375 57.828125 L 8.789062 57.828125 Z M 8.789062 16.980469 " fill-opacity="1" fill-rule="nonzero"/></g></g><g fill="#ffffff" fill-opacity="1"><g transform="translate(18.05801, 42.743254)"><g><path d="M 4.105469 -2.308594 C 4.289062 -2.285156 4.472656 -2.246094 4.65625 -2.246094 C 4.859375 -2.246094 5.042969 -2.246094 5.226562 -2.246094 C 5.410156 -2.246094 5.59375 -2.265625 5.777344 -2.265625 C 5.960938 -2.265625 6.144531 -2.265625 6.328125 -2.265625 C 6.511719 -2.285156 6.71875 -2.328125 6.921875 -2.328125 C 7.148438 -2.308594 7.351562 -2.285156 7.535156 -2.285156 C 7.882812 -2.265625 7.882812 -2.390625 8.148438 -2.265625 C 8.371094 -2.164062 8.230469 -2.0625 8.390625 -1.816406 C 8.472656 -1.695312 8.597656 -1.570312 8.679688 -1.410156 C 8.757812 -1.265625 8.820312 -1.121094 8.882812 -0.960938 C 8.964844 -0.816406 9.046875 -0.652344 9.066406 -0.511719 C 9.128906 -0.285156 9.230469 -0.183594 9.332031 -0.101562 C 9.453125 -0.0195312 9.597656 -0.0195312 9.800781 -0.0195312 C 9.945312 -0.0195312 10.128906 0 10.3125 0 C 10.515625 0 10.679688 -0.0390625 10.820312 -0.0625 C 11.046875 -0.101562 11.1875 -0.164062 11.25 -0.285156 C 11.3125 -0.410156 11.292969 -0.570312 11.210938 -0.796875 C 11.148438 -0.9375 11.085938 -1.121094 11.003906 -1.308594 C 10.945312 -1.46875 10.925781 -1.675781 10.84375 -1.835938 C 10.78125 -2.019531 10.660156 -2.164062 10.597656 -2.347656 C 10.515625 -2.53125 10.453125 -2.695312 10.371094 -2.878906 C 10.3125 -3.042969 10.289062 -3.246094 10.230469 -3.410156 C 10.148438 -3.59375 10.046875 -3.757812 9.984375 -3.921875 C 9.921875 -4.105469 9.820312 -4.265625 9.761719 -4.429688 C 9.699219 -4.59375 9.65625 -4.777344 9.597656 -4.941406 C 9.535156 -5.105469 9.433594 -5.269531 9.371094 -5.429688 C 9.3125 -5.613281 9.230469 -5.777344 9.167969 -5.941406 C 9.105469 -6.105469 9.066406 -6.289062 9.003906 -6.453125 C 8.941406 -6.636719 8.882812 -6.800781 8.820312 -6.960938 C 8.738281 -7.125 8.679688 -7.289062 8.597656 -7.472656 C 8.535156 -7.636719 8.515625 -7.820312 8.453125 -7.984375 C 8.390625 -8.167969 8.269531 -8.308594 8.207031 -8.472656 C 8.148438 -8.636719 8.105469 -8.820312 8.042969 -8.984375 C 7.964844 -9.167969 7.941406 -9.332031 7.882812 -9.515625 C 7.820312 -9.679688 7.71875 -9.839844 7.636719 -10.003906 C 7.574219 -10.167969 7.535156 -10.351562 7.472656 -10.515625 C 7.390625 -10.679688 7.332031 -10.84375 7.269531 -11.027344 C 7.207031 -11.1875 7.105469 -11.351562 7.042969 -11.515625 C 6.984375 -11.679688 6.902344 -11.84375 6.839844 -12.007812 C 6.738281 -12.273438 6.71875 -12.476562 6.636719 -12.597656 C 6.472656 -12.84375 6.308594 -12.882812 6.105469 -12.90625 C 5.941406 -12.925781 5.757812 -12.925781 5.492188 -12.90625 C 5.308594 -12.90625 5.207031 -12.882812 5.042969 -12.761719 C 4.960938 -12.679688 4.820312 -12.597656 4.695312 -12.414062 C 4.636719 -12.292969 4.613281 -12.128906 4.53125 -11.945312 C 4.472656 -11.800781 4.390625 -11.660156 4.328125 -11.496094 C 4.265625 -11.332031 4.226562 -11.148438 4.164062 -10.964844 C 4.105469 -10.800781 4.042969 -10.636719 3.980469 -10.453125 C 3.921875 -10.289062 3.859375 -10.105469 3.796875 -9.945312 C 3.738281 -9.761719 3.65625 -9.597656 3.59375 -9.414062 C 3.53125 -9.25 3.53125 -9.046875 3.472656 -8.882812 C 3.410156 -8.699219 3.308594 -8.554688 3.246094 -8.371094 C 3.183594 -8.207031 3.164062 -8.023438 3.105469 -7.839844 C 3.042969 -7.65625 2.941406 -7.515625 2.878906 -7.332031 C 2.839844 -7.167969 2.777344 -6.984375 2.714844 -6.800781 C 2.65625 -6.636719 2.613281 -6.453125 2.550781 -6.289062 C 2.492188 -6.105469 2.429688 -5.941406 2.367188 -5.757812 C 2.308594 -5.59375 2.265625 -5.410156 2.207031 -5.226562 C 2.144531 -5.0625 2.019531 -4.902344 1.960938 -4.738281 C 1.898438 -4.574219 1.917969 -4.371094 1.859375 -4.1875 C 1.796875 -4.023438 1.734375 -3.859375 1.675781 -3.675781 C 1.613281 -3.511719 1.492188 -3.347656 1.429688 -3.183594 C 1.367188 -3 1.367188 -2.816406 1.308594 -2.65625 C 1.246094 -2.46875 1.164062 -2.308594 1.101562 -2.144531 C 1.0625 -2.042969 0.980469 -1.816406 0.878906 -1.570312 C 0.816406 -1.386719 0.753906 -1.183594 0.671875 -1 C 0.59375 -0.734375 0.550781 -0.511719 0.550781 -0.410156 C 0.511719 -0.0625 0.632812 0.0195312 0.898438 0.0195312 C 1.082031 0.0390625 1.308594 0 1.570312 0.0195312 C 1.757812 0.0390625 2 0.0390625 2.226562 0 C 2.449219 -0.0390625 2.613281 -0.121094 2.734375 -0.328125 C 2.816406 -0.488281 2.917969 -0.632812 2.980469 -0.796875 C 3.042969 -0.960938 3.105469 -1.121094 3.164062 -1.285156 C 3.226562 -1.449219 3.265625 -1.613281 3.347656 -1.777344 C 3.410156 -1.941406 3.449219 -2.125 3.53125 -2.285156 C 3.714844 -2.285156 3.921875 -2.308594 4.105469 -2.308594 Z M 4.371094 -5.023438 C 4.429688 -5.207031 4.492188 -5.371094 4.554688 -5.535156 C 4.613281 -5.71875 4.675781 -5.878906 4.738281 -6.0625 C 4.796875 -6.226562 4.859375 -6.390625 4.941406 -6.554688 C 5.003906 -6.738281 5.042969 -6.902344 5.125 -7.066406 C 5.1875 -7.25 5.308594 -7.390625 5.371094 -7.554688 C 5.429688 -7.71875 5.429688 -7.921875 5.492188 -8.105469 C 5.554688 -8.269531 5.65625 -8.453125 5.71875 -8.636719 C 5.820312 -8.453125 5.878906 -8.25 5.960938 -8.105469 C 6.0625 -7.921875 6.1875 -7.78125 6.269531 -7.617188 C 6.371094 -7.453125 6.433594 -7.269531 6.492188 -7.105469 C 6.574219 -6.941406 6.636719 -6.757812 6.699219 -6.59375 C 6.777344 -6.410156 6.859375 -6.25 6.921875 -6.0625 C 7.003906 -5.902344 7.105469 -5.738281 7.167969 -5.574219 C 7.25 -5.390625 7.269531 -5.207031 7.332031 -5.023438 C 7.410156 -4.859375 7.492188 -4.695312 7.574219 -4.511719 C 7.371094 -4.511719 7.207031 -4.492188 7.023438 -4.492188 C 6.820312 -4.492188 6.636719 -4.492188 6.453125 -4.492188 C 6.25 -4.492188 6.0625 -4.53125 5.878906 -4.53125 C 5.695312 -4.53125 5.511719 -4.511719 5.308594 -4.511719 C 5.125 -4.511719 4.941406 -4.511719 4.738281 -4.511719 C 4.554688 -4.511719 4.347656 -4.492188 4.144531 -4.492188 C 4.207031 -4.675781 4.308594 -4.859375 4.371094 -5.023438 Z M 4.371094 -5.023438 "/></g></g></g><g fill="#ffffff" fill-opacity="1"><g transform="translate(31.452621, 42.743254)"><g><path d="M 4.390625 -5.042969 C 4.59375 -5.085938 4.777344 -5.1875 4.941406 -5.207031 C 5.164062 -5.226562 5.371094 -5.207031 5.535156 -5.1875 C 5.757812 -5.1875 5.921875 -5.144531 6.085938 -5.042969 C 6.226562 -4.960938 6.371094 -4.839844 6.492188 -4.65625 C 6.574219 -4.511719 6.65625 -4.328125 6.757812 -4.125 C 6.820312 -3.960938 6.882812 -3.777344 6.984375 -3.59375 C 7.042969 -3.429688 7.167969 -3.265625 7.25 -3.082031 C 7.332031 -2.898438 7.371094 -2.714844 7.453125 -2.53125 C 7.535156 -2.347656 7.617188 -2.183594 7.699219 -2 C 7.78125 -1.816406 7.902344 -1.675781 7.984375 -1.492188 C 8.066406 -1.328125 8.167969 -1.144531 8.230469 -0.980469 C 8.332031 -0.777344 8.371094 -0.59375 8.453125 -0.449219 C 8.574219 -0.246094 8.738281 -0.164062 8.863281 -0.0820312 C 9.023438 0 9.167969 0 9.390625 0 C 9.554688 -0.0195312 9.738281 -0.0195312 9.964844 -0.0195312 C 10.167969 -0.0195312 10.351562 0 10.476562 -0.0195312 C 10.699219 -0.0625 10.800781 -0.144531 10.78125 -0.347656 C 10.761719 -0.46875 10.738281 -0.652344 10.660156 -0.859375 C 10.617188 -1 10.496094 -1.144531 10.414062 -1.328125 C 10.351562 -1.492188 10.289062 -1.652344 10.210938 -1.835938 C 10.148438 -2 10.027344 -2.164062 9.945312 -2.347656 C 9.882812 -2.511719 9.800781 -2.675781 9.738281 -2.859375 C 9.65625 -3.023438 9.578125 -3.183594 9.496094 -3.347656 C 9.414062 -3.53125 9.351562 -3.695312 9.269531 -3.859375 C 9.1875 -4.042969 9.128906 -4.207031 9.046875 -4.371094 C 8.964844 -4.554688 8.882812 -4.714844 8.820312 -4.878906 C 8.738281 -5.042969 8.699219 -5.246094 8.636719 -5.410156 C 8.574219 -5.535156 8.574219 -5.695312 8.699219 -5.800781 C 8.882812 -5.960938 9.046875 -6.125 9.1875 -6.25 C 9.371094 -6.410156 9.578125 -6.511719 9.738281 -6.675781 C 9.863281 -6.820312 9.945312 -6.984375 10.046875 -7.125 C 10.148438 -7.269531 10.25 -7.433594 10.332031 -7.597656 C 10.394531 -7.757812 10.433594 -7.941406 10.496094 -8.105469 C 10.535156 -8.289062 10.578125 -8.453125 10.597656 -8.636719 C 10.617188 -8.800781 10.660156 -8.984375 10.660156 -9.167969 C 10.660156 -9.351562 10.679688 -9.535156 10.660156 -9.71875 C 10.636719 -9.882812 10.554688 -10.066406 10.496094 -10.230469 C 10.453125 -10.414062 10.371094 -10.578125 10.3125 -10.738281 C 10.230469 -10.902344 10.167969 -11.066406 10.066406 -11.210938 C 9.964844 -11.351562 9.863281 -11.496094 9.738281 -11.636719 C 9.617188 -11.761719 9.472656 -11.882812 9.332031 -11.984375 C 9.1875 -12.109375 9.066406 -12.210938 8.902344 -12.3125 C 8.738281 -12.394531 8.574219 -12.457031 8.414062 -12.515625 C 8.25 -12.578125 8.085938 -12.679688 7.902344 -12.699219 C 7.699219 -12.742188 7.515625 -12.722656 7.308594 -12.761719 C 7.125 -12.78125 6.941406 -12.824219 6.738281 -12.84375 C 6.554688 -12.863281 6.351562 -12.863281 6.167969 -12.882812 C 5.960938 -12.882812 5.777344 -12.90625 5.574219 -12.925781 C 5.390625 -12.925781 5.1875 -12.90625 5.003906 -12.925781 C 4.820312 -12.925781 4.613281 -12.925781 4.429688 -12.925781 C 4.226562 -12.925781 4.042969 -12.945312 3.839844 -12.945312 C 3.65625 -12.925781 3.449219 -12.90625 3.265625 -12.90625 C 3.042969 -12.90625 2.839844 -12.925781 2.65625 -12.925781 C 2.410156 -12.925781 2.226562 -12.882812 2.0625 -12.824219 C 1.878906 -12.742188 1.777344 -12.617188 1.714844 -12.375 C 1.695312 -12.210938 1.675781 -12.007812 1.675781 -11.761719 C 1.652344 -11.578125 1.652344 -11.394531 1.652344 -11.210938 C 1.652344 -11.046875 1.652344 -10.863281 1.652344 -10.679688 C 1.652344 -10.496094 1.652344 -10.3125 1.652344 -10.128906 C 1.652344 -9.945312 1.652344 -9.761719 1.652344 -9.578125 C 1.652344 -9.390625 1.632812 -9.207031 1.613281 -9.023438 C 1.613281 -8.839844 1.570312 -8.65625 1.570312 -8.472656 C 1.570312 -8.289062 1.613281 -8.105469 1.613281 -7.921875 C 1.613281 -7.738281 1.59375 -7.554688 1.59375 -7.371094 C 1.59375 -7.1875 1.59375 -7.003906 1.59375 -6.820312 C 1.59375 -6.636719 1.59375 -6.453125 1.59375 -6.269531 C 1.59375 -6.085938 1.613281 -5.902344 1.613281 -5.71875 C 1.613281 -5.535156 1.570312 -5.371094 1.570312 -5.1875 C 1.570312 -5.003906 1.570312 -4.820312 1.570312 -4.636719 C 1.570312 -4.453125 1.59375 -4.265625 1.59375 -4.082031 C 1.59375 -3.898438 1.570312 -3.714844 1.570312 -3.554688 C 1.59375 -3.367188 1.59375 -3.183594 1.59375 -3 C 1.59375 -2.816406 1.59375 -2.632812 1.59375 -2.449219 C 1.59375 -2.265625 1.632812 -2.082031 1.632812 -1.898438 C 1.632812 -1.734375 1.59375 -1.550781 1.570312 -1.347656 C 1.550781 -1.144531 1.570312 -0.960938 1.570312 -0.777344 C 1.59375 -0.550781 1.570312 -0.347656 1.652344 -0.203125 C 1.714844 -0.0625 1.960938 -0.0390625 2.183594 0 C 2.410156 0.0390625 2.65625 0.0390625 2.777344 0.0195312 C 2.941406 -0.0195312 3.125 0 3.289062 -0.0195312 C 3.492188 -0.0625 3.675781 -0.101562 3.738281 -0.265625 C 3.796875 -0.429688 3.816406 -0.652344 3.816406 -0.878906 C 3.839844 -1.082031 3.839844 -1.308594 3.839844 -1.511719 C 3.816406 -1.757812 3.816406 -1.960938 3.816406 -2.144531 C 3.816406 -2.328125 3.816406 -2.53125 3.816406 -2.714844 C 3.816406 -2.898438 3.816406 -3.105469 3.816406 -3.289062 C 3.816406 -3.472656 3.777344 -3.675781 3.777344 -3.859375 C 3.777344 -4.042969 3.839844 -4.246094 3.839844 -4.429688 C 3.839844 -4.613281 3.777344 -4.820312 3.777344 -5.003906 C 4.003906 -5.042969 4.207031 -5.023438 4.390625 -5.042969 Z M 3.878906 -7.882812 C 3.878906 -8.085938 3.898438 -8.269531 3.898438 -8.453125 C 3.898438 -8.65625 3.898438 -8.839844 3.898438 -9.023438 C 3.898438 -9.207031 3.878906 -9.414062 3.878906 -9.597656 C 3.878906 -9.78125 3.898438 -9.984375 3.898438 -10.167969 C 3.898438 -10.351562 3.898438 -10.515625 3.898438 -10.71875 C 4.105469 -10.71875 4.265625 -10.738281 4.453125 -10.738281 C 4.636719 -10.738281 4.820312 -10.738281 5.003906 -10.738281 C 5.207031 -10.738281 5.390625 -10.761719 5.574219 -10.761719 C 5.757812 -10.761719 5.941406 -10.761719 6.125 -10.761719 C 6.308594 -10.738281 6.511719 -10.761719 6.699219 -10.761719 C 6.882812 -10.738281 7.042969 -10.699219 7.1875 -10.636719 C 7.371094 -10.597656 7.554688 -10.578125 7.699219 -10.496094 C 7.839844 -10.414062 7.964844 -10.269531 8.085938 -10.167969 C 8.207031 -10.046875 8.351562 -9.921875 8.414062 -9.78125 C 8.492188 -9.617188 8.535156 -9.433594 8.535156 -9.269531 C 8.554688 -9.066406 8.492188 -8.882812 8.433594 -8.679688 C 8.371094 -8.492188 8.230469 -8.351562 8.105469 -8.1875 C 7.984375 -8.042969 7.859375 -7.882812 7.699219 -7.757812 C 7.554688 -7.65625 7.371094 -7.554688 7.1875 -7.492188 C 7.003906 -7.410156 6.820312 -7.371094 6.617188 -7.351562 C 6.453125 -7.351562 6.269531 -7.308594 6.085938 -7.308594 C 5.902344 -7.308594 5.71875 -7.308594 5.535156 -7.308594 C 5.351562 -7.308594 5.164062 -7.269531 4.980469 -7.269531 C 4.796875 -7.269531 4.613281 -7.332031 4.429688 -7.332031 C 4.246094 -7.351562 4.0625 -7.289062 3.859375 -7.289062 C 3.859375 -7.492188 3.898438 -7.699219 3.878906 -7.882812 Z M 3.878906 -7.882812 "/></g></g></g><g fill="#ffffff" fill-opacity="1"><g transform="translate(44.867651, 42.743254)"><g><path d="M 3.839844 -7.003906 C 3.839844 -7.1875 3.839844 -7.371094 3.839844 -7.554688 C 3.839844 -7.738281 3.839844 -7.941406 3.839844 -8.125 C 3.839844 -8.308594 3.878906 -8.492188 3.878906 -8.679688 C 3.878906 -8.863281 3.921875 -9.066406 3.921875 -9.25 C 3.921875 -9.433594 3.878906 -9.617188 3.878906 -9.800781 C 3.878906 -9.984375 3.859375 -10.167969 3.859375 -10.351562 C 3.859375 -10.554688 3.878906 -10.738281 3.878906 -10.925781 C 3.878906 -11.109375 3.859375 -11.292969 3.859375 -11.476562 C 3.859375 -11.679688 3.921875 -11.863281 3.898438 -12.027344 C 3.878906 -12.25 3.816406 -12.433594 3.757812 -12.578125 C 3.675781 -12.761719 3.511719 -12.800781 3.308594 -12.84375 C 3.164062 -12.863281 2.980469 -12.90625 2.757812 -12.90625 C 2.550781 -12.90625 2.367188 -12.882812 2.226562 -12.863281 C 2.042969 -12.824219 1.878906 -12.800781 1.777344 -12.597656 C 1.714844 -12.476562 1.675781 -12.3125 1.652344 -12.066406 C 1.632812 -11.902344 1.632812 -11.71875 1.632812 -11.515625 C 1.632812 -11.332031 1.675781 -11.167969 1.675781 -10.984375 C 1.675781 -10.800781 1.675781 -10.617188 1.675781 -10.433594 C 1.652344 -10.25 1.652344 -10.066406 1.652344 -9.882812 C 1.652344 -9.699219 1.613281 -9.515625 1.613281 -9.332031 C 1.613281 -9.167969 1.632812 -8.984375 1.632812 -8.800781 C 1.632812 -8.617188 1.652344 -8.433594 1.652344 -8.25 C 1.652344 -8.066406 1.59375 -7.882812 1.59375 -7.699219 C 1.59375 -7.515625 1.652344 -7.332031 1.652344 -7.148438 C 1.652344 -6.960938 1.632812 -6.777344 1.632812 -6.59375 C 1.632812 -6.410156 1.59375 -6.25 1.59375 -6.0625 C 1.59375 -5.878906 1.632812 -5.695312 1.632812 -5.511719 C 1.632812 -5.328125 1.570312 -5.144531 1.570312 -4.960938 C 1.570312 -4.777344 1.570312 -4.613281 1.570312 -4.429688 C 1.570312 -4.246094 1.613281 -4.0625 1.613281 -3.878906 C 1.613281 -3.695312 1.570312 -3.511719 1.570312 -3.328125 C 1.570312 -3.164062 1.613281 -2.980469 1.613281 -2.796875 C 1.613281 -2.613281 1.59375 -2.429688 1.59375 -2.246094 C 1.59375 -2.082031 1.550781 -1.898438 1.550781 -1.714844 C 1.550781 -1.550781 1.550781 -1.367188 1.53125 -1.144531 C 1.511719 -0.980469 1.511719 -0.796875 1.511719 -0.570312 C 1.492188 -0.304688 1.613281 -0.121094 1.796875 -0.0390625 C 2 0.0820312 2.285156 0.0390625 2.410156 0.0390625 C 2.59375 0.0390625 2.796875 0.0195312 2.980469 0.0195312 C 3.183594 0 3.390625 -0.0195312 3.554688 -0.0625 C 3.757812 -0.144531 3.878906 -0.246094 3.859375 -0.449219 C 3.839844 -0.613281 3.859375 -0.777344 3.859375 -0.9375 C 3.859375 -1.101562 3.839844 -1.265625 3.839844 -1.410156 C 3.839844 -1.570312 3.898438 -1.734375 3.898438 -1.898438 C 3.898438 -2.082031 3.878906 -2.265625 3.878906 -2.449219 C 3.878906 -2.65625 3.898438 -2.839844 3.898438 -3.023438 C 3.898438 -3.226562 3.878906 -3.410156 3.878906 -3.59375 C 3.878906 -3.777344 3.878906 -3.980469 3.878906 -4.164062 C 3.878906 -4.347656 3.878906 -4.554688 3.878906 -4.738281 C 3.878906 -4.921875 3.878906 -5.125 3.878906 -5.308594 C 3.878906 -5.492188 3.878906 -5.675781 3.878906 -5.878906 C 3.878906 -6.0625 3.921875 -6.25 3.921875 -6.453125 C 3.921875 -6.617188 3.839844 -6.820312 3.839844 -7.003906 Z M 3.839844 -7.003906 "/></g></g></g><g fill="#ffffff" fill-opacity="1"><g transform="translate(51.932581, 42.743254)"><g><path d="M 3.941406 -7.515625 C 4.023438 -7.515625 4.164062 -7.308594 4.328125 -7.042969 C 4.410156 -6.902344 4.554688 -6.738281 4.65625 -6.554688 C 4.757812 -6.390625 4.839844 -6.207031 4.921875 -6.023438 C 5.023438 -5.839844 5.085938 -5.636719 5.164062 -5.492188 C 5.269531 -5.328125 5.390625 -5.1875 5.492188 -5.023438 C 5.574219 -4.859375 5.675781 -4.695312 5.777344 -4.53125 C 5.878906 -4.390625 5.941406 -4.207031 6.042969 -4.0625 C 6.144531 -3.898438 6.308594 -3.777344 6.390625 -3.613281 C 6.492188 -3.449219 6.617188 -3.308594 6.71875 -3.144531 C 6.820312 -3 6.902344 -2.839844 7.003906 -2.675781 C 7.125 -2.511719 7.226562 -2.367188 7.332031 -2.207031 C 7.433594 -2.042969 7.492188 -1.878906 7.597656 -1.714844 C 7.699219 -1.550781 7.820312 -1.410156 7.921875 -1.246094 C 8.023438 -1.082031 8.105469 -0.898438 8.207031 -0.734375 C 8.332031 -0.59375 8.472656 -0.449219 8.617188 -0.328125 C 8.757812 -0.222656 8.921875 -0.121094 9.105469 -0.0625 C 9.289062 0 9.472656 0 9.699219 0 C 9.921875 0 10.085938 0 10.210938 -0.0195312 C 10.433594 -0.0820312 10.496094 -0.203125 10.535156 -0.386719 C 10.554688 -0.53125 10.554688 -0.695312 10.578125 -0.917969 C 10.578125 -1.101562 10.554688 -1.285156 10.578125 -1.46875 C 10.578125 -1.652344 10.617188 -1.835938 10.636719 -2.019531 C 10.636719 -2.207031 10.597656 -2.390625 10.597656 -2.574219 C 10.597656 -2.757812 10.617188 -2.941406 10.617188 -3.125 C 10.617188 -3.308594 10.660156 -3.492188 10.660156 -3.675781 C 10.660156 -3.859375 10.617188 -4.042969 10.636719 -4.246094 C 10.636719 -4.429688 10.679688 -4.613281 10.679688 -4.796875 C 10.679688 -4.980469 10.699219 -5.164062 10.699219 -5.351562 C 10.699219 -5.535156 10.660156 -5.71875 10.660156 -5.902344 C 10.660156 -6.085938 10.71875 -6.269531 10.71875 -6.453125 C 10.71875 -6.65625 10.71875 -6.839844 10.71875 -7.023438 C 10.738281 -7.207031 10.699219 -7.390625 10.699219 -7.574219 C 10.699219 -7.757812 10.699219 -7.941406 10.699219 -8.125 C 10.699219 -8.308594 10.738281 -8.492188 10.738281 -8.679688 C 10.738281 -8.863281 10.761719 -9.046875 10.761719 -9.207031 C 10.761719 -9.414062 10.71875 -9.597656 10.71875 -9.761719 C 10.71875 -9.964844 10.78125 -10.148438 10.78125 -10.332031 C 10.78125 -10.515625 10.761719 -10.699219 10.761719 -10.882812 C 10.761719 -11.066406 10.761719 -11.25 10.761719 -11.433594 C 10.761719 -11.636719 10.800781 -11.800781 10.78125 -11.964844 C 10.761719 -12.167969 10.738281 -12.351562 10.679688 -12.496094 C 10.597656 -12.679688 10.476562 -12.800781 10.289062 -12.863281 C 10.148438 -12.925781 9.964844 -12.882812 9.761719 -12.882812 C 9.597656 -12.863281 9.414062 -12.863281 9.207031 -12.824219 C 9.066406 -12.800781 8.902344 -12.722656 8.71875 -12.660156 C 8.71875 -12.496094 8.679688 -12.351562 8.679688 -12.148438 C 8.65625 -11.984375 8.679688 -11.800781 8.679688 -11.617188 C 8.679688 -11.433594 8.636719 -11.25 8.636719 -11.066406 C 8.636719 -10.882812 8.679688 -10.699219 8.679688 -10.515625 C 8.679688 -10.351562 8.636719 -10.167969 8.636719 -9.984375 C 8.636719 -9.800781 8.65625 -9.617188 8.65625 -9.433594 C 8.65625 -9.25 8.597656 -9.066406 8.597656 -8.882812 C 8.597656 -8.71875 8.65625 -8.535156 8.65625 -8.351562 C 8.65625 -8.167969 8.617188 -7.984375 8.617188 -7.800781 C 8.617188 -7.617188 8.597656 -7.433594 8.597656 -7.269531 C 8.597656 -7.085938 8.617188 -6.902344 8.617188 -6.71875 C 8.617188 -6.535156 8.597656 -6.351562 8.597656 -6.1875 C 8.574219 -5.984375 8.554688 -5.800781 8.554688 -5.65625 C 8.535156 -5.308594 8.535156 -5.105469 8.515625 -5.125 C 8.332031 -5.144531 8.1875 -5.328125 8.042969 -5.535156 C 7.921875 -5.738281 7.820312 -5.984375 7.738281 -6.105469 C 7.636719 -6.25 7.492188 -6.390625 7.410156 -6.535156 C 7.308594 -6.699219 7.207031 -6.859375 7.105469 -7.023438 C 7.003906 -7.167969 6.960938 -7.351562 6.859375 -7.515625 C 6.757812 -7.675781 6.617188 -7.800781 6.511719 -7.964844 C 6.433594 -8.125 6.328125 -8.269531 6.226562 -8.433594 C 6.125 -8.597656 6.042969 -8.757812 5.941406 -8.921875 C 5.839844 -9.085938 5.757812 -9.25 5.675781 -9.414062 C 5.574219 -9.554688 5.472656 -9.71875 5.371094 -9.882812 C 5.269531 -10.046875 5.207031 -10.210938 5.105469 -10.371094 C 5.023438 -10.535156 4.878906 -10.660156 4.777344 -10.820312 C 4.675781 -10.964844 4.613281 -11.148438 4.511719 -11.292969 C 4.410156 -11.453125 4.289062 -11.597656 4.1875 -11.761719 C 4.105469 -11.925781 4.003906 -12.085938 3.921875 -12.230469 C 3.796875 -12.457031 3.695312 -12.578125 3.574219 -12.699219 C 3.429688 -12.824219 3.289062 -12.863281 3.0625 -12.882812 C 2.917969 -12.90625 2.714844 -12.90625 2.492188 -12.882812 C 2.164062 -12.90625 1.980469 -12.90625 1.859375 -12.90625 C 1.613281 -12.882812 1.59375 -12.800781 1.59375 -12.433594 C 1.59375 -12.25 1.632812 -12.066406 1.632812 -11.882812 C 1.632812 -11.699219 1.632812 -11.515625 1.632812 -11.332031 C 1.632812 -11.148438 1.570312 -10.964844 1.570312 -10.78125 C 1.570312 -10.597656 1.59375 -10.414062 1.59375 -10.230469 C 1.59375 -10.046875 1.570312 -9.863281 1.59375 -9.679688 C 1.59375 -9.496094 1.613281 -9.3125 1.613281 -9.128906 C 1.613281 -8.941406 1.632812 -8.757812 1.632812 -8.574219 C 1.632812 -8.390625 1.613281 -8.207031 1.613281 -8.023438 C 1.613281 -7.839844 1.570312 -7.65625 1.570312 -7.492188 C 1.59375 -7.308594 1.632812 -7.125 1.632812 -6.941406 C 1.632812 -6.757812 1.652344 -6.574219 1.652344 -6.390625 C 1.652344 -6.207031 1.632812 -6.023438 1.632812 -5.839844 C 1.632812 -5.65625 1.632812 -5.472656 1.632812 -5.289062 C 1.632812 -5.125 1.652344 -4.921875 1.652344 -4.738281 C 1.652344 -4.554688 1.632812 -4.371094 1.632812 -4.164062 C 1.632812 -3.980469 1.632812 -3.796875 1.632812 -3.59375 C 1.632812 -3.410156 1.59375 -3.226562 1.59375 -3.023438 C 1.59375 -2.839844 1.632812 -2.65625 1.632812 -2.46875 C 1.632812 -2.265625 1.613281 -2.082031 1.59375 -1.898438 C 1.59375 -1.714844 1.613281 -1.511719 1.613281 -1.328125 C 1.613281 -1.144531 1.59375 -0.9375 1.59375 -0.777344 C 1.59375 -0.53125 1.632812 -0.367188 1.714844 -0.246094 C 1.796875 -0.101562 1.941406 0 2.144531 0.0390625 C 2.285156 0.0820312 2.46875 0.101562 2.675781 0.101562 C 2.898438 0.101562 3.082031 0.0820312 3.246094 0.0390625 C 3.449219 0 3.613281 -0.0820312 3.714844 -0.246094 C 3.796875 -0.367188 3.816406 -0.550781 3.839844 -0.777344 C 3.839844 -0.917969 3.839844 -1.101562 3.816406 -1.285156 C 3.816406 -1.46875 3.816406 -1.632812 3.816406 -1.816406 C 3.796875 -2 3.796875 -2.183594 3.796875 -2.328125 C 3.796875 -2.53125 3.796875 -2.734375 3.796875 -2.917969 C 3.777344 -3.125 3.777344 -3.308594 3.777344 -3.492188 C 3.777344 -3.695312 3.777344 -3.898438 3.777344 -4.082031 C 3.777344 -4.289062 3.796875 -4.472656 3.796875 -4.675781 C 3.796875 -4.859375 3.839844 -5.0625 3.839844 -5.246094 C 3.839844 -5.453125 3.796875 -5.636719 3.796875 -5.839844 C 3.796875 -6.023438 3.796875 -6.226562 3.796875 -6.433594 C 3.796875 -6.617188 3.796875 -6.800781 3.777344 -7.023438 C 3.796875 -7.25 3.714844 -7.554688 3.941406 -7.515625 Z M 3.941406 -7.515625 "/></g></g></g><g fill="#ffffff" fill-opacity="1"><g transform="translate(65.796812, 42.743254)"><g><path d="M 2.042969 -5.246094 C 1.835938 -5.226562 1.652344 -5.1875 1.511719 -5.164062 C 1.285156 -5.125 1.101562 -5.125 0.980469 -5.0625 C 0.835938 -4.960938 0.753906 -4.796875 0.714844 -4.59375 C 0.695312 -4.453125 0.714844 -4.289062 0.714844 -4.0625 C 0.714844 -3.898438 0.734375 -3.738281 0.753906 -3.59375 C 0.753906 -3.429688 0.734375 -3.265625 0.753906 -3.105469 C 0.777344 -2.941406 0.777344 -2.796875 0.796875 -2.632812 C 0.835938 -2.449219 0.917969 -2.265625 0.960938 -2.101562 C 1 -1.917969 1.0625 -1.734375 1.121094 -1.59375 C 1.203125 -1.410156 1.285156 -1.246094 1.386719 -1.101562 C 1.511719 -0.960938 1.652344 -0.859375 1.796875 -0.734375 C 1.941406 -0.613281 2.082031 -0.511719 2.246094 -0.429688 C 2.410156 -0.328125 2.53125 -0.203125 2.714844 -0.144531 C 2.878906 -0.0625 3.042969 0 3.226562 0.0625 C 3.410156 0.101562 3.59375 0.121094 3.777344 0.144531 C 3.960938 0.164062 4.144531 0.164062 4.328125 0.183594 C 4.511719 0.183594 4.695312 0.246094 4.878906 0.246094 C 5.0625 0.246094 5.246094 0.203125 5.429688 0.183594 C 5.613281 0.164062 5.800781 0.101562 5.984375 0.0625 C 6.167969 0.0195312 6.328125 -0.0390625 6.511719 -0.101562 C 6.675781 -0.183594 6.859375 -0.222656 7.023438 -0.304688 C 7.1875 -0.410156 7.351562 -0.488281 7.492188 -0.59375 C 7.65625 -0.695312 7.839844 -0.777344 7.964844 -0.898438 C 8.105469 -1.019531 8.230469 -1.183594 8.351562 -1.328125 C 8.472656 -1.449219 8.597656 -1.59375 8.699219 -1.757812 C 8.800781 -1.898438 8.863281 -2.082031 8.921875 -2.265625 C 9.003906 -2.429688 9.085938 -2.59375 9.148438 -2.777344 C 9.1875 -2.960938 9.167969 -3.144531 9.1875 -3.328125 C 9.207031 -3.511719 9.1875 -3.695312 9.207031 -3.898438 C 9.207031 -4.082031 9.25 -4.265625 9.25 -4.453125 C 9.269531 -4.636719 9.25 -4.820312 9.25 -5.003906 C 9.25 -5.207031 9.230469 -5.390625 9.230469 -5.574219 C 9.230469 -5.757812 9.289062 -5.941406 9.289062 -6.144531 C 9.289062 -6.328125 9.269531 -6.511719 9.269531 -6.699219 C 9.269531 -6.882812 9.25 -7.066406 9.25 -7.269531 C 9.25 -7.453125 9.269531 -7.636719 9.269531 -7.820312 C 9.269531 -8.003906 9.230469 -8.1875 9.230469 -8.390625 C 9.230469 -8.574219 9.230469 -8.757812 9.207031 -8.941406 C 9.207031 -9.128906 9.207031 -9.3125 9.207031 -9.496094 C 9.1875 -9.679688 9.167969 -9.863281 9.167969 -10.066406 C 9.167969 -10.25 9.1875 -10.433594 9.1875 -10.617188 C 9.1875 -10.800781 9.167969 -10.984375 9.1875 -11.167969 C 9.1875 -11.375 9.230469 -11.558594 9.230469 -11.71875 C 9.207031 -11.945312 9.128906 -12.109375 9.085938 -12.273438 C 9.023438 -12.476562 8.984375 -12.640625 8.863281 -12.761719 C 8.738281 -12.863281 8.554688 -12.882812 8.332031 -12.882812 C 8.105469 -12.882812 7.902344 -12.925781 7.699219 -12.882812 C 7.492188 -12.84375 7.308594 -12.742188 7.125 -12.640625 C 6.960938 -12.535156 6.820312 -12.433594 6.65625 -12.25 C 6.675781 -12.066406 6.675781 -11.882812 6.699219 -11.679688 C 6.699219 -11.496094 6.675781 -11.292969 6.675781 -11.109375 C 6.699219 -10.902344 6.675781 -10.71875 6.699219 -10.535156 C 6.699219 -10.332031 6.777344 -10.148438 6.777344 -9.964844 C 6.800781 -9.761719 6.800781 -9.578125 6.800781 -9.390625 C 6.820312 -9.1875 6.820312 -9.003906 6.820312 -8.800781 C 6.839844 -8.617188 6.839844 -8.433594 6.839844 -8.230469 C 6.839844 -8.042969 6.859375 -7.859375 6.882812 -7.65625 C 6.882812 -7.472656 6.882812 -7.289062 6.902344 -7.085938 C 6.902344 -6.902344 6.902344 -6.71875 6.902344 -6.511719 C 6.921875 -6.328125 6.921875 -6.125 6.941406 -5.941406 C 6.941406 -5.757812 6.902344 -5.554688 6.902344 -5.371094 C 6.902344 -5.1875 6.941406 -5.003906 6.941406 -4.796875 C 6.941406 -4.613281 6.902344 -4.429688 6.902344 -4.246094 C 6.882812 -4.0625 6.882812 -3.859375 6.859375 -3.675781 C 6.820312 -3.492188 6.777344 -3.308594 6.738281 -3.125 C 6.675781 -2.941406 6.617188 -2.757812 6.535156 -2.613281 C 6.433594 -2.429688 6.289062 -2.308594 6.144531 -2.183594 C 6.003906 -2.0625 5.859375 -1.980469 5.675781 -1.917969 C 5.472656 -1.878906 5.289062 -1.859375 5.085938 -1.835938 C 4.902344 -1.835938 4.695312 -1.796875 4.492188 -1.816406 C 4.308594 -1.835938 4.105469 -1.898438 3.941406 -1.960938 C 3.738281 -2.019531 3.574219 -2.125 3.410156 -2.226562 C 3.246094 -2.347656 3.144531 -2.511719 3.0625 -2.675781 C 2.980469 -2.839844 2.878906 -3.023438 2.839844 -3.207031 C 2.816406 -3.390625 2.796875 -3.59375 2.796875 -3.777344 C 2.796875 -3.980469 2.796875 -4.1875 2.796875 -4.371094 C 2.777344 -4.574219 2.777344 -4.796875 2.734375 -4.941406 C 2.511719 -5.0625 2.265625 -5.144531 2.042969 -5.246094 Z M 2.042969 -5.246094 "/></g></g></g><g fill="#ffffff" fill-opacity="1"><g transform="translate(78.088832, 42.743254)"><g><path d="M 4.105469 -2.308594 C 4.289062 -2.285156 4.472656 -2.246094 4.65625 -2.246094 C 4.859375 -2.246094 5.042969 -2.246094 5.226562 -2.246094 C 5.410156 -2.246094 5.59375 -2.265625 5.777344 -2.265625 C 5.960938 -2.265625 6.144531 -2.265625 6.328125 -2.265625 C 6.511719 -2.285156 6.71875 -2.328125 6.921875 -2.328125 C 7.148438 -2.308594 7.351562 -2.285156 7.535156 -2.285156 C 7.882812 -2.265625 7.882812 -2.390625 8.148438 -2.265625 C 8.371094 -2.164062 8.230469 -2.0625 8.390625 -1.816406 C 8.472656 -1.695312 8.597656 -1.570312 8.679688 -1.410156 C 8.757812 -1.265625 8.820312 -1.121094 8.882812 -0.960938 C 8.964844 -0.816406 9.046875 -0.652344 9.066406 -0.511719 C 9.128906 -0.285156 9.230469 -0.183594 9.332031 -0.101562 C 9.453125 -0.0195312 9.597656 -0.0195312 9.800781 -0.0195312 C 9.945312 -0.0195312 10.128906 0 10.3125 0 C 10.515625 0 10.679688 -0.0390625 10.820312 -0.0625 C 11.046875 -0.101562 11.1875 -0.164062 11.25 -0.285156 C 11.3125 -0.410156 11.292969 -0.570312 11.210938 -0.796875 C 11.148438 -0.9375 11.085938 -1.121094 11.003906 -1.308594 C 10.945312 -1.46875 10.925781 -1.675781 10.84375 -1.835938 C 10.78125 -2.019531 10.660156 -2.164062 10.597656 -2.347656 C 10.515625 -2.53125 10.453125 -2.695312 10.371094 -2.878906 C 10.3125 -3.042969 10.289062 -3.246094 10.230469 -3.410156 C 10.148438 -3.59375 10.046875 -3.757812 9.984375 -3.921875 C 9.921875 -4.105469 9.820312 -4.265625 9.761719 -4.429688 C 9.699219 -4.59375 9.65625 -4.777344 9.597656 -4.941406 C 9.535156 -5.105469 9.433594 -5.269531 9.371094 -5.429688 C 9.3125 -5.613281 9.230469 -5.777344 9.167969 -5.941406 C 9.105469 -6.105469 9.066406 -6.289062 9.003906 -6.453125 C 8.941406 -6.636719 8.882812 -6.800781 8.820312 -6.960938 C 8.738281 -7.125 8.679688 -7.289062 8.597656 -7.472656 C 8.535156 -7.636719 8.515625 -7.820312 8.453125 -7.984375 C 8.390625 -8.167969 8.269531 -8.308594 8.207031 -8.472656 C 8.148438 -8.636719 8.105469 -8.820312 8.042969 -8.984375 C 7.964844 -9.167969 7.941406 -9.332031 7.882812 -9.515625 C 7.820312 -9.679688 7.71875 -9.839844 7.636719 -10.003906 C 7.574219 -10.167969 7.535156 -10.351562 7.472656 -10.515625 C 7.390625 -10.679688 7.332031 -10.84375 7.269531 -11.027344 C 7.207031 -11.1875 7.105469 -11.351562 7.042969 -11.515625 C 6.984375 -11.679688 6.902344 -11.84375 6.839844 -12.007812 C 6.738281 -12.273438 6.71875 -12.476562 6.636719 -12.597656 C 6.472656 -12.84375 6.308594 -12.882812 6.105469 -12.90625 C 5.941406 -12.925781 5.757812 -12.925781 5.492188 -12.90625 C 5.308594 -12.90625 5.207031 -12.882812 5.042969 -12.761719 C 4.960938 -12.679688 4.820312 -12.597656 4.695312 -12.414062 C 4.636719 -12.292969 4.613281 -12.128906 4.53125 -11.945312 C 4.472656 -11.800781 4.390625 -11.660156 4.328125 -11.496094 C 4.265625 -11.332031 4.226562 -11.148438 4.164062 -10.964844 C 4.105469 -10.800781 4.042969 -10.636719 3.980469 -10.453125 C 3.921875 -10.289062 3.859375 -10.105469 3.796875 -9.945312 C 3.738281 -9.761719 3.65625 -9.597656 3.59375 -9.414062 C 3.53125 -9.25 3.53125 -9.046875 3.472656 -8.882812 C 3.410156 -8.699219 3.308594 -8.554688 3.246094 -8.371094 C 3.183594 -8.207031 3.164062 -8.023438 3.105469 -7.839844 C 3.042969 -7.65625 2.941406 -7.515625 2.878906 -7.332031 C 2.839844 -7.167969 2.777344 -6.984375 2.714844 -6.800781 C 2.65625 -6.636719 2.613281 -6.453125 2.550781 -6.289062 C 2.492188 -6.105469 2.429688 -5.941406 2.367188 -5.757812 C 2.308594 -5.59375 2.265625 -5.410156 2.207031 -5.226562 C 2.144531 -5.0625 2.019531 -4.902344 1.960938 -4.738281 C 1.898438 -4.574219 1.917969 -4.371094 1.859375 -4.1875 C 1.796875 -4.023438 1.734375 -3.859375 1.675781 -3.675781 C 1.613281 -3.511719 1.492188 -3.347656 1.429688 -3.183594 C 1.367188 -3 1.367188 -2.816406 1.308594 -2.65625 C 1.246094 -2.46875 1.164062 -2.308594 1.101562 -2.144531 C 1.0625 -2.042969 0.980469 -1.816406 0.878906 -1.570312 C 0.816406 -1.386719 0.753906 -1.183594 0.671875 -1 C 0.59375 -0.734375 0.550781 -0.511719 0.550781 -0.410156 C 0.511719 -0.0625 0.632812 0.0195312 0.898438 0.0195312 C 1.082031 0.0390625 1.308594 0 1.570312 0.0195312 C 1.757812 0.0390625 2 0.0390625 2.226562 0 C 2.449219 -0.0390625 2.613281 -0.121094 2.734375 -0.328125 C 2.816406 -0.488281 2.917969 -0.632812 2.980469 -0.796875 C 3.042969 -0.960938 3.105469 -1.121094 3.164062 -1.285156 C 3.226562 -1.449219 3.265625 -1.613281 3.347656 -1.777344 C 3.410156 -1.941406 3.449219 -2.125 3.53125 -2.285156 C 3.714844 -2.285156 3.921875 -2.308594 4.105469 -2.308594 Z M 4.371094 -5.023438 C 4.429688 -5.207031 4.492188 -5.371094 4.554688 -5.535156 C 4.613281 -5.71875 4.675781 -5.878906 4.738281 -6.0625 C 4.796875 -6.226562 4.859375 -6.390625 4.941406 -6.554688 C 5.003906 -6.738281 5.042969 -6.902344 5.125 -7.066406 C 5.1875 -7.25 5.308594 -7.390625 5.371094 -7.554688 C 5.429688 -7.71875 5.429688 -7.921875 5.492188 -8.105469 C 5.554688 -8.269531 5.65625 -8.453125 5.71875 -8.636719 C 5.820312 -8.453125 5.878906 -8.25 5.960938 -8.105469 C 6.0625 -7.921875 6.1875 -7.78125 6.269531 -7.617188 C 6.371094 -7.453125 6.433594 -7.269531 6.492188 -7.105469 C 6.574219 -6.941406 6.636719 -6.757812 6.699219 -6.59375 C 6.777344 -6.410156 6.859375 -6.25 6.921875 -6.0625 C 7.003906 -5.902344 7.105469 -5.738281 7.167969 -5.574219 C 7.25 -5.390625 7.269531 -5.207031 7.332031 -5.023438 C 7.410156 -4.859375 7.492188 -4.695312 7.574219 -4.511719 C 7.371094 -4.511719 7.207031 -4.492188 7.023438 -4.492188 C 6.820312 -4.492188 6.636719 -4.492188 6.453125 -4.492188 C 6.25 -4.492188 6.0625 -4.53125 5.878906 -4.53125 C 5.695312 -4.53125 5.511719 -4.511719 5.308594 -4.511719 C 5.125 -4.511719 4.941406 -4.511719 4.738281 -4.511719 C 4.554688 -4.511719 4.347656 -4.492188 4.144531 -4.492188 C 4.207031 -4.675781 4.308594 -4.859375 4.371094 -5.023438 Z M 4.371094 -5.023438 "/></g></g></g><g fill="#ffffff" fill-opacity="1"><g transform="translate(91.483446, 42.743254)"><g><path d="M 4.980469 -9.3125 C 4.902344 -9.472656 4.839844 -9.65625 4.757812 -9.800781 C 4.636719 -10.003906 4.492188 -10.128906 4.410156 -10.230469 C 4.289062 -10.351562 4.164062 -10.496094 4.0625 -10.636719 C 3.941406 -10.78125 3.878906 -10.945312 3.796875 -11.109375 C 3.695312 -11.25 3.59375 -11.394531 3.53125 -11.558594 C 3.449219 -11.761719 3.367188 -11.925781 3.308594 -12.066406 C 3.207031 -12.25 3.144531 -12.414062 3.0625 -12.515625 C 2.917969 -12.699219 2.796875 -12.800781 2.632812 -12.84375 C 2.492188 -12.90625 2.308594 -12.882812 2.101562 -12.882812 C 1.941406 -12.882812 1.777344 -12.945312 1.570312 -12.945312 C 1.367188 -12.945312 1.203125 -12.90625 1.042969 -12.90625 C 0.816406 -12.90625 0.613281 -12.882812 0.511719 -12.824219 C 0.386719 -12.722656 0.347656 -12.558594 0.410156 -12.292969 C 0.449219 -12.191406 0.59375 -12.007812 0.734375 -11.78125 C 0.816406 -11.617188 0.9375 -11.433594 1.0625 -11.269531 C 1.164062 -11.085938 1.285156 -10.902344 1.386719 -10.761719 C 1.53125 -10.535156 1.695312 -10.371094 1.757812 -10.269531 C 1.859375 -10.148438 1.917969 -9.984375 2.019531 -9.820312 C 2.125 -9.699219 2.226562 -9.554688 2.328125 -9.390625 C 2.410156 -9.25 2.492188 -9.085938 2.59375 -8.941406 C 2.675781 -8.800781 2.777344 -8.65625 2.878906 -8.515625 C 2.980469 -8.351562 3.0625 -8.207031 3.164062 -8.066406 C 3.265625 -7.921875 3.367188 -7.78125 3.472656 -7.636719 C 3.574219 -7.492188 3.632812 -7.332031 3.738281 -7.1875 C 3.816406 -7.085938 3.960938 -6.960938 4.042969 -6.800781 C 4.105469 -6.675781 4.164062 -6.511719 4.226562 -6.371094 C 4.308594 -6.1875 4.371094 -6.003906 4.371094 -5.902344 C 4.371094 -5.636719 4.328125 -5.472656 4.328125 -5.328125 C 4.328125 -5.125 4.371094 -4.980469 4.347656 -4.777344 C 4.347656 -4.613281 4.347656 -4.453125 4.347656 -4.1875 C 4.328125 -4.003906 4.289062 -3.816406 4.289062 -3.613281 C 4.265625 -3.410156 4.289062 -3.207031 4.265625 -3.023438 C 4.265625 -2.816406 4.246094 -2.613281 4.226562 -2.410156 C 4.226562 -2.226562 4.1875 -2.019531 4.164062 -1.816406 C 4.164062 -1.632812 4.1875 -1.429688 4.1875 -1.226562 C 4.1875 -1.019531 4.207031 -0.835938 4.226562 -0.652344 C 4.226562 -0.429688 4.265625 -0.285156 4.371094 -0.183594 C 4.472656 -0.0820312 4.636719 -0.0195312 4.820312 0 C 4.960938 0.0195312 5.144531 0.0195312 5.328125 0.0195312 C 5.511719 0.0195312 5.71875 -0.0195312 5.921875 -0.0625 C 6.125 -0.0820312 6.328125 -0.101562 6.472656 -0.203125 C 6.65625 -0.304688 6.777344 -0.46875 6.777344 -0.695312 C 6.757812 -0.878906 6.738281 -1.042969 6.71875 -1.203125 C 6.71875 -1.347656 6.71875 -1.511719 6.71875 -1.714844 C 6.71875 -1.859375 6.675781 -2.019531 6.675781 -2.226562 C 6.675781 -2.390625 6.71875 -2.550781 6.71875 -2.734375 C 6.738281 -2.898438 6.71875 -3.0625 6.71875 -3.265625 C 6.738281 -3.449219 6.757812 -3.65625 6.757812 -3.878906 C 6.738281 -4.082031 6.71875 -4.289062 6.699219 -4.492188 C 6.675781 -4.714844 6.65625 -4.921875 6.636719 -5.105469 C 6.617188 -5.351562 6.617188 -5.574219 6.617188 -5.71875 C 6.617188 -5.902344 6.65625 -6.085938 6.738281 -6.289062 C 6.820312 -6.472656 6.882812 -6.65625 6.984375 -6.859375 C 7.085938 -7.023438 7.1875 -7.1875 7.308594 -7.371094 C 7.433594 -7.535156 7.554688 -7.675781 7.699219 -7.839844 C 7.800781 -8.003906 7.964844 -8.148438 8.085938 -8.308594 C 8.167969 -8.390625 8.269531 -8.574219 8.433594 -8.78125 C 8.535156 -8.921875 8.636719 -9.085938 8.757812 -9.25 C 8.882812 -9.390625 8.941406 -9.578125 9.066406 -9.738281 C 9.167969 -9.902344 9.3125 -10.046875 9.433594 -10.210938 C 9.535156 -10.371094 9.65625 -10.515625 9.761719 -10.679688 C 9.882812 -10.84375 9.984375 -11.003906 10.085938 -11.148438 C 10.210938 -11.332031 10.269531 -11.515625 10.351562 -11.660156 C 10.515625 -11.882812 10.617188 -12.046875 10.679688 -12.148438 C 10.863281 -12.414062 10.945312 -12.578125 10.882812 -12.679688 C 10.820312 -12.800781 10.636719 -12.882812 10.332031 -12.90625 C 10.167969 -12.925781 9.964844 -12.882812 9.71875 -12.882812 C 9.496094 -12.882812 9.3125 -12.964844 9.167969 -12.964844 C 8.921875 -12.964844 8.78125 -12.90625 8.636719 -12.78125 C 8.535156 -12.699219 8.433594 -12.558594 8.269531 -12.351562 C 8.1875 -12.230469 8.023438 -12.109375 7.902344 -11.925781 C 7.800781 -11.800781 7.71875 -11.636719 7.617188 -11.476562 C 7.535156 -11.332031 7.472656 -11.167969 7.371094 -11.027344 C 7.289062 -10.882812 7.207031 -10.71875 7.125 -10.554688 C 7.042969 -10.414062 6.921875 -10.289062 6.839844 -10.128906 C 6.757812 -9.984375 6.65625 -9.839844 6.574219 -9.679688 C 6.472656 -9.535156 6.433594 -9.351562 6.328125 -9.207031 C 6.226562 -9.066406 6.125 -8.941406 6.023438 -8.800781 C 5.921875 -8.65625 5.777344 -8.617188 5.636719 -8.636719 C 5.472656 -8.636719 5.328125 -8.679688 5.246094 -8.820312 C 5.144531 -8.984375 5.0625 -9.148438 4.980469 -9.3125 Z M 4.980469 -9.3125 "/></g></g></g><g fill="#00a19b" fill-opacity="1"><g transform="translate(119.845402, 42.743254)"><g><path d="M 3.554688 -9.738281 C 3.613281 -9.921875 3.695312 -10.085938 3.796875 -10.230469 C 3.898438 -10.371094 4.042969 -10.476562 4.1875 -10.578125 C 4.328125 -10.679688 4.453125 -10.820312 4.636719 -10.882812 C 4.796875 -10.945312 4.980469 -10.964844 5.164062 -10.984375 C 5.371094 -11.027344 5.574219 -11.046875 5.757812 -11.003906 C 5.960938 -10.964844 6.144531 -10.902344 6.328125 -10.820312 C 6.511719 -10.738281 6.699219 -10.660156 6.882812 -10.554688 C 7.042969 -10.453125 7.226562 -10.332031 7.390625 -10.230469 C 7.574219 -10.128906 7.738281 -10.003906 7.902344 -9.921875 C 8.105469 -9.800781 8.25 -9.761719 8.371094 -9.738281 C 8.554688 -9.71875 8.699219 -9.761719 8.863281 -9.902344 C 8.964844 -10.003906 9.046875 -10.167969 9.1875 -10.332031 C 9.289062 -10.453125 9.414062 -10.660156 9.515625 -10.882812 C 9.597656 -11.128906 9.679688 -11.394531 9.535156 -11.515625 C 9.25 -11.742188 9.128906 -11.824219 8.984375 -11.925781 C 8.863281 -12.007812 8.71875 -12.109375 8.414062 -12.292969 C 8.230469 -12.414062 8.023438 -12.476562 7.859375 -12.558594 C 7.675781 -12.640625 7.492188 -12.722656 7.308594 -12.78125 C 7.125 -12.84375 6.941406 -12.925781 6.738281 -12.964844 C 6.554688 -13.007812 6.351562 -13.066406 6.144531 -13.089844 C 5.960938 -13.109375 5.757812 -13.066406 5.554688 -13.066406 C 5.351562 -13.066406 5.164062 -13.046875 5.003906 -13.027344 C 4.796875 -13.007812 4.613281 -13.007812 4.429688 -12.964844 C 4.246094 -12.925781 4.082031 -12.863281 3.898438 -12.800781 C 3.738281 -12.742188 3.574219 -12.660156 3.410156 -12.578125 C 3.226562 -12.496094 3.0625 -12.414062 2.917969 -12.3125 C 2.757812 -12.210938 2.613281 -12.085938 2.492188 -11.964844 C 2.347656 -11.824219 2.183594 -11.71875 2.082031 -11.578125 C 1.960938 -11.433594 1.898438 -11.25 1.796875 -11.085938 C 1.714844 -10.925781 1.613281 -10.78125 1.53125 -10.597656 C 1.46875 -10.433594 1.429688 -10.25 1.386719 -10.066406 C 1.347656 -9.882812 1.308594 -9.699219 1.285156 -9.515625 C 1.265625 -9.332031 1.265625 -9.148438 1.265625 -8.941406 C 1.265625 -8.757812 1.265625 -8.554688 1.308594 -8.371094 C 1.328125 -8.1875 1.386719 -7.984375 1.449219 -7.820312 C 1.511719 -7.636719 1.632812 -7.472656 1.714844 -7.308594 C 1.816406 -7.148438 1.941406 -6.984375 2.0625 -6.839844 C 2.183594 -6.699219 2.347656 -6.59375 2.511719 -6.472656 C 2.65625 -6.351562 2.816406 -6.25 2.980469 -6.167969 C 3.144531 -6.085938 3.328125 -6.003906 3.511719 -5.941406 C 3.675781 -5.878906 3.859375 -5.820312 4.023438 -5.757812 C 4.207031 -5.695312 4.371094 -5.636719 4.554688 -5.574219 C 4.714844 -5.511719 4.902344 -5.453125 5.0625 -5.390625 C 5.246094 -5.328125 5.410156 -5.289062 5.59375 -5.207031 C 5.757812 -5.144531 5.921875 -5.0625 6.085938 -5.003906 C 6.269531 -4.941406 6.410156 -4.820312 6.59375 -4.757812 C 6.757812 -4.695312 6.941406 -4.65625 7.105469 -4.574219 C 7.269531 -4.472656 7.410156 -4.371094 7.535156 -4.246094 C 7.65625 -4.105469 7.757812 -3.960938 7.800781 -3.777344 C 7.820312 -3.613281 7.839844 -3.429688 7.800781 -3.226562 C 7.757812 -3.0625 7.675781 -2.878906 7.554688 -2.695312 C 7.453125 -2.550781 7.289062 -2.449219 7.125 -2.328125 C 6.984375 -2.207031 6.800781 -2.125 6.636719 -2.042969 C 6.453125 -1.960938 6.289062 -1.878906 6.105469 -1.835938 C 5.902344 -1.796875 5.71875 -1.816406 5.535156 -1.835938 C 5.328125 -1.859375 5.144531 -1.898438 4.941406 -1.960938 C 4.757812 -2.019531 4.574219 -2.101562 4.390625 -2.207031 C 4.207031 -2.285156 4.023438 -2.367188 3.859375 -2.46875 C 3.675781 -2.574219 3.53125 -2.714844 3.367188 -2.839844 C 3.207031 -2.980469 3.023438 -3.082031 2.917969 -3.226562 C 2.757812 -3.410156 2.65625 -3.53125 2.511719 -3.574219 C 2.347656 -3.613281 2.226562 -3.511719 2.042969 -3.367188 C 1.917969 -3.289062 1.796875 -3.164062 1.652344 -3.023438 C 1.492188 -2.859375 1.328125 -2.714844 1.226562 -2.59375 C 1.082031 -2.410156 0.960938 -2.226562 1.019531 -2.042969 C 1.082031 -1.898438 1.203125 -1.734375 1.410156 -1.570312 C 1.492188 -1.46875 1.613281 -1.328125 1.816406 -1.164062 C 1.941406 -1.042969 2.082031 -0.917969 2.246094 -0.796875 C 2.390625 -0.695312 2.574219 -0.613281 2.734375 -0.511719 C 2.898438 -0.410156 3.0625 -0.328125 3.246094 -0.246094 C 3.429688 -0.164062 3.613281 -0.144531 3.796875 -0.101562 C 3.980469 -0.0390625 4.144531 0.0820312 4.347656 0.101562 C 4.511719 0.144531 4.714844 0.121094 4.921875 0.144531 C 5.105469 0.164062 5.289062 0.222656 5.492188 0.222656 C 5.675781 0.222656 5.859375 0.203125 6.023438 0.203125 C 6.226562 0.183594 6.390625 0.144531 6.574219 0.121094 C 6.757812 0.101562 6.921875 0.0390625 7.105469 0 C 7.289062 -0.0390625 7.453125 -0.0820312 7.617188 -0.144531 C 7.800781 -0.203125 7.964844 -0.265625 8.125 -0.347656 C 8.289062 -0.429688 8.453125 -0.511719 8.597656 -0.613281 C 8.757812 -0.714844 8.882812 -0.859375 9.003906 -0.980469 C 9.148438 -1.082031 9.3125 -1.183594 9.414062 -1.328125 C 9.535156 -1.46875 9.617188 -1.632812 9.699219 -1.796875 C 9.78125 -1.960938 9.882812 -2.101562 9.945312 -2.285156 C 10.003906 -2.449219 10.046875 -2.632812 10.085938 -2.816406 C 10.105469 -2.980469 10.105469 -3.164062 10.105469 -3.347656 C 10.105469 -3.53125 10.105469 -3.714844 10.085938 -3.898438 C 10.066406 -4.0625 10.027344 -4.246094 9.984375 -4.410156 C 9.945312 -4.59375 9.863281 -4.757812 9.800781 -4.921875 C 9.738281 -5.085938 9.699219 -5.246094 9.597656 -5.410156 C 9.515625 -5.554688 9.390625 -5.695312 9.289062 -5.839844 C 9.167969 -5.960938 9.023438 -6.085938 8.902344 -6.207031 C 8.757812 -6.308594 8.65625 -6.453125 8.492188 -6.554688 C 8.351562 -6.65625 8.207031 -6.738281 8.042969 -6.820312 C 7.882812 -6.902344 7.71875 -6.960938 7.535156 -7.023438 C 7.371094 -7.066406 7.207031 -7.105469 7.042969 -7.167969 C 6.902344 -7.207031 6.738281 -7.289062 6.574219 -7.332031 C 6.433594 -7.390625 6.269531 -7.433594 6.105469 -7.492188 C 5.941406 -7.554688 5.777344 -7.574219 5.613281 -7.636719 C 5.453125 -7.699219 5.269531 -7.738281 5.085938 -7.820312 C 4.921875 -7.882812 4.757812 -7.984375 4.59375 -8.066406 C 4.410156 -8.125 4.246094 -8.207031 4.082031 -8.308594 C 3.921875 -8.433594 3.796875 -8.554688 3.695312 -8.699219 C 3.574219 -8.839844 3.472656 -9.023438 3.449219 -9.207031 C 3.449219 -9.390625 3.511719 -9.578125 3.554688 -9.738281 Z M 3.554688 -9.738281 "/></g></g></g><g fill="#00a19b" fill-opacity="1"><g transform="translate(130.993811, 42.743254)"><g><path d="M 3.839844 -7.003906 C 3.839844 -7.1875 3.839844 -7.371094 3.839844 -7.554688 C 3.839844 -7.738281 3.839844 -7.941406 3.839844 -8.125 C 3.839844 -8.308594 3.878906 -8.492188 3.878906 -8.679688 C 3.878906 -8.863281 3.921875 -9.066406 3.921875 -9.25 C 3.921875 -9.433594 3.878906 -9.617188 3.878906 -9.800781 C 3.878906 -9.984375 3.859375 -10.167969 3.859375 -10.351562 C 3.859375 -10.554688 3.878906 -10.738281 3.878906 -10.925781 C 3.878906 -11.109375 3.859375 -11.292969 3.859375 -11.476562 C 3.859375 -11.679688 3.921875 -11.863281 3.898438 -12.027344 C 3.878906 -12.25 3.816406 -12.433594 3.757812 -12.578125 C 3.675781 -12.761719 3.511719 -12.800781 3.308594 -12.84375 C 3.164062 -12.863281 2.980469 -12.90625 2.757812 -12.90625 C 2.550781 -12.90625 2.367188 -12.882812 2.226562 -12.863281 C 2.042969 -12.824219 1.878906 -12.800781 1.777344 -12.597656 C 1.714844 -12.476562 1.675781 -12.3125 1.652344 -12.066406 C 1.632812 -11.902344 1.632812 -11.71875 1.632812 -11.515625 C 1.632812 -11.332031 1.675781 -11.167969 1.675781 -10.984375 C 1.675781 -10.800781 1.675781 -10.617188 1.675781 -10.433594 C 1.652344 -10.25 1.652344 -10.066406 1.652344 -9.882812 C 1.652344 -9.699219 1.613281 -9.515625 1.613281 -9.332031 C 1.613281 -9.167969 1.632812 -8.984375 1.632812 -8.800781 C 1.632812 -8.617188 1.652344 -8.433594 1.652344 -8.25 C 1.652344 -8.066406 1.59375 -7.882812 1.59375 -7.699219 C 1.59375 -7.515625 1.652344 -7.332031 1.652344 -7.148438 C 1.652344 -6.960938 1.632812 -6.777344 1.632812 -6.59375 C 1.632812 -6.410156 1.59375 -6.25 1.59375 -6.0625 C 1.59375 -5.878906 1.632812 -5.695312 1.632812 -5.511719 C 1.632812 -5.328125 1.570312 -5.144531 1.570312 -4.960938 C 1.570312 -4.777344 1.570312 -4.613281 1.570312 -4.429688 C 1.570312 -4.246094 1.613281 -4.0625 1.613281 -3.878906 C 1.613281 -3.695312 1.570312 -3.511719 1.570312 -3.328125 C 1.570312 -3.164062 1.613281 -2.980469 1.613281 -2.796875 C 1.613281 -2.613281 1.59375 -2.429688 1.59375 -2.246094 C 1.59375 -2.082031 1.550781 -1.898438 1.550781 -1.714844 C 1.550781 -1.550781 1.550781 -1.367188 1.53125 -1.144531 C 1.511719 -0.980469 1.511719 -0.796875 1.511719 -0.570312 C 1.492188 -0.304688 1.613281 -0.121094 1.796875 -0.0390625 C 2 0.0820312 2.285156 0.0390625 2.410156 0.0390625 C 2.59375 0.0390625 2.796875 0.0195312 2.980469 0.0195312 C 3.183594 0 3.390625 -0.0195312 3.554688 -0.0625 C 3.757812 -0.144531 3.878906 -0.246094 3.859375 -0.449219 C 3.839844 -0.613281 3.859375 -0.777344 3.859375 -0.9375 C 3.859375 -1.101562 3.839844 -1.265625 3.839844 -1.410156 C 3.839844 -1.570312 3.898438 -1.734375 3.898438 -1.898438 C 3.898438 -2.082031 3.878906 -2.265625 3.878906 -2.449219 C 3.878906 -2.65625 3.898438 -2.839844 3.898438 -3.023438 C 3.898438 -3.226562 3.878906 -3.410156 3.878906 -3.59375 C 3.878906 -3.777344 3.878906 -3.980469 3.878906 -4.164062 C 3.878906 -4.347656 3.878906 -4.554688 3.878906 -4.738281 C 3.878906 -4.921875 3.878906 -5.125 3.878906 -5.308594 C 3.878906 -5.492188 3.878906 -5.675781 3.878906 -5.878906 C 3.878906 -6.0625 3.921875 -6.25 3.921875 -6.453125 C 3.921875 -6.617188 3.839844 -6.820312 3.839844 -7.003906 Z M 3.839844 -7.003906 "/></g></g></g><g fill="#00a19b" fill-opacity="1"><g transform="translate(136.506763, 42.743254)"><g><path d="M 3.941406 -7.515625 C 4.023438 -7.515625 4.164062 -7.308594 4.328125 -7.042969 C 4.410156 -6.902344 4.554688 -6.738281 4.65625 -6.554688 C 4.757812 -6.390625 4.839844 -6.207031 4.921875 -6.023438 C 5.023438 -5.839844 5.085938 -5.636719 5.164062 -5.492188 C 5.269531 -5.328125 5.390625 -5.1875 5.492188 -5.023438 C 5.574219 -4.859375 5.675781 -4.695312 5.777344 -4.53125 C 5.878906 -4.390625 5.941406 -4.207031 6.042969 -4.0625 C 6.144531 -3.898438 6.308594 -3.777344 6.390625 -3.613281 C 6.492188 -3.449219 6.617188 -3.308594 6.71875 -3.144531 C 6.820312 -3 6.902344 -2.839844 7.003906 -2.675781 C 7.125 -2.511719 7.226562 -2.367188 7.332031 -2.207031 C 7.433594 -2.042969 7.492188 -1.878906 7.597656 -1.714844 C 7.699219 -1.550781 7.820312 -1.410156 7.921875 -1.246094 C 8.023438 -1.082031 8.105469 -0.898438 8.207031 -0.734375 C 8.332031 -0.59375 8.472656 -0.449219 8.617188 -0.328125 C 8.757812 -0.222656 8.921875 -0.121094 9.105469 -0.0625 C 9.289062 0 9.472656 0 9.699219 0 C 9.921875 0 10.085938 0 10.210938 -0.0195312 C 10.433594 -0.0820312 10.496094 -0.203125 10.535156 -0.386719 C 10.554688 -0.53125 10.554688 -0.695312 10.578125 -0.917969 C 10.578125 -1.101562 10.554688 -1.285156 10.578125 -1.46875 C 10.578125 -1.652344 10.617188 -1.835938 10.636719 -2.019531 C 10.636719 -2.207031 10.597656 -2.390625 10.597656 -2.574219 C 10.597656 -2.757812 10.617188 -2.941406 10.617188 -3.125 C 10.617188 -3.308594 10.660156 -3.492188 10.660156 -3.675781 C 10.660156 -3.859375 10.617188 -4.042969 10.636719 -4.246094 C 10.636719 -4.429688 10.679688 -4.613281 10.679688 -4.796875 C 10.679688 -4.980469 10.699219 -5.164062 10.699219 -5.351562 C 10.699219 -5.535156 10.660156 -5.71875 10.660156 -5.902344 C 10.660156 -6.085938 10.71875 -6.269531 10.71875 -6.453125 C 10.71875 -6.65625 10.71875 -6.839844 10.71875 -7.023438 C 10.738281 -7.207031 10.699219 -7.390625 10.699219 -7.574219 C 10.699219 -7.757812 10.699219 -7.941406 10.699219 -8.125 C 10.699219 -8.308594 10.738281 -8.492188 10.738281 -8.679688 C 10.738281 -8.863281 10.761719 -9.046875 10.761719 -9.207031 C 10.761719 -9.414062 10.71875 -9.597656 10.71875 -9.761719 C 10.71875 -9.964844 10.78125 -10.148438 10.78125 -10.332031 C 10.78125 -10.515625 10.761719 -10.699219 10.761719 -10.882812 C 10.761719 -11.066406 10.761719 -11.25 10.761719 -11.433594 C 10.761719 -11.636719 10.800781 -11.800781 10.78125 -11.964844 C 10.761719 -12.167969 10.738281 -12.351562 10.679688 -12.496094 C 10.597656 -12.679688 10.476562 -12.800781 10.289062 -12.863281 C 10.148438 -12.925781 9.964844 -12.882812 9.761719 -12.882812 C 9.597656 -12.863281 9.414062 -12.863281 9.207031 -12.824219 C 9.066406 -12.800781 8.902344 -12.722656 8.71875 -12.660156 C 8.71875 -12.496094 8.679688 -12.351562 8.679688 -12.148438 C 8.65625 -11.984375 8.679688 -11.800781 8.679688 -11.617188 C 8.679688 -11.433594 8.636719 -11.25 8.636719 -11.066406 C 8.636719 -10.882812 8.679688 -10.699219 8.679688 -10.515625 C 8.679688 -10.351562 8.636719 -10.167969 8.636719 -9.984375 C 8.636719 -9.800781 8.65625 -9.617188 8.65625 -9.433594 C 8.65625 -9.25 8.597656 -9.066406 8.597656 -8.882812 C 8.597656 -8.71875 8.65625 -8.535156 8.65625 -8.351562 C 8.65625 -8.167969 8.617188 -7.984375 8.617188 -7.800781 C 8.617188 -7.617188 8.597656 -7.433594 8.597656 -7.269531 C 8.597656 -7.085938 8.617188 -6.902344 8.617188 -6.71875 C 8.617188 -6.535156 8.597656 -6.351562 8.597656 -6.1875 C 8.574219 -5.984375 8.554688 -5.800781 8.554688 -5.65625 C 8.535156 -5.308594 8.535156 -5.105469 8.515625 -5.125 C 8.332031 -5.144531 8.1875 -5.328125 8.042969 -5.535156 C 7.921875 -5.738281 7.820312 -5.984375 7.738281 -6.105469 C 7.636719 -6.25 7.492188 -6.390625 7.410156 -6.535156 C 7.308594 -6.699219 7.207031 -6.859375 7.105469 -7.023438 C 7.003906 -7.167969 6.960938 -7.351562 6.859375 -7.515625 C 6.757812 -7.675781 6.617188 -7.800781 6.511719 -7.964844 C 6.433594 -8.125 6.328125 -8.269531 6.226562 -8.433594 C 6.125 -8.597656 6.042969 -8.757812 5.941406 -8.921875 C 5.839844 -9.085938 5.757812 -9.25 5.675781 -9.414062 C 5.574219 -9.554688 5.472656 -9.71875 5.371094 -9.882812 C 5.269531 -10.046875 5.207031 -10.210938 5.105469 -10.371094 C 5.023438 -10.535156 4.878906 -10.660156 4.777344 -10.820312 C 4.675781 -10.964844 4.613281 -11.148438 4.511719 -11.292969 C 4.410156 -11.453125 4.289062 -11.597656 4.1875 -11.761719 C 4.105469 -11.925781 4.003906 -12.085938 3.921875 -12.230469 C 3.796875 -12.457031 3.695312 -12.578125 3.574219 -12.699219 C 3.429688 -12.824219 3.289062 -12.863281 3.0625 -12.882812 C 2.917969 -12.90625 2.714844 -12.90625 2.492188 -12.882812 C 2.164062 -12.90625 1.980469 -12.90625 1.859375 -12.90625 C 1.613281 -12.882812 1.59375 -12.800781 1.59375 -12.433594 C 1.59375 -12.25 1.632812 -12.066406 1.632812 -11.882812 C 1.632812 -11.699219 1.632812 -11.515625 1.632812 -11.332031 C 1.632812 -11.148438 1.570312 -10.964844 1.570312 -10.78125 C 1.570312 -10.597656 1.59375 -10.414062 1.59375 -10.230469 C 1.59375 -10.046875 1.570312 -9.863281 1.59375 -9.679688 C 1.59375 -9.496094 1.613281 -9.3125 1.613281 -9.128906 C 1.613281 -8.941406 1.632812 -8.757812 1.632812 -8.574219 C 1.632812 -8.390625 1.613281 -8.207031 1.613281 -8.023438 C 1.613281 -7.839844 1.570312 -7.65625 1.570312 -7.492188 C 1.59375 -7.308594 1.632812 -7.125 1.632812 -6.941406 C 1.632812 -6.757812 1.652344 -6.574219 1.652344 -6.390625 C 1.652344 -6.207031 1.632812 -6.023438 1.632812 -5.839844 C 1.632812 -5.65625 1.632812 -5.472656 1.632812 -5.289062 C 1.632812 -5.125 1.652344 -4.921875 1.652344 -4.738281 C 1.652344 -4.554688 1.632812 -4.371094 1.632812 -4.164062 C 1.632812 -3.980469 1.632812 -3.796875 1.632812 -3.59375 C 1.632812 -3.410156 1.59375 -3.226562 1.59375 -3.023438 C 1.59375 -2.839844 1.632812 -2.65625 1.632812 -2.46875 C 1.632812 -2.265625 1.613281 -2.082031 1.59375 -1.898438 C 1.59375 -1.714844 1.613281 -1.511719 1.613281 -1.328125 C 1.613281 -1.144531 1.59375 -0.9375 1.59375 -0.777344 C 1.59375 -0.53125 1.632812 -0.367188 1.714844 -0.246094 C 1.796875 -0.101562 1.941406 0 2.144531 0.0390625 C 2.285156 0.0820312 2.46875 0.101562 2.675781 0.101562 C 2.898438 0.101562 3.082031 0.0820312 3.246094 0.0390625 C 3.449219 0 3.613281 -0.0820312 3.714844 -0.246094 C 3.796875 -0.367188 3.816406 -0.550781 3.839844 -0.777344 C 3.839844 -0.917969 3.839844 -1.101562 3.816406 -1.285156 C 3.816406 -1.46875 3.816406 -1.632812 3.816406 -1.816406 C 3.796875 -2 3.796875 -2.183594 3.796875 -2.328125 C 3.796875 -2.53125 3.796875 -2.734375 3.796875 -2.917969 C 3.777344 -3.125 3.777344 -3.308594 3.777344 -3.492188 C 3.777344 -3.695312 3.777344 -3.898438 3.777344 -4.082031 C 3.777344 -4.289062 3.796875 -4.472656 3.796875 -4.675781 C 3.796875 -4.859375 3.839844 -5.0625 3.839844 -5.246094 C 3.839844 -5.453125 3.796875 -5.636719 3.796875 -5.839844 C 3.796875 -6.023438 3.796875 -6.226562 3.796875 -6.433594 C 3.796875 -6.617188 3.796875 -6.800781 3.777344 -7.023438 C 3.796875 -7.25 3.714844 -7.554688 3.941406 -7.515625 Z M 3.941406 -7.515625 "/></g></g></g><g fill="#00a19b" fill-opacity="1"><g transform="translate(148.819015, 42.743254)"><g><path d="M 9.3125 -4.472656 C 9.269531 -4.265625 9.230469 -4.082031 9.167969 -3.898438 C 9.105469 -3.714844 9.003906 -3.554688 8.921875 -3.390625 C 8.839844 -3.207031 8.738281 -3.042969 8.636719 -2.898438 C 8.492188 -2.757812 8.390625 -2.574219 8.25 -2.46875 C 8.085938 -2.347656 7.921875 -2.246094 7.738281 -2.183594 C 7.574219 -2.101562 7.371094 -2.0625 7.1875 -2.019531 C 7.003906 -1.980469 6.800781 -1.941406 6.617188 -1.941406 C 6.410156 -1.941406 6.226562 -1.980469 6.042969 -2 C 5.859375 -2.042969 5.675781 -2.082031 5.492188 -2.164062 C 5.308594 -2.226562 5.144531 -2.328125 4.980469 -2.429688 C 4.839844 -2.550781 4.714844 -2.695312 4.59375 -2.839844 C 4.472656 -2.980469 4.308594 -3.105469 4.207031 -3.265625 C 4.125 -3.429688 4.042969 -3.59375 3.960938 -3.757812 C 3.878906 -3.941406 3.859375 -4.125 3.796875 -4.289062 C 3.714844 -4.472656 3.632812 -4.613281 3.574219 -4.796875 C 3.53125 -4.980469 3.449219 -5.144531 3.410156 -5.328125 C 3.367188 -5.511719 3.367188 -5.695312 3.347656 -5.878906 C 3.328125 -6.0625 3.265625 -6.25 3.265625 -6.433594 C 3.265625 -6.617188 3.246094 -6.800781 3.265625 -6.984375 C 3.265625 -7.167969 3.328125 -7.351562 3.347656 -7.535156 C 3.390625 -7.699219 3.410156 -7.882812 3.472656 -8.066406 C 3.511719 -8.25 3.554688 -8.433594 3.613281 -8.597656 C 3.675781 -8.78125 3.777344 -8.921875 3.859375 -9.105469 C 3.941406 -9.269531 3.960938 -9.453125 4.0625 -9.617188 C 4.164062 -9.761719 4.289062 -9.902344 4.410156 -10.027344 C 4.53125 -10.167969 4.695312 -10.269531 4.839844 -10.371094 C 4.980469 -10.496094 5.105469 -10.636719 5.269531 -10.699219 C 5.429688 -10.78125 5.613281 -10.84375 5.800781 -10.882812 C 5.960938 -10.925781 6.144531 -10.945312 6.328125 -10.964844 C 6.511719 -10.964844 6.699219 -10.984375 6.882812 -10.945312 C 7.066406 -10.925781 7.25 -10.902344 7.410156 -10.84375 C 7.597656 -10.78125 7.738281 -10.660156 7.902344 -10.578125 C 8.066406 -10.496094 8.25 -10.453125 8.414062 -10.351562 C 8.574219 -10.25 8.699219 -10.105469 8.839844 -9.984375 C 9.003906 -9.863281 9.167969 -9.78125 9.332031 -9.699219 C 9.515625 -9.578125 9.65625 -9.433594 9.820312 -9.414062 C 10.003906 -9.371094 10.167969 -9.453125 10.351562 -9.554688 C 10.476562 -9.636719 10.636719 -9.738281 10.78125 -9.921875 C 10.902344 -10.085938 10.984375 -10.25 11.027344 -10.394531 C 11.109375 -10.578125 11.128906 -10.738281 11.085938 -10.902344 C 11.046875 -11.066406 10.945312 -11.210938 10.800781 -11.351562 C 10.679688 -11.496094 10.554688 -11.617188 10.433594 -11.742188 C 10.289062 -11.863281 10.105469 -11.925781 9.964844 -12.027344 C 9.820312 -12.128906 9.699219 -12.273438 9.554688 -12.351562 C 9.390625 -12.457031 9.230469 -12.496094 9.066406 -12.578125 C 8.902344 -12.660156 8.757812 -12.761719 8.597656 -12.824219 C 8.414062 -12.882812 8.25 -12.925781 8.066406 -12.964844 C 7.902344 -13.007812 7.71875 -13.027344 7.554688 -13.046875 C 7.371094 -13.066406 7.1875 -13.089844 7.023438 -13.109375 C 6.839844 -13.109375 6.65625 -13.089844 6.492188 -13.089844 C 6.308594 -13.089844 6.125 -13.128906 5.941406 -13.109375 C 5.777344 -13.089844 5.59375 -13.007812 5.429688 -12.964844 C 5.246094 -12.925781 5.0625 -12.90625 4.878906 -12.84375 C 4.714844 -12.800781 4.511719 -12.800781 4.347656 -12.742188 C 4.164062 -12.679688 4.023438 -12.535156 3.878906 -12.457031 C 3.714844 -12.375 3.554688 -12.292969 3.390625 -12.191406 C 3.246094 -12.085938 3.082031 -11.984375 2.960938 -11.863281 C 2.816406 -11.742188 2.714844 -11.597656 2.59375 -11.453125 C 2.46875 -11.3125 2.390625 -11.148438 2.285156 -10.984375 C 2.183594 -10.84375 2.0625 -10.699219 1.960938 -10.535156 C 1.878906 -10.371094 1.816406 -10.210938 1.734375 -10.027344 C 1.675781 -9.863281 1.675781 -9.679688 1.613281 -9.496094 C 1.570312 -9.332031 1.53125 -9.148438 1.492188 -8.984375 C 1.449219 -8.800781 1.367188 -8.636719 1.328125 -8.453125 C 1.285156 -8.269531 1.265625 -8.105469 1.246094 -7.921875 C 1.203125 -7.738281 1.203125 -7.554688 1.183594 -7.390625 C 1.164062 -7.207031 1.164062 -7.023438 1.164062 -6.839844 C 1.144531 -6.65625 1.121094 -6.472656 1.121094 -6.308594 C 1.121094 -6.125 1.082031 -5.941406 1.101562 -5.757812 C 1.101562 -5.574219 1.164062 -5.390625 1.183594 -5.226562 C 1.203125 -5.042969 1.246094 -4.859375 1.285156 -4.695312 C 1.308594 -4.511719 1.347656 -4.328125 1.386719 -4.164062 C 1.429688 -3.980469 1.492188 -3.816406 1.550781 -3.632812 C 1.59375 -3.472656 1.59375 -3.265625 1.652344 -3.105469 C 1.714844 -2.941406 1.835938 -2.796875 1.917969 -2.613281 C 2 -2.449219 2.042969 -2.265625 2.144531 -2.125 C 2.226562 -1.960938 2.347656 -1.816406 2.449219 -1.675781 C 2.550781 -1.511719 2.65625 -1.367188 2.796875 -1.226562 C 2.917969 -1.101562 3.0625 -0.980469 3.207031 -0.878906 C 3.347656 -0.753906 3.472656 -0.632812 3.632812 -0.53125 C 3.777344 -0.429688 3.921875 -0.304688 4.082031 -0.222656 C 4.246094 -0.144531 4.429688 -0.0820312 4.613281 -0.0195312 C 4.777344 0.0390625 4.941406 0.101562 5.125 0.144531 C 5.308594 0.183594 5.492188 0.222656 5.675781 0.246094 C 5.839844 0.265625 6.023438 0.246094 6.207031 0.265625 C 6.390625 0.265625 6.574219 0.285156 6.738281 0.265625 C 6.921875 0.265625 7.105469 0.183594 7.269531 0.164062 C 7.453125 0.121094 7.636719 0.144531 7.820312 0.101562 C 7.984375 0.0390625 8.167969 0 8.332031 -0.0625 C 8.492188 -0.121094 8.636719 -0.246094 8.800781 -0.328125 C 8.964844 -0.410156 9.148438 -0.449219 9.289062 -0.550781 C 9.453125 -0.632812 9.597656 -0.734375 9.738281 -0.835938 C 9.882812 -0.960938 9.984375 -1.101562 10.105469 -1.226562 C 10.25 -1.347656 10.394531 -1.449219 10.515625 -1.59375 C 10.636719 -1.734375 10.761719 -1.859375 10.863281 -2 C 10.964844 -2.144531 11.003906 -2.328125 11.109375 -2.492188 C 11.1875 -2.65625 11.332031 -2.777344 11.414062 -2.941406 C 11.476562 -3.105469 11.476562 -3.289062 11.535156 -3.472656 C 11.597656 -3.632812 11.660156 -3.796875 11.699219 -3.980469 C 11.742188 -4.144531 11.761719 -4.328125 11.78125 -4.511719 C 11.824219 -4.675781 11.863281 -4.859375 11.882812 -5.042969 C 11.882812 -5.207031 11.882812 -5.390625 11.882812 -5.574219 C 11.882812 -5.757812 11.902344 -5.941406 11.863281 -6.105469 C 11.824219 -6.289062 11.78125 -6.453125 11.699219 -6.617188 C 11.597656 -6.757812 11.453125 -6.859375 11.3125 -6.960938 C 11.167969 -7.042969 11.003906 -7.125 10.820312 -7.148438 C 10.636719 -7.148438 10.453125 -7.125 10.269531 -7.148438 C 10.105469 -7.148438 9.921875 -7.148438 9.738281 -7.148438 C 9.578125 -7.148438 9.390625 -7.167969 9.230469 -7.167969 C 9.046875 -7.167969 8.863281 -7.167969 8.699219 -7.167969 C 8.515625 -7.1875 8.332031 -7.226562 8.167969 -7.226562 C 7.984375 -7.226562 7.800781 -7.25 7.617188 -7.25 C 7.453125 -7.25 7.269531 -7.207031 7.085938 -7.207031 C 6.921875 -7.207031 6.738281 -7.167969 6.554688 -7.167969 C 6.390625 -7.148438 6.207031 -7.1875 6.023438 -7.167969 C 5.878906 -7.167969 5.800781 -6.984375 5.738281 -6.777344 C 5.695312 -6.59375 5.59375 -6.410156 5.59375 -6.25 C 5.574219 -6.085938 5.574219 -5.878906 5.59375 -5.71875 C 5.636719 -5.535156 5.757812 -5.410156 5.902344 -5.289062 C 6.042969 -5.1875 6.207031 -5.125 6.410156 -5.105469 C 6.59375 -5.085938 6.800781 -5.105469 6.984375 -5.105469 C 7.207031 -5.085938 7.410156 -5.023438 7.597656 -5.023438 C 7.800781 -5.003906 8.003906 -5.003906 8.207031 -5.003906 C 8.390625 -4.980469 8.597656 -5.003906 8.820312 -5.003906 C 9.003906 -5.003906 9.207031 -5.042969 9.453125 -5.042969 C 9.414062 -4.839844 9.351562 -4.636719 9.3125 -4.472656 Z M 9.3125 -4.472656 "/></g></g></g><g fill="#00a19b" fill-opacity="1"><g transform="translate(161.723397, 42.743254)"><g><path d="M 3.859375 -8.023438 C 3.859375 -8.207031 3.878906 -8.371094 3.859375 -8.515625 C 3.859375 -8.679688 3.839844 -8.839844 3.839844 -9.003906 C 3.816406 -9.167969 3.816406 -9.332031 3.777344 -9.472656 C 3.777344 -9.636719 3.695312 -9.820312 3.695312 -10.027344 C 3.675781 -10.1875 3.714844 -10.371094 3.714844 -10.554688 C 3.714844 -10.738281 3.675781 -10.925781 3.65625 -11.109375 C 3.65625 -11.292969 3.675781 -11.496094 3.675781 -11.660156 C 3.675781 -11.863281 3.65625 -12.046875 3.632812 -12.210938 C 3.632812 -12.414062 3.574219 -12.535156 3.511719 -12.640625 C 3.429688 -12.761719 3.308594 -12.824219 3.125 -12.84375 C 2.980469 -12.863281 2.839844 -12.863281 2.65625 -12.863281 C 2.46875 -12.882812 2.308594 -12.945312 2.164062 -12.945312 C 1.980469 -12.925781 1.859375 -12.824219 1.757812 -12.722656 C 1.675781 -12.640625 1.613281 -12.515625 1.59375 -12.292969 C 1.570312 -12.191406 1.511719 -11.964844 1.53125 -11.761719 C 1.53125 -11.535156 1.59375 -11.332031 1.59375 -11.210938 C 1.59375 -11.027344 1.570312 -10.84375 1.570312 -10.660156 C 1.570312 -10.476562 1.550781 -10.289062 1.550781 -10.105469 C 1.550781 -9.921875 1.570312 -9.738281 1.570312 -9.554688 C 1.570312 -9.371094 1.613281 -9.1875 1.613281 -9.023438 C 1.613281 -8.839844 1.550781 -8.65625 1.550781 -8.472656 C 1.550781 -8.289062 1.570312 -8.105469 1.570312 -7.921875 C 1.570312 -7.738281 1.613281 -7.554688 1.613281 -7.371094 C 1.613281 -7.1875 1.613281 -7.003906 1.613281 -6.839844 C 1.632812 -6.65625 1.570312 -6.472656 1.59375 -6.289062 C 1.59375 -6.105469 1.59375 -5.921875 1.59375 -5.738281 C 1.59375 -5.554688 1.613281 -5.371094 1.613281 -5.1875 C 1.613281 -5.003906 1.632812 -4.820312 1.632812 -4.636719 C 1.632812 -4.472656 1.613281 -4.289062 1.613281 -4.105469 C 1.613281 -3.921875 1.570312 -3.738281 1.570312 -3.554688 C 1.59375 -3.367188 1.613281 -3.183594 1.613281 -3 C 1.632812 -2.816406 1.652344 -2.632812 1.652344 -2.449219 C 1.652344 -2.285156 1.652344 -2.101562 1.652344 -1.917969 C 1.652344 -1.714844 1.675781 -1.53125 1.695312 -1.386719 C 1.695312 -1.183594 1.652344 -1 1.675781 -0.835938 C 1.714844 -0.632812 1.816406 -0.488281 1.878906 -0.367188 C 1.980469 -0.183594 2.082031 -0.0390625 2.246094 0 C 2.390625 0.0390625 2.574219 0.0195312 2.777344 0.0195312 C 3.023438 0.0195312 3.226562 -0.0195312 3.367188 -0.101562 C 3.554688 -0.203125 3.632812 -0.410156 3.695312 -0.613281 C 3.738281 -0.796875 3.757812 -1 3.757812 -1.203125 C 3.757812 -1.410156 3.777344 -1.632812 3.796875 -1.816406 C 3.816406 -2 3.796875 -2.207031 3.796875 -2.390625 C 3.816406 -2.574219 3.839844 -2.757812 3.839844 -2.960938 C 3.839844 -3.144531 3.839844 -3.328125 3.839844 -3.53125 C 3.839844 -3.714844 3.816406 -3.898438 3.816406 -4.105469 C 3.816406 -4.289062 3.859375 -4.472656 3.859375 -4.675781 C 3.859375 -4.859375 3.816406 -5.085938 3.839844 -5.269531 C 4.023438 -5.269531 4.226562 -5.226562 4.410156 -5.226562 C 4.59375 -5.226562 4.796875 -5.207031 4.980469 -5.207031 C 5.164062 -5.207031 5.351562 -5.269531 5.554688 -5.269531 C 5.738281 -5.246094 5.921875 -5.207031 6.125 -5.207031 C 6.308594 -5.207031 6.492188 -5.1875 6.699219 -5.1875 C 6.882812 -5.1875 7.066406 -5.246094 7.269531 -5.246094 C 7.453125 -5.226562 7.636719 -5.207031 7.820312 -5.207031 C 8.023438 -5.207031 8.1875 -5.1875 8.371094 -5.1875 C 8.390625 -5.003906 8.433594 -4.839844 8.453125 -4.675781 C 8.453125 -4.492188 8.390625 -4.308594 8.390625 -4.144531 C 8.414062 -3.960938 8.472656 -3.796875 8.472656 -3.613281 C 8.492188 -3.429688 8.472656 -3.265625 8.492188 -3.082031 C 8.492188 -2.917969 8.515625 -2.734375 8.515625 -2.550781 C 8.535156 -2.390625 8.492188 -2.207031 8.515625 -2.019531 C 8.515625 -1.835938 8.535156 -1.652344 8.554688 -1.46875 C 8.554688 -1.285156 8.515625 -1.101562 8.535156 -0.917969 C 8.535156 -0.714844 8.554688 -0.550781 8.597656 -0.429688 C 8.679688 -0.246094 8.820312 -0.164062 8.984375 -0.101562 C 9.105469 -0.0390625 9.269531 0.0195312 9.453125 0.0195312 C 9.636719 0.0390625 9.800781 0 9.945312 -0.0390625 C 10.128906 -0.101562 10.230469 -0.183594 10.3125 -0.328125 C 10.394531 -0.449219 10.414062 -0.59375 10.414062 -0.796875 C 10.453125 -1.042969 10.453125 -1.265625 10.453125 -1.511719 C 10.453125 -1.695312 10.496094 -1.898438 10.496094 -2.082031 C 10.496094 -2.265625 10.515625 -2.46875 10.515625 -2.65625 C 10.515625 -2.839844 10.496094 -3.023438 10.496094 -3.226562 C 10.496094 -3.410156 10.453125 -3.59375 10.453125 -3.777344 C 10.453125 -3.980469 10.496094 -4.164062 10.496094 -4.347656 C 10.496094 -4.554688 10.476562 -4.738281 10.476562 -4.921875 C 10.476562 -5.105469 10.535156 -5.308594 10.535156 -5.492188 C 10.535156 -5.675781 10.535156 -5.859375 10.535156 -6.0625 C 10.535156 -6.25 10.476562 -6.433594 10.476562 -6.617188 C 10.476562 -6.820312 10.496094 -7.003906 10.496094 -7.1875 C 10.496094 -7.390625 10.476562 -7.574219 10.476562 -7.757812 C 10.476562 -7.941406 10.535156 -8.148438 10.535156 -8.332031 C 10.535156 -8.515625 10.554688 -8.699219 10.554688 -8.902344 C 10.554688 -9.085938 10.535156 -9.269531 10.535156 -9.453125 C 10.535156 -9.65625 10.515625 -9.839844 10.515625 -10.027344 C 10.515625 -10.230469 10.515625 -10.414062 10.515625 -10.597656 C 10.515625 -10.78125 10.515625 -10.984375 10.515625 -11.167969 C 10.515625 -11.3125 10.554688 -11.496094 10.554688 -11.679688 C 10.578125 -11.863281 10.535156 -12.046875 10.515625 -12.210938 C 10.476562 -12.414062 10.371094 -12.578125 10.269531 -12.679688 C 10.128906 -12.824219 9.964844 -12.925781 9.78125 -12.964844 C 9.597656 -12.984375 9.414062 -12.882812 9.230469 -12.84375 C 9.066406 -12.800781 8.863281 -12.78125 8.71875 -12.722656 C 8.535156 -12.660156 8.390625 -12.578125 8.308594 -12.394531 C 8.269531 -12.230469 8.289062 -12.027344 8.289062 -11.78125 C 8.289062 -11.597656 8.25 -11.375 8.269531 -11.167969 C 8.269531 -10.945312 8.308594 -10.738281 8.308594 -10.578125 C 8.289062 -10.371094 8.351562 -10.1875 8.351562 -9.984375 C 8.351562 -9.800781 8.308594 -9.597656 8.308594 -9.414062 C 8.308594 -9.207031 8.371094 -9.023438 8.371094 -8.820312 C 8.371094 -8.636719 8.332031 -8.433594 8.332031 -8.25 C 8.332031 -8.042969 8.308594 -7.882812 8.289062 -7.675781 C 8.066406 -7.65625 7.902344 -7.617188 7.738281 -7.617188 C 7.515625 -7.597656 7.332031 -7.617188 7.148438 -7.617188 C 6.984375 -7.617188 6.800781 -7.636719 6.617188 -7.636719 C 6.433594 -7.617188 6.25 -7.554688 6.0625 -7.554688 C 5.878906 -7.554688 5.695312 -7.535156 5.511719 -7.535156 C 5.328125 -7.535156 5.144531 -7.535156 4.960938 -7.535156 C 4.777344 -7.535156 4.59375 -7.515625 4.410156 -7.515625 C 4.226562 -7.515625 4.042969 -7.554688 3.859375 -7.554688 C 3.859375 -7.71875 3.859375 -7.882812 3.859375 -8.023438 Z M 3.859375 -8.023438 "/></g></g></g></svg>