<svg xmlns="http://www.w3.org/2000/svg" xmlns:xlink="http://www.w3.org/1999/xlink" width="500" zoomAndPan="magnify" viewBox="0 0 375 374.999991" height="500" preserveAspectRatio="xMidYMid meet" version="1.0"><defs><g/></defs><g fill="#000000" fill-opacity="1"><g transform="translate(161.542054, 242.508633)"><g><path d="M 56.875 2.265625 C 87.074219 2.011719 102.925781 -15.855469 102.925781 -36.992188 C 102.925781 -62.160156 79.773438 -67.945312 60.648438 -74.238281 C 40.769531 -80.78125 24.664062 -87.324219 24.664062 -103.179688 C 24.664062 -116.011719 35.734375 -124.316406 52.847656 -124.316406 C 70.714844 -124.316406 86.820312 -112.742188 94.875 -94.621094 L 97.390625 -95.125 L 96.382812 -120.792969 C 88.582031 -124.066406 73.734375 -127.589844 57.378906 -127.589844 C 28.183594 -127.589844 11.574219 -112.238281 11.574219 -92.355469 C 11.574219 -69.457031 28.6875 -62.914062 52.597656 -55.363281 C 71.972656 -49.074219 89.589844 -43.285156 89.589844 -25.164062 C 89.589844 -11.074219 78.011719 -1.761719 62.410156 -1.761719 C 39.511719 -2.011719 21.640625 -16.359375 11.074219 -40.265625 L 8.808594 -39.761719 L 11.074219 -9.3125 C 19.378906 -3.773438 36.742188 2.265625 56.875 2.265625 Z M 56.875 2.265625 "/></g></g></g><g fill="#000000" fill-opacity="1"><g transform="translate(99.148976, 236.344547)"><g><path d="M 20.453125 -126.125 C 27.890625 -129.21875 35.046875 -130.765625 41.921875 -130.765625 C 47.648438 -130.765625 53.550781 -128.644531 59.625 -124.40625 C 62.945312 -122.113281 66.671875 -117.644531 70.796875 -111 C 73.546875 -106.414062 77.039062 -98.109375 81.28125 -86.078125 L 102.234375 -26.640625 C 107.046875 -13.347656 111.941406 -2.78125 116.921875 5.0625 C 121.910156 12.914062 126.46875 18.816406 130.59375 22.765625 C 134.71875 26.710938 139.007812 29.488281 143.46875 31.09375 C 147.9375 32.695312 151.628906 33.5 154.546875 33.5 C 157.472656 33.5 160.082031 33.269531 162.375 32.8125 L 162.546875 34.53125 C 157.046875 36.363281 151.660156 37.28125 146.390625 37.28125 C 141.128906 37.28125 135.863281 35.929688 130.59375 33.234375 C 125.320312 30.546875 120.394531 26.800781 115.8125 22 C 105.957031 12.03125 97.59375 -3.148438 90.71875 -23.546875 L 84.03125 -43.125 L 36.9375 -43.125 L 25.09375 -12.546875 C 24.519531 -11.171875 24.234375 -9.796875 24.234375 -8.421875 C 24.234375 -7.046875 24.832031 -5.582031 26.03125 -4.03125 C 27.238281 -2.488281 29.097656 -1.71875 31.609375 -1.71875 L 32.984375 -1.71875 L 32.984375 0 L -1.546875 0 L -1.546875 -1.71875 L 0 -1.71875 C 2.75 -1.71875 5.441406 -2.546875 8.078125 -4.203125 C 10.710938 -5.867188 12.890625 -8.363281 14.609375 -11.6875 L 57.21875 -113.75 C 51.03125 -122.570312 43.351562 -126.984375 34.1875 -126.984375 C 30.070312 -126.984375 25.664062 -126.125 20.96875 -124.40625 Z M 38.828125 -48.28125 L 82.3125 -48.28125 L 68.734375 -88.3125 C 66.097656 -95.988281 63.691406 -102.003906 61.515625 -106.359375 Z M 38.828125 -48.28125 "/></g></g></g><g fill="#000000" fill-opacity="1"><g transform="translate(121.916929, 263.797307)"><g><path d="M 8.859375 0 L 7.875 -2.8125 L 3.6875 -2.8125 L 2.703125 0 L 0.40625 0 L 4.421875 -11.015625 L 7.140625 -11.015625 L 11.140625 0 Z M 5.78125 -9.3125 L 5.734375 -9.140625 C 5.679688 -8.953125 5.617188 -8.738281 5.546875 -8.5 C 5.472656 -8.257812 5.023438 -6.941406 4.203125 -4.546875 L 7.359375 -4.546875 L 6.28125 -7.71875 L 5.9375 -8.78125 Z M 5.78125 -9.3125 "/></g></g></g><g fill="#000000" fill-opacity="1"><g transform="translate(135.340797, 263.797307)"><g><path d="M 8.640625 0 L 6.078125 -4.1875 L 3.375 -4.1875 L 3.375 0 L 1.078125 0 L 1.078125 -11.015625 L 6.578125 -11.015625 C 7.890625 -11.015625 8.898438 -10.726562 9.609375 -10.15625 C 10.328125 -9.59375 10.6875 -8.785156 10.6875 -7.734375 C 10.6875 -6.960938 10.46875 -6.296875 10.03125 -5.734375 C 9.59375 -5.171875 9 -4.800781 8.25 -4.625 L 11.234375 0 Z M 8.359375 -7.640625 C 8.359375 -8.691406 7.679688 -9.21875 6.328125 -9.21875 L 3.375 -9.21875 L 3.375 -5.96875 L 6.390625 -5.96875 C 7.035156 -5.96875 7.523438 -6.113281 7.859375 -6.40625 C 8.191406 -6.695312 8.359375 -7.109375 8.359375 -7.640625 Z M 8.359375 -7.640625 "/></g></g></g><g fill="#000000" fill-opacity="1"><g transform="translate(148.764666, 263.797307)"><g><path d="M 1.078125 0 L 1.078125 -11.015625 L 3.375 -11.015625 L 3.375 0 Z M 1.078125 0 "/></g></g></g><g fill="#000000" fill-opacity="1"><g transform="translate(155.080898, 263.797307)"><g><path d="M 7.78125 0 L 2.984375 -8.484375 C 3.078125 -7.660156 3.125 -7 3.125 -6.5 L 3.125 0 L 1.078125 0 L 1.078125 -11.015625 L 3.703125 -11.015625 L 8.578125 -2.46875 C 8.484375 -3.25 8.4375 -3.960938 8.4375 -4.609375 L 8.4375 -11.015625 L 10.484375 -11.015625 L 10.484375 0 Z M 7.78125 0 "/></g></g></g><g fill="#000000" fill-opacity="1"><g transform="translate(168.504765, 263.797307)"><g><path d="M 4.09375 0.15625 C 2.957031 0.15625 2.082031 -0.0859375 1.46875 -0.578125 C 0.851562 -1.078125 0.445312 -1.878906 0.25 -2.984375 L 2.53125 -3.328125 C 2.625 -2.753906 2.796875 -2.332031 3.046875 -2.0625 C 3.304688 -1.789062 3.660156 -1.65625 4.109375 -1.65625 C 4.566406 -1.65625 4.914062 -1.804688 5.15625 -2.109375 C 5.394531 -2.421875 5.515625 -2.863281 5.515625 -3.4375 L 5.515625 -9.203125 L 3.3125 -9.203125 L 3.3125 -11.015625 L 7.8125 -11.015625 L 7.8125 -3.484375 C 7.8125 -2.335938 7.484375 -1.441406 6.828125 -0.796875 C 6.179688 -0.160156 5.269531 0.15625 4.09375 0.15625 Z M 4.09375 0.15625 "/></g></g></g><g fill="#000000" fill-opacity="1"><g transform="translate(179.273031, 263.797307)"><g><path d="M 8.859375 0 L 7.875 -2.8125 L 3.6875 -2.8125 L 2.703125 0 L 0.40625 0 L 4.421875 -11.015625 L 7.140625 -11.015625 L 11.140625 0 Z M 5.78125 -9.3125 L 5.734375 -9.140625 C 5.679688 -8.953125 5.617188 -8.738281 5.546875 -8.5 C 5.472656 -8.257812 5.023438 -6.941406 4.203125 -4.546875 L 7.359375 -4.546875 L 6.28125 -7.71875 L 5.9375 -8.78125 Z M 5.78125 -9.3125 "/></g></g></g><g fill="#000000" fill-opacity="1"><g transform="translate(192.696898, 263.797307)"><g><path d="M 6.5 -4.515625 L 6.5 0 L 4.203125 0 L 4.203125 -4.515625 L 0.28125 -11.015625 L 2.6875 -11.015625 L 5.328125 -6.359375 L 8 -11.015625 L 10.421875 -11.015625 Z M 6.5 -4.515625 "/></g></g></g><g fill="#000000" fill-opacity="1"><g transform="translate(145.225521, 281.797306)"><g><path d="M 10.046875 -3.171875 C 10.046875 -2.097656 9.644531 -1.273438 8.84375 -0.703125 C 8.050781 -0.128906 6.878906 0.15625 5.328125 0.15625 C 3.921875 0.15625 2.816406 -0.09375 2.015625 -0.59375 C 1.210938 -1.09375 0.695312 -1.851562 0.46875 -2.875 L 2.6875 -3.234375 C 2.84375 -2.648438 3.140625 -2.226562 3.578125 -1.96875 C 4.015625 -1.707031 4.617188 -1.578125 5.390625 -1.578125 C 7.003906 -1.578125 7.8125 -2.066406 7.8125 -3.046875 C 7.8125 -3.359375 7.71875 -3.613281 7.53125 -3.8125 C 7.34375 -4.019531 7.082031 -4.191406 6.75 -4.328125 C 6.414062 -4.460938 5.769531 -4.625 4.8125 -4.8125 C 3.988281 -5.007812 3.414062 -5.164062 3.09375 -5.28125 C 2.769531 -5.394531 2.476562 -5.53125 2.21875 -5.6875 C 1.957031 -5.851562 1.734375 -6.046875 1.546875 -6.265625 C 1.367188 -6.492188 1.226562 -6.757812 1.125 -7.0625 C 1.03125 -7.363281 0.984375 -7.707031 0.984375 -8.09375 C 0.984375 -9.09375 1.351562 -9.851562 2.09375 -10.375 C 2.84375 -10.90625 3.929688 -11.171875 5.359375 -11.171875 C 6.722656 -11.171875 7.75 -10.957031 8.4375 -10.53125 C 9.125 -10.101562 9.566406 -9.398438 9.765625 -8.421875 L 7.53125 -8.109375 C 7.414062 -8.585938 7.179688 -8.945312 6.828125 -9.1875 C 6.472656 -9.425781 5.96875 -9.546875 5.3125 -9.546875 C 3.914062 -9.546875 3.21875 -9.109375 3.21875 -8.234375 C 3.21875 -7.941406 3.289062 -7.703125 3.4375 -7.515625 C 3.59375 -7.335938 3.816406 -7.1875 4.109375 -7.0625 C 4.398438 -6.9375 4.988281 -6.773438 5.875 -6.578125 C 6.9375 -6.359375 7.691406 -6.148438 8.140625 -5.953125 C 8.597656 -5.765625 8.957031 -5.546875 9.21875 -5.296875 C 9.488281 -5.046875 9.691406 -4.742188 9.828125 -4.390625 C 9.972656 -4.035156 10.046875 -3.628906 10.046875 -3.171875 Z M 10.046875 -3.171875 "/></g></g></g><g fill="#000000" fill-opacity="1"><g transform="translate(157.766787, 281.797306)"><g><path d="M 1.078125 0 L 1.078125 -11.015625 L 3.375 -11.015625 L 3.375 0 Z M 1.078125 0 "/></g></g></g><g fill="#000000" fill-opacity="1"><g transform="translate(164.083017, 281.797306)"><g><path d="M 7.78125 0 L 2.984375 -8.484375 C 3.078125 -7.660156 3.125 -7 3.125 -6.5 L 3.125 0 L 1.078125 0 L 1.078125 -11.015625 L 3.703125 -11.015625 L 8.578125 -2.46875 C 8.484375 -3.25 8.4375 -3.960938 8.4375 -4.609375 L 8.4375 -11.015625 L 10.484375 -11.015625 L 10.484375 0 Z M 7.78125 0 "/></g></g></g><g fill="#000000" fill-opacity="1"><g transform="translate(177.506887, 281.797306)"><g><path d="M 6.296875 -1.65625 C 6.898438 -1.65625 7.484375 -1.738281 8.046875 -1.90625 C 8.609375 -2.082031 9.039062 -2.304688 9.34375 -2.578125 L 9.34375 -4.109375 L 6.65625 -4.109375 L 6.65625 -5.8125 L 11.453125 -5.8125 L 11.453125 -1.765625 C 10.867188 -1.160156 10.109375 -0.6875 9.171875 -0.34375 C 8.242188 -0.0078125 7.265625 0.15625 6.234375 0.15625 C 4.441406 0.15625 3.0625 -0.335938 2.09375 -1.328125 C 1.132812 -2.328125 0.65625 -3.738281 0.65625 -5.5625 C 0.65625 -7.375 1.140625 -8.757812 2.109375 -9.71875 C 3.078125 -10.6875 4.472656 -11.171875 6.296875 -11.171875 C 8.878906 -11.171875 10.519531 -10.21875 11.21875 -8.3125 L 9.09375 -7.671875 C 8.863281 -8.222656 8.503906 -8.640625 8.015625 -8.921875 C 7.523438 -9.210938 6.953125 -9.359375 6.296875 -9.359375 C 5.210938 -9.359375 4.390625 -9.03125 3.828125 -8.375 C 3.265625 -7.71875 2.984375 -6.78125 2.984375 -5.5625 C 2.984375 -4.3125 3.269531 -3.347656 3.84375 -2.671875 C 4.425781 -1.992188 5.242188 -1.65625 6.296875 -1.65625 Z M 6.296875 -1.65625 "/></g></g></g><g fill="#000000" fill-opacity="1"><g transform="translate(191.821162, 281.797306)"><g><path d="M 8.171875 0 L 8.171875 -4.71875 L 3.375 -4.71875 L 3.375 0 L 1.078125 0 L 1.078125 -11.015625 L 3.375 -11.015625 L 3.375 -6.625 L 8.171875 -6.625 L 8.171875 -11.015625 L 10.484375 -11.015625 L 10.484375 0 Z M 8.171875 0 "/></g></g></g></svg>