<svg version="1.1" id="Layer_1" xmlns="http://www.w3.org/2000/svg" xmlns:xlink="http://www.w3.org/1999/xlink" x="0px" y="0px"
	 width="100%" viewBox="0 0 450 161" enable-background="new 0 0 450 161" xml:space="preserve">
<path fill="#FDFDFD" opacity="1.000000" stroke="none" 
	d="
M347.000000,162.000000 
	C232.666702,162.000000 118.833382,161.980225 5.000198,162.095276 
	C1.576460,162.098740 0.893025,161.425323 0.902504,157.999832 
	C1.043635,107.000244 1.043616,56.000015 0.902540,5.000419 
	C0.893066,1.575477 1.575841,0.902575 4.999919,0.905136 
	C152.333130,1.015321 299.666443,1.015308 446.999664,0.905196 
	C450.422791,0.902637 451.106995,1.574139 451.097534,4.999983 
	C450.956360,55.999577 450.956390,106.999802 451.097443,157.999390 
	C451.106903,161.423935 450.427429,162.116486 446.999847,162.099365 
	C413.833893,161.933807 380.666779,162.000000 347.000000,162.000000 
z"/>
<path fill="#465B6F" opacity="1.000000" stroke="none" 
	d="
M10.751764,139.390106 
	C11.448493,139.140259 11.902571,139.083923 12.693618,139.105713 
	C13.186989,139.265579 13.343391,139.347336 13.736473,139.310516 
	C40.622662,139.130615 67.272186,139.074539 93.921631,138.993195 
	C95.311752,138.988953 96.546661,139.305084 97.879822,140.427048 
	C98.399231,141.349365 98.454964,142.032837 99.076569,142.759720 
	C99.576225,143.420029 99.777847,143.936615 99.932098,144.742615 
	C99.726906,145.501144 99.526535,145.944977 99.502045,146.465088 
	C99.077263,155.485519 99.073410,155.485336 90.246361,155.485336 
	C64.282455,155.485336 38.318550,155.486847 12.354642,155.484268 
	C5.963022,155.483627 6.016389,155.477158 5.977735,149.228134 
	C5.964230,147.044830 6.463019,144.936157 6.724393,142.312103 
	C6.889452,141.845261 6.927810,141.946457 6.880001,141.921112 
	C8.014508,141.056152 9.319295,140.411316 10.751764,139.390106 
z"/>
<path fill="#4A5E72" opacity="1.000000" stroke="none" 
	d="
M48.375706,119.765144 
	C46.195511,118.563324 47.177868,116.593758 47.172390,114.926872 
	C47.095428,91.503868 47.087368,68.080437 47.144497,44.657303 
	C47.163193,36.992130 45.967815,38.130848 53.611908,37.998829 
	C54.774071,37.978756 55.937244,38.017437 57.557072,38.102203 
	C58.911705,39.903023 58.456680,41.761787 58.462601,43.552864 
	C58.542645,67.765114 58.392857,91.977692 58.807701,116.606689 
	C59.139484,117.459053 59.218452,117.894676 59.202690,118.652710 
	C55.709030,120.135902 52.190430,119.116714 48.375706,119.765144 
z"/>
<path fill="#475B6F" opacity="1.000000" stroke="none" 
	d="
M97.695023,11.533593 
	C98.117569,13.879215 97.232620,15.384829 95.822556,16.945656 
	C93.916992,17.731983 92.230881,17.473204 90.578819,17.474276 
	C65.925072,17.490271 41.271317,17.488953 16.617565,17.478493 
	C14.635456,17.477652 12.601377,17.770437 10.330273,16.453175 
	C8.934329,14.990634 8.611871,13.536948 8.344233,12.057795 
	C7.479811,7.280399 8.410981,6.031890 13.335516,6.029359 
	C40.580856,6.015356 67.826324,5.921699 95.541435,6.140022 
	C98.424271,7.249588 97.107132,9.448075 97.695023,11.533593 
z"/>
<path fill="#495D6F" opacity="1.000000" stroke="none" 
	d="
M16.719006,22.492950 
	C41.030682,22.186716 65.047234,22.143242 89.520142,22.204636 
	C90.828484,23.276413 90.823425,24.365938 90.285355,25.910748 
	C88.543121,29.274878 86.894539,32.188492 83.235428,33.644859 
	C63.966553,33.190319 45.020226,33.631512 25.614733,33.483665 
	C23.621119,33.419743 22.275011,32.576466 20.366051,32.224144 
	C19.689713,31.842592 19.408779,31.672840 19.061180,31.257881 
	C18.540104,30.571142 18.541899,29.923439 17.989437,29.288105 
	C17.712648,29.175077 17.834312,29.139223 17.819441,29.200874 
	C17.780319,28.888733 17.631763,28.577406 17.103998,28.204088 
	C16.867994,28.070131 16.953966,28.050926 16.939459,28.092514 
	C16.810728,27.813997 16.619717,27.549307 16.168377,27.174026 
	C15.984836,27.008028 16.000935,27.000938 15.994833,27.008389 
	C14.934618,25.473307 15.088791,24.054195 16.719006,22.492950 
z"/>
<path fill="#4B5D70" opacity="1.000000" stroke="none" 
	d="
M63.503120,119.222176 
	C63.093388,93.070007 63.110676,67.120766 62.896484,41.173435 
	C62.863777,37.211807 65.222023,38.027828 67.401260,38.003208 
	C69.636475,37.977955 71.980408,37.291775 71.952553,41.196846 
	C71.766289,67.310974 71.780312,93.426537 71.368240,119.771606 
	C68.696579,118.894958 66.224022,119.800453 63.503120,119.222176 
z"/>
<path fill="#495D6F" opacity="1.000000" stroke="none" 
	d="
M35.772858,38.617012 
	C36.475517,38.118179 36.971401,38.016701 37.467133,38.017403 
	C45.554909,38.028831 43.905296,37.520031 43.910362,44.168297 
	C43.929527,69.313057 43.831501,94.457901 43.398586,119.814156 
	C35.514664,118.669960 35.506035,118.669952 35.516296,110.380493 
	C35.545734,86.607643 35.446400,62.834698 35.772858,38.617012 
z"/>
<path fill="#475B6F" opacity="1.000000" stroke="none" 
	d="
M90.248543,134.668884 
	C89.551537,134.946884 89.096222,135.000992 88.304146,134.974335 
	C86.215508,134.125931 84.367325,134.507156 82.568459,134.504669 
	C60.693962,134.474396 38.819405,134.486282 16.479076,134.480255 
	C13.339313,133.668808 15.041449,131.387817 14.293684,129.457520 
	C14.133894,128.134964 14.144008,127.229630 14.325422,126.027145 
	C16.211185,124.914307 18.048639,125.005989 19.872360,125.005646 
	C41.609482,125.001610 63.346607,124.995140 85.083717,125.014030 
	C87.364777,125.016006 89.851532,124.576088 91.459373,127.646088 
	C91.828247,129.428345 91.913612,130.808960 91.923424,132.599426 
	C91.409706,133.501434 90.970764,133.992874 90.248543,134.668884 
z"/>
<path fill="#4E5E6F" opacity="1.000000" stroke="none" 
	d="
M200.216019,128.383011 
	C199.366577,124.857849 196.354187,124.393127 194.267090,122.477654 
	C200.076797,122.477654 205.886505,122.477654 212.466431,122.477654 
	C210.426071,124.696663 207.320435,123.966576 206.299011,126.764145 
	C204.894119,130.416916 205.706009,133.918396 205.821381,137.677689 
	C211.399750,138.000153 216.722168,137.807114 222.015503,138.114624 
	C225.427872,138.312820 226.243561,137.036499 226.045319,133.898636 
	C225.762955,129.429123 227.414307,124.149094 219.121216,123.348953 
	C223.632050,121.290062 227.061447,122.380714 230.737610,122.192421 
	C231.169037,123.774666 233.089432,123.424362 233.291138,125.051132 
	C231.985397,133.736877 232.720200,142.037994 232.680649,150.325699 
	C232.663559,153.909927 235.042328,155.028534 237.928406,156.369965 
	C232.174103,156.369965 226.419815,156.369965 219.501602,156.369965 
	C222.519760,154.596909 225.969315,154.531250 225.972275,150.983124 
	C225.974487,148.326309 225.922073,145.668121 225.991531,143.013092 
	C226.053772,140.634399 224.393539,140.950790 222.937592,140.947632 
	C217.623825,140.936081 212.309998,140.947235 206.532867,140.979691 
	C204.856094,144.402420 205.735641,147.901932 205.785217,151.670853 
	C207.236725,154.341827 209.343353,155.402283 211.787872,156.488190 
	C205.971802,156.488190 200.155746,156.488190 193.533371,156.488190 
	C195.775940,154.394485 199.325180,154.828857 199.781647,151.299622 
	C201.148819,143.612885 200.261490,136.176605 200.216019,128.383011 
z"/>
<path fill="#4C5E71" opacity="1.000000" stroke="none" 
	d="
M76.272202,119.808983 
	C75.264404,119.768456 75.084969,119.185219 75.086967,118.483566 
	C75.162987,91.794182 75.236443,65.104797 75.658119,38.312675 
	C76.467613,38.575092 76.962311,38.768501 77.771393,38.340176 
	C78.751793,38.119698 79.505577,38.065460 80.632179,38.082874 
	C81.147995,38.441650 81.290985,38.728783 81.457138,39.496372 
	C81.523247,64.005058 81.419418,88.033386 81.695435,112.513153 
	C81.907120,113.735809 81.955780,114.506866 81.928627,115.658516 
	C82.001083,120.080643 79.073578,119.504700 76.272202,119.808983 
z"/>
<path fill="#4D5C6E" opacity="1.000000" stroke="none" 
	d="
M323.703156,92.778046 
	C324.117767,94.718674 324.191345,96.435989 324.154053,98.570335 
	C323.265320,99.656464 323.573120,101.100807 321.938263,101.279602 
	C313.631195,92.236916 305.691772,83.335114 297.752319,74.433311 
	C296.858093,75.070976 295.963867,75.708649 295.069641,76.346313 
	C295.069641,83.470337 295.069641,90.594353 295.091003,98.161972 
	C295.555023,103.100235 293.150024,101.823479 290.857269,100.208817 
	C292.355347,90.130890 293.408722,80.571526 290.021332,70.843491 
	C290.850861,66.527748 294.084869,69.302513 296.679474,68.756210 
	C305.172546,76.868256 313.203125,84.786537 321.536377,92.824310 
	C322.290192,92.592690 322.797852,92.462982 323.703156,92.778046 
z"/>
<path fill="#48596A" opacity="1.000000" stroke="none" 
	d="
M413.149170,68.779251 
	C421.367096,76.854530 429.130096,84.808128 438.046509,93.943436 
	C438.046509,86.256226 438.046509,80.085732 438.095398,73.447952 
	C438.229767,72.796280 438.315216,72.611877 438.184570,72.212456 
	C437.656097,71.621941 437.343689,71.246452 436.943542,70.641861 
	C436.305878,69.578987 436.685272,68.982208 437.673828,68.237656 
	C439.066010,67.963875 440.138336,67.911629 441.607117,67.936890 
	C442.391693,68.504906 442.560669,69.061935 442.345398,70.103836 
	C440.948822,72.248756 440.974487,74.214180 440.986938,76.221268 
	C441.030090,83.190872 441.076599,90.162323 440.948029,97.129868 
	C440.913971,98.976868 442.095703,101.775688 440.088348,102.477997 
	C438.306580,103.101418 437.017731,100.407547 435.643921,99.063240 
	C428.765015,92.332054 421.970734,85.514503 415.114166,78.760330 
	C414.070251,77.731995 412.856140,76.876411 411.374207,75.993820 
	C410.391785,76.065361 409.845215,75.856995 409.171631,75.199646 
	C408.159332,73.461693 407.953644,71.548393 405.967285,70.400909 
	C407.629547,67.433952 410.323120,68.807091 413.149170,68.779251 
z"/>
<path fill="#475B6F" opacity="1.000000" stroke="none" 
	d="
M30.844944,116.670235 
	C31.225332,117.482506 31.310135,117.910492 31.297113,118.655457 
	C30.022520,119.805931 28.682716,119.380951 26.925270,119.384239 
	C24.947569,118.186890 25.541189,116.562561 25.541077,115.156105 
	C25.539059,89.792641 25.446007,64.429092 25.773888,38.620064 
	C26.748924,38.124878 27.516401,38.075314 28.662270,38.103134 
	C31.353413,39.486790 30.439762,41.723866 30.447355,43.571644 
	C30.546974,67.809547 30.400190,92.047905 30.844944,116.670235 
z"/>
<path fill="#506071" opacity="1.000000" stroke="none" 
	d="
M344.208191,101.841637 
	C343.233948,102.131523 342.486664,102.203575 341.374939,102.171028 
	C340.623993,101.634476 340.467316,101.131012 340.743805,100.198242 
	C343.244202,95.263817 341.802734,90.365990 342.123260,85.623085 
	C342.324677,82.642944 342.151276,79.637733 342.152954,76.643768 
	C342.155029,73.012169 342.576965,69.114937 336.073517,69.674812 
	C336.430878,69.241249 336.788208,68.807686 337.145569,68.374123 
	C342.689178,68.374123 348.232758,68.374123 354.802948,68.374123 
	C346.716980,70.710167 348.894379,76.763695 348.969025,81.769539 
	C349.054810,87.522522 347.868805,93.365372 349.911499,99.422974 
	C350.410522,100.268791 350.538055,100.786293 350.218872,101.705322 
	C349.550385,102.119225 349.107635,102.186081 348.340729,102.150085 
	C346.921295,101.072746 345.654694,101.547234 344.208191,101.841637 
z"/>
<path fill="#546575" opacity="1.000000" stroke="none" 
	d="
M350.326172,156.189667 
	C345.879730,156.735367 341.643585,156.735367 337.407410,156.735367 
	C342.252533,154.466370 342.365631,150.376602 342.145172,145.942673 
	C341.922394,141.462357 341.949921,136.956070 342.139801,132.472687 
	C342.323975,128.125153 342.225250,124.143936 336.801239,122.534698 
	C342.493744,122.534698 348.186249,122.534698 354.694794,122.534698 
	C352.470184,124.788239 348.528351,124.478226 348.571228,128.402069 
	C346.699280,130.067505 347.849915,131.744202 347.914642,133.309174 
	C348.168396,139.439987 347.934967,145.565689 348.069763,151.999237 
	C348.894653,152.921707 349.366486,153.536453 349.961182,154.358276 
	C350.234833,154.924881 350.385620,155.284424 350.326172,156.189667 
z"/>
<path fill="#4E5F71" opacity="1.000000" stroke="none" 
	d="
M135.783493,70.879868 
	C136.005188,68.567314 136.400452,67.138443 138.954102,66.958679 
	C141.631454,66.770203 142.307800,68.275360 143.026413,70.248146 
	C146.350006,79.372246 149.734955,88.473991 153.174591,97.918701 
	C152.853271,102.362984 151.428696,102.895279 146.127045,100.382286 
	C146.471039,95.801224 144.603470,92.384117 142.324127,88.806870 
	C141.395630,88.135086 141.073425,87.480728 140.761948,86.411469 
	C139.473831,81.663383 137.918518,77.407387 135.649139,73.036880 
	C135.518555,72.196014 135.572006,71.712456 135.783493,70.879868 
z"/>
<path fill="#4A5B6D" opacity="1.000000" stroke="none" 
	d="
M142.340424,153.268127 
	C143.703629,148.360977 141.471161,145.533249 137.733459,143.180725 
	C133.468582,140.496399 128.363876,138.784363 126.086655,133.313446 
	C126.898499,131.561859 126.396721,130.052536 126.289200,128.313919 
	C127.744385,122.026604 132.466690,120.962624 140.571655,122.330269 
	C140.928696,122.939232 140.815186,123.291298 140.299255,123.706284 
	C138.307968,123.091705 136.502625,122.844986 134.680511,123.138618 
	C132.564697,123.479584 130.984619,124.735588 130.241989,126.713226 
	C129.421265,128.898804 130.465164,130.642929 132.246857,131.837830 
	C135.540100,134.046448 139.034027,135.968292 142.240295,138.291290 
	C147.243591,141.916245 148.460281,145.854416 146.464081,151.838058 
	C145.829071,152.243484 145.518066,152.477951 145.265137,153.057190 
	C145.283661,153.350342 145.339569,153.221710 145.352264,153.290680 
	C144.497421,153.701630 143.618896,153.884598 142.340424,153.268127 
z"/>
<path fill="#4E5E6F" opacity="1.000000" stroke="none" 
	d="
M381.224548,68.710693 
	C384.728943,77.272842 387.836761,85.727989 390.993439,94.164856 
	C391.679688,95.998947 392.356750,97.868973 393.963165,99.617722 
	C393.941132,100.877274 393.155396,101.220726 392.213562,101.847366 
	C391.237457,102.128319 390.489716,102.197456 389.378662,102.158676 
	C388.005829,100.958397 386.205353,101.962265 385.144653,100.323349 
	C386.295013,95.939934 383.331085,92.849762 382.270447,89.008415 
	C380.792389,87.765549 380.902710,86.168274 380.059448,84.614090 
	C377.989380,81.087097 377.069458,77.491219 375.725647,73.659180 
	C375.207581,72.040245 375.435181,70.779137 375.685944,69.147415 
	C375.779572,68.776245 375.793030,68.884056 375.744934,68.858772 
	C377.350983,67.401932 379.089355,67.805931 381.224548,68.710693 
z"/>
<path fill="#4A5B6D" opacity="1.000000" stroke="none" 
	d="
M154.314682,137.342178 
	C154.728729,131.884552 157.717010,128.238998 161.936340,125.058380 
	C163.607681,124.304604 164.968811,123.911751 166.771194,124.748055 
	C164.237274,127.971550 162.154633,131.328064 161.245422,135.721222 
	C159.930206,137.746063 160.669235,139.642792 160.794357,141.737366 
	C162.367264,145.174530 163.046616,148.691803 165.945984,151.423370 
	C166.246628,152.158188 166.506424,152.511597 167.221039,152.819153 
	C168.217499,153.151428 168.879257,153.438416 169.769363,153.881958 
	C171.039688,157.789078 168.098053,156.060684 166.243896,156.315430 
	C165.796875,156.188049 165.916626,156.151108 165.909363,156.213348 
	C165.418045,155.140991 164.340622,155.620300 163.231873,155.209656 
	C158.026520,152.773560 155.747665,148.488327 154.178192,143.302734 
	C154.832779,141.202560 154.413269,139.409546 154.314682,137.342178 
z"/>
<path fill="#5E6D7D" opacity="1.000000" stroke="none" 
	d="
M97.166138,6.808457 
	C69.726204,6.921442 42.640522,6.941300 15.554836,6.959833 
	C8.060636,6.964961 7.659687,7.538143 9.904998,15.551276 
	C10.110486,16.124666 10.254407,16.297575 10.196009,16.740557 
	C6.581457,14.300370 7.441973,10.421897 7.529736,6.933711 
	C7.602509,4.041294 10.273027,5.166356 11.841614,5.161298 
	C32.930103,5.093304 54.018917,5.106349 75.107613,5.128902 
	C82.576057,5.136889 90.044418,5.224864 97.679871,5.667555 
	C97.738068,6.277469 97.629219,6.496149 97.166138,6.808457 
z"/>
<path fill="#516274" opacity="1.000000" stroke="none" 
	d="
M230.759430,68.292900 
	C233.044968,67.944206 235.092316,67.889679 237.572418,67.914177 
	C238.385513,68.434723 238.541519,68.944855 238.286102,69.894348 
	C237.665787,71.267029 237.232513,72.268959 236.614868,73.480698 
	C235.053543,74.630722 235.296478,76.103561 235.603516,77.288513 
	C236.671661,81.410912 235.283676,85.500092 235.990784,89.895912 
	C236.416962,91.175079 236.502869,92.153748 236.456970,93.481789 
	C235.485001,94.391350 235.234711,95.069832 236.182739,96.084839 
	C236.924301,97.267410 237.386841,98.297806 237.951187,99.600632 
	C235.347946,103.955505 232.063156,101.791885 228.888153,100.237076 
	C230.979279,95.665367 229.750656,91.291420 229.980225,86.598938 
	C229.596344,85.676292 229.457260,85.144951 229.740570,84.183235 
	C229.987808,83.399559 230.030731,82.989174 230.169022,82.283813 
	C230.602768,81.529625 230.803772,81.043205 230.413773,80.239838 
	C230.181320,77.958725 230.100433,75.907509 230.056885,73.416878 
	C230.473236,71.537025 229.435562,69.958786 230.759430,68.292900 
z"/>
<path fill="#4A5B6D" opacity="1.000000" stroke="none" 
	d="
M261.317871,69.063919 
	C261.109619,69.427795 261.206268,69.756134 261.091675,69.883224 
	C259.943390,72.402527 260.686279,74.901337 260.736603,77.662262 
	C260.999023,79.653458 261.061646,81.328987 261.084747,83.422607 
	C261.405121,84.348991 261.548431,84.912384 261.284180,85.936890 
	C261.100403,86.720688 261.107635,87.098465 261.027100,87.748459 
	C259.986053,91.100754 260.667786,94.250061 260.775391,97.683708 
	C261.006989,98.002159 261.185760,98.345352 261.128296,98.530106 
	C261.511047,99.517410 261.727997,100.355309 261.237854,101.641861 
	C259.282959,102.094177 257.565002,102.172226 255.427826,102.145256 
	C254.422897,101.566353 253.745590,101.170250 253.723419,99.997620 
	C254.065643,99.208466 254.255386,98.768951 254.653580,98.199951 
	C256.225586,94.706352 255.216354,91.203102 255.300995,87.404190 
	C255.083633,83.977798 255.031097,80.920891 255.056259,77.411690 
	C255.819199,75.486237 255.518005,73.966438 255.091446,72.245132 
	C253.632141,69.941254 251.159195,70.018486 249.339996,67.864845 
	C252.928650,67.864845 256.517334,67.864845 260.558350,67.951736 
	C261.182526,68.259102 261.354340,68.479576 261.317871,69.063919 
z"/>
<path fill="#4A5B6D" opacity="1.000000" stroke="none" 
	d="
M245.801987,129.193451 
	C246.929092,127.182236 248.416962,125.983788 250.418610,124.930618 
	C251.840637,124.428032 252.817261,124.719795 253.982681,125.692894 
	C254.494644,128.521347 252.699478,130.310730 251.865768,132.434113 
	C249.201584,139.219482 251.270737,145.463425 253.777527,152.100739 
	C253.521713,153.694443 252.973877,154.555618 251.173645,154.350037 
	C250.769791,154.237274 250.871399,154.188217 250.861511,154.243759 
	C250.663803,153.573593 250.030640,153.507187 249.191910,153.199860 
	C248.928970,153.043854 248.987518,153.002991 248.979645,153.037811 
	C248.780960,152.786041 248.549088,152.537064 248.063599,152.185455 
	C241.885849,146.997787 240.737274,140.697952 243.243469,133.193024 
	C244.286209,132.754776 244.502792,132.127319 244.688263,131.085083 
	C244.750793,130.745834 244.793823,130.860275 244.734833,130.844208 
	C245.431534,130.670502 245.490082,130.031723 245.801987,129.193451 
z"/>
<path fill="#4D5C6E" opacity="1.000000" stroke="none" 
	d="
M326.902740,130.771637 
	C332.696930,140.038940 329.937073,149.047440 319.419434,155.211731 
	C318.886841,155.056137 318.706024,154.833633 318.330933,154.226593 
	C317.680634,151.585373 318.791931,149.683960 319.500671,147.679703 
	C321.503143,142.017227 320.454254,136.300079 319.741180,130.150421 
	C320.096161,127.805580 320.605957,126.075737 323.552826,126.789276 
	C324.631439,127.638641 325.315704,128.260788 326.062256,129.159790 
	C326.142365,129.888489 326.306671,130.278595 326.902740,130.771637 
z"/>
<path fill="#546575" opacity="1.000000" stroke="none" 
	d="
M178.204468,79.569473 
	C178.388596,84.495789 178.462845,89.062218 178.599442,93.626785 
	C178.657394,95.563309 178.435379,97.583740 179.952667,99.595032 
	C176.308334,103.249199 172.810623,102.773376 171.744537,98.323898 
	C171.926697,97.876984 171.941238,97.964073 171.897186,97.961014 
	C172.405670,97.617821 172.522324,97.102249 172.282608,96.268616 
	C172.082031,91.323730 172.036560,86.615891 172.067169,81.446213 
	C173.634766,78.031776 173.003220,74.941978 172.695496,71.885063 
	C172.528503,70.226089 171.971848,68.418289 175.148453,68.773491 
	C175.801346,68.033806 176.496780,67.963196 177.539948,67.971573 
	C178.056854,68.401550 178.236084,68.769653 178.378510,69.750816 
	C178.341721,70.363853 178.166626,70.202568 178.265289,70.135986 
	C176.468933,73.067444 178.702225,76.175751 178.204468,79.569473 
z"/>
<path fill="#4A5B6D" opacity="1.000000" stroke="none" 
	d="
M299.220398,155.187347 
	C295.909515,154.221985 293.868652,152.220032 291.979248,149.588074 
	C291.615784,148.668839 291.543549,147.996323 290.929016,147.327271 
	C290.606537,147.255951 290.727844,147.194992 290.709167,147.260254 
	C290.804199,146.940033 290.694427,146.623856 290.185822,146.182526 
	C289.978363,145.998047 289.795288,145.772018 289.821289,145.628937 
	C288.629761,141.131836 288.638519,136.840195 290.586151,132.181656 
	C290.671600,131.720444 290.778931,131.893661 290.698090,131.831665 
	C291.483002,131.681442 291.481171,130.959579 291.772308,130.056534 
	C292.508148,128.114929 293.916779,127.179344 295.432434,125.991608 
	C296.668152,125.467140 297.618439,125.154106 298.931580,125.850998 
	C299.633636,126.715744 299.740814,127.405273 299.502289,128.455688 
	C299.158203,129.136383 298.907593,129.485214 298.445801,130.053680 
	C298.156708,130.461258 298.048920,130.627335 297.816895,131.057434 
	C297.523865,131.925430 297.628204,132.528549 297.710663,133.473724 
	C296.343079,140.439545 298.095764,146.554199 300.784973,152.914780 
	C300.708984,154.148499 300.388458,154.853607 299.220398,155.187347 
z"/>
<path fill="#4A5B6D" opacity="1.000000" stroke="none" 
	d="
M282.618866,143.574478 
	C281.872131,147.641953 279.534424,150.371582 276.490295,152.954544 
	C274.674042,153.866562 273.584625,153.276871 272.552734,151.660431 
	C272.841095,147.062851 275.170441,143.208572 274.891876,138.486816 
	C275.083832,137.269455 275.352783,136.407928 274.943665,135.214432 
	C273.922150,132.332886 272.169800,130.109207 271.844604,127.031319 
	C272.960602,125.818306 274.264404,126.061874 275.731171,125.837265 
	C276.414490,125.948273 276.692078,126.075279 276.985809,126.570450 
	C277.226624,127.145340 277.453583,127.446182 278.017853,127.796844 
	C280.855560,129.741074 281.878937,132.546936 282.884888,135.694580 
	C282.085999,138.411819 282.641052,140.834244 282.618866,143.574478 
z"/>
<path fill="#667582" opacity="1.000000" stroke="none" 
	d="
M91.775299,127.663651 
	C89.625931,126.226151 87.188568,125.862442 84.422668,125.869186 
	C61.450123,125.925209 38.477234,125.841705 15.000587,125.765175 
	C15.420319,123.743614 17.244982,124.196129 18.840067,124.194725 
	C41.582401,124.174675 64.324799,124.198898 87.067055,124.152519 
	C89.459412,124.147644 91.390129,124.468269 91.775299,127.663651 
z"/>
<path fill="#495D6F" opacity="1.000000" stroke="none" 
	d="
M209.738098,82.636093 
	C209.939011,82.974792 210.155746,83.288101 210.129730,83.476799 
	C210.429657,84.220116 210.555099,84.816887 210.287888,85.882004 
	C210.095673,86.308212 210.143539,86.697899 210.039062,86.864105 
	C208.974075,89.759163 209.722504,92.580299 209.486206,95.726860 
	C209.457550,96.614517 209.538864,97.105141 210.074066,97.731056 
	C210.731415,98.008446 210.914780,98.237373 210.976776,98.800285 
	C210.572525,102.860641 207.650803,102.128304 205.412277,101.734985 
	C202.587418,101.238640 203.811829,99.094521 204.367706,96.970978 
	C204.510681,88.951019 204.577606,81.371361 204.229645,73.396500 
	C204.006622,73.001015 203.787964,72.797272 203.838409,72.656609 
	C203.713364,71.802940 203.544693,71.087944 202.916733,70.323898 
	C202.558884,70.245361 202.542404,70.361763 202.484039,70.354736 
	C205.237625,67.594994 208.396835,67.735794 210.508347,71.230286 
	C210.608658,72.064896 210.583984,72.363037 210.176773,72.818703 
	C208.886917,76.045654 209.724472,79.197914 209.738098,82.636093 
z"/>
<path fill="#4A5766" opacity="1.000000" stroke="none" 
	d="
M141.685638,85.735626 
	C141.986771,86.630287 141.986420,87.295067 141.986816,88.292236 
	C140.499130,88.696220 139.011032,88.821465 137.522263,88.830093 
	C131.117340,88.867203 129.183533,90.612198 128.216736,96.729904 
	C127.807449,99.319809 130.050339,99.899506 131.791443,101.617287 
	C127.716110,102.781395 124.304176,102.342827 119.431221,101.912544 
	C125.501511,99.416946 126.433846,94.780403 128.000793,90.514412 
	C130.392166,84.003891 132.863937,77.522896 135.589172,70.776772 
	C135.934708,71.140060 135.992615,71.755928 136.100494,72.832390 
	C138.312637,77.602310 135.021027,80.702599 133.965912,84.408188 
	C136.184586,85.223114 139.007645,84.007858 141.685638,85.735626 
z"/>
<path fill="#465461" opacity="1.000000" stroke="none" 
	d="
M6.586811,142.096390 
	C6.913607,142.176620 6.951602,142.507614 6.959916,142.839371 
	C7.264524,154.994965 7.264147,154.996246 19.235723,154.996689 
	C43.489433,154.997589 67.743141,155.001083 91.996849,154.994614 
	C99.951698,154.992493 98.967842,155.437973 99.008331,148.075485 
	C99.012810,147.261383 99.224640,146.448425 99.612511,145.333481 
	C100.908318,156.079819 100.908318,156.079666 90.253464,156.079742 
	C63.848488,156.079941 37.442024,155.936798 11.039864,156.209503 
	C6.141611,156.260086 4.580601,154.965576 5.178065,150.192307 
	C5.506297,147.570007 5.507133,144.909302 6.586811,142.096390 
z"/>
<path fill="#4E5B68" opacity="1.000000" stroke="none" 
	d="
M375.505127,69.008957 
	C376.086517,69.980537 376.393463,71.184837 376.833862,72.736206 
	C376.170532,75.370262 375.923828,77.787132 374.971008,80.067566 
	C373.236084,84.219818 373.915009,84.973663 378.420837,84.547104 
	C379.070404,84.485611 379.694824,84.245071 380.682678,84.066605 
	C382.450073,85.075005 381.859741,86.635925 381.996643,88.388626 
	C380.508911,88.790245 379.021454,88.849884 377.533905,88.853706 
	C369.608276,88.874084 367.953766,90.601883 368.009338,99.319832 
	C368.421692,100.212334 368.541748,100.747482 368.221130,101.689102 
	C366.926666,102.116699 365.859039,102.185783 364.401672,102.148788 
	C363.498779,101.581367 362.873749,101.218491 362.801025,100.182053 
	C368.379822,90.193398 371.026337,79.405136 375.505127,69.008957 
z"/>
<path fill="#404C5A" opacity="1.000000" stroke="none" 
	d="
M123.456955,35.202187 
	C123.345413,34.385181 123.489067,33.278847 123.652374,33.275940 
	C128.764572,33.184860 133.878677,33.201294 139.351974,33.201294 
	C138.139832,35.843067 137.109970,34.384781 136.143234,34.247505 
	C134.984650,34.082993 133.506241,33.913696 133.589706,35.633415 
	C133.832413,40.633778 132.771561,45.734501 134.483673,50.788677 
	C132.576523,51.419724 130.454346,51.032837 128.324814,50.976418 
	C130.341537,45.799618 129.377060,40.473156 129.222305,35.272888 
	C129.160278,33.188496 126.967590,34.252525 125.282227,34.850349 
	C124.611008,35.336739 124.208061,35.496487 123.456955,35.202187 
z"/>
<path fill="#506071" opacity="1.000000" stroke="none" 
	d="
M161.218597,50.801003 
	C160.558060,51.013012 160.105164,51.064007 159.317612,51.035538 
	C158.509598,50.462852 157.861954,50.499367 157.055908,50.156242 
	C156.924927,47.669861 157.000397,45.417149 156.987320,42.751686 
	C156.749344,42.101761 156.599930,41.864586 156.722900,41.307091 
	C157.193069,38.290070 158.031738,35.475517 155.339417,33.107925 
	C158.033096,33.107925 160.492035,33.107925 162.900177,33.107925 
	C160.473877,38.289780 161.681259,43.704693 161.968994,49.488625 
	C162.004730,50.284592 161.780670,50.525978 161.218597,50.801003 
z"/>
<path fill="#364354" opacity="1.000000" stroke="none" 
	d="
M35.572037,38.311829 
	C35.987885,62.655701 36.147179,87.140923 35.881752,111.621536 
	C35.826038,116.759872 36.664581,119.850723 42.743362,119.733643 
	C42.697483,120.106598 42.377548,120.246513 42.052395,120.259926 
	C34.994667,120.550980 34.986629,120.548256 35.001328,113.366341 
	C35.052441,88.394730 35.109543,63.423138 35.572037,38.311829 
z"/>
<path fill="#3B4755" opacity="1.000000" stroke="none" 
	d="
M10.278145,17.328632 
	C9.992292,16.834299 9.990894,16.657969 9.978031,16.216698 
	C12.507659,16.792482 15.101721,17.033831 17.787376,17.030039 
	C43.360039,16.993935 68.932808,17.031496 95.014214,17.064709 
	C94.374786,18.410366 92.782501,18.127640 91.334702,18.129074 
	C65.554893,18.154583 39.775040,18.151985 13.995234,18.123007 
	C12.850845,18.121721 11.706802,17.812447 10.278145,17.328632 
z"/>
<path fill="#364354" opacity="1.000000" stroke="none" 
	d="
M25.560547,38.289845 
	C25.986431,63.115707 25.983206,88.056984 26.013481,112.998215 
	C26.015675,114.806244 26.261442,116.613983 26.690033,118.718460 
	C27.155567,119.185760 27.325031,119.356445 27.249485,119.791962 
	C23.413336,120.470711 24.951927,117.682846 24.944313,116.342262 
	C24.839256,97.850006 24.844316,79.356926 24.880150,60.864162 
	C24.894657,53.377720 25.048960,45.891544 25.560547,38.289845 
z"/>
<path fill="#4A5766" opacity="1.000000" stroke="none" 
	d="
M175.336731,68.452988 
	C173.299149,69.102127 173.090286,70.196709 173.524307,72.313858 
	C174.096832,75.106575 175.068924,78.127113 172.521912,80.891754 
	C172.094955,79.322571 172.260101,77.618889 171.944214,76.009613 
	C171.551590,74.009407 173.534378,70.768944 170.316193,70.226006 
	C166.640030,69.605789 162.527161,69.413338 160.449051,73.952103 
	C160.032120,74.862709 160.609741,76.437912 158.484772,76.725105 
	C158.484772,73.612968 158.447540,70.569527 158.502426,67.527756 
	C158.525543,66.246132 159.342163,65.625214 160.463669,66.323753 
	C165.101776,69.212654 170.284500,67.074654 175.336731,68.452988 
z"/>
<path fill="#3E5063" opacity="1.000000" stroke="none" 
	d="
M31.242474,116.590622 
	C29.238060,115.504044 30.040014,113.353439 30.035248,111.469902 
	C29.978970,89.239738 30.009148,67.009354 29.979464,44.779079 
	C29.976843,42.817131 30.401697,40.784870 29.218227,38.546131 
	C32.773769,37.883801 31.337255,40.788101 31.341818,42.329807 
	C31.414566,66.928566 31.365614,91.527695 31.242474,116.590622 
z"/>
<path fill="#465461" opacity="1.000000" stroke="none" 
	d="
M167.461426,124.938019 
	C165.756271,125.017868 164.415115,124.999237 162.676849,124.974747 
	C167.355804,120.646873 173.439484,121.297188 179.216263,122.219635 
	C181.800308,122.632263 185.366577,120.899773 186.659134,123.100822 
	C187.917984,125.244484 187.171021,128.572739 187.273346,131.382034 
	C187.289719,131.831192 187.141541,132.286377 186.939224,133.555649 
	C184.345337,129.830811 183.077148,125.683197 179.071152,124.102112 
	C175.231659,122.586739 171.423721,122.310722 167.461426,124.938019 
z"/>
<path fill="#3A4C5A" opacity="1.000000" stroke="none" 
	d="
M59.151058,116.560394 
	C57.245056,115.421318 58.037773,113.282036 58.033482,111.389664 
	C57.978836,87.289719 57.998386,63.189602 58.006630,38.632492 
	C60.391571,38.990826 59.213749,40.989494 59.217674,42.382572 
	C59.286911,66.953995 59.253105,91.525711 59.151058,116.560394 
z"/>
<path fill="#465461" opacity="1.000000" stroke="none" 
	d="
M81.923767,112.502411 
	C80.406670,111.409813 81.028099,109.484154 81.024750,107.725365 
	C80.981644,85.128914 80.994896,62.532349 80.995705,39.467052 
	C81.140564,38.883987 81.283577,38.769684 81.638596,38.829926 
	C81.896759,63.349674 81.942917,87.694878 81.923767,112.502411 
z"/>
<path fill="#3E5063" opacity="1.000000" stroke="none" 
	d="
M14.817632,134.189728 
	C37.333958,133.979492 59.623806,133.980927 81.913605,134.012970 
	C83.726860,134.015579 85.539818,134.227539 87.660149,134.617889 
	C63.952930,134.939285 39.938477,134.985016 15.459406,134.962448 
	C14.860237,134.732529 14.725687,134.570908 14.817632,134.189728 
z"/>
<path fill="#4E5B68" opacity="1.000000" stroke="none" 
	d="
M272.649506,150.907776 
	C273.484955,152.102829 274.283813,152.812454 275.840576,153.028427 
	C268.225586,159.116928 259.844330,159.035049 250.971375,154.531097 
	C251.685425,153.970398 252.646240,153.763763 252.968384,152.279495 
	C253.495148,151.749756 254.047287,151.620255 254.446976,151.876404 
	C260.666016,155.861954 266.552887,154.557663 272.649506,150.907776 
z"/>
<path fill="#4E5B68" opacity="1.000000" stroke="none" 
	d="
M275.868164,125.663910 
	C274.894226,126.321693 273.718536,126.675697 272.169678,127.051888 
	C270.943909,127.298042 270.115143,127.107414 269.439575,126.644012 
	C264.623413,123.340416 259.710052,124.786552 254.448120,126.155045 
	C253.206543,125.741669 252.303619,125.447350 251.068649,125.012199 
	C258.055206,120.331635 265.471130,120.071304 273.018616,124.315231 
	C273.837982,124.775978 274.780884,125.017128 275.868164,125.663910 
z"/>
<path fill="#404C5A" opacity="1.000000" stroke="none" 
	d="
M23.805561,33.200634 
	C43.390480,33.056709 62.819157,33.149788 82.578445,33.477020 
	C63.588428,33.803989 44.267807,33.896797 24.483236,33.928944 
	C23.895966,33.724735 23.772640,33.581188 23.805561,33.200634 
z"/>
<path fill="#465461" opacity="1.000000" stroke="none" 
	d="
M204.761932,96.742233 
	C205.268997,98.228615 203.440598,99.768524 204.883469,100.516708 
	C206.734589,101.476562 208.946548,101.538460 210.807159,99.352936 
	C212.566757,99.798378 214.146591,100.567841 216.769806,101.845467 
	C209.930771,101.845467 204.125259,101.845467 197.725327,101.845467 
	C199.810806,100.043419 202.973541,100.391808 203.827881,97.289047 
	C204.198318,96.830757 204.359512,96.652695 204.761932,96.742233 
z"/>
<path fill="#4A5B6D" opacity="1.000000" stroke="none" 
	d="
M145.739868,33.594231 
	C146.440353,33.116699 146.899246,33.063515 147.698090,33.087990 
	C148.197113,33.285938 148.356140,33.406239 148.711166,33.752518 
	C148.929489,36.002937 148.951828,38.027374 148.999664,40.485985 
	C149.199799,41.153702 149.374466,41.387253 149.334198,42.001816 
	C149.089264,44.615982 149.059265,46.849133 149.102402,49.497639 
	C146.789246,51.083321 145.466202,50.587036 145.502792,47.682465 
	C145.560165,43.128284 145.500427,38.573257 145.739868,33.594231 
z"/>
<path fill="#465461" opacity="1.000000" stroke="none" 
	d="
M171.661682,98.110931 
	C172.855194,103.525200 176.541153,100.545631 179.740936,100.094658 
	C181.310684,100.274796 182.814682,100.097778 183.319489,102.008636 
	C177.573914,102.008636 171.933960,102.008636 165.946533,102.008636 
	C167.521011,99.847069 170.511169,100.701782 171.661682,98.110931 
z"/>
<path fill="#465461" opacity="1.000000" stroke="none" 
	d="
M299.551331,127.442841 
	C298.645782,126.300743 297.657288,126.014572 296.133575,125.940063 
	C302.254120,120.253799 309.699158,121.314064 317.581909,123.100403 
	C318.146210,124.072182 317.811157,124.711983 316.894440,125.428101 
	C310.759857,124.020576 305.169617,124.267792 299.551331,127.442841 
z"/>
<path fill="#5E6D7D" opacity="1.000000" stroke="none" 
	d="
M267.747314,84.472458 
	C271.004089,84.025238 272.579559,82.050522 273.850372,79.306808 
	C275.301178,83.275970 274.707886,87.073441 274.105896,91.031693 
	C272.544281,88.890182 271.505432,86.567696 268.335022,86.167664 
	C267.660828,85.676903 267.505524,85.255371 267.747314,84.472458 
z"/>
<path fill="#3A4C5A" opacity="1.000000" stroke="none" 
	d="
M408.874207,75.458588 
	C409.520203,75.179596 410.091675,75.364532 410.845398,75.798096 
	C411.091919,82.709526 411.156158,89.372345 411.198975,96.501221 
	C410.693848,97.353882 410.145599,97.502510 409.154175,97.185745 
	C408.783569,89.946335 408.791626,82.934433 408.874207,75.458588 
z"/>
<path fill="#4E5B68" opacity="1.000000" stroke="none" 
	d="
M299.061401,155.377838 
	C299.222229,154.519913 299.621185,153.953186 300.078888,153.029480 
	C305.927429,154.261230 311.709198,155.322891 317.806122,152.408936 
	C318.338623,152.882919 318.495819,153.358521 318.860291,154.556381 
	C312.541290,158.601288 305.946564,158.459732 299.061401,155.377838 
z"/>
<path fill="#465461" opacity="1.000000" stroke="none" 
	d="
M145.541382,100.017181 
	C148.404495,100.813309 151.025452,102.511612 153.148590,98.676392 
	C154.667450,99.910515 156.898636,100.250435 159.772079,101.932503 
	C153.184341,101.932503 147.812180,101.932503 142.336243,101.932503 
	C142.847549,100.320839 144.286285,100.650032 145.541382,100.017181 
z"/>
<path fill="#465B6F" opacity="1.000000" stroke="none" 
	d="
M169.235931,35.314411 
	C168.441833,34.516800 167.449234,34.087234 167.385941,33.548508 
	C167.291275,32.742493 168.297729,32.992352 168.868027,32.977497 
	C169.981827,32.948490 171.097534,32.993000 172.608276,33.072601 
	C173.180618,33.311028 173.357162,33.483932 173.309937,33.952332 
	C173.070618,34.648716 173.055069,35.049599 172.964279,35.742294 
	C172.447144,36.590118 172.491714,37.313671 172.208130,38.271606 
	C172.441330,38.733871 172.516190,38.929218 172.262253,39.292664 
	C172.114731,39.824459 172.258545,40.206871 172.743866,40.776772 
	C172.958572,41.009354 172.980957,40.924873 173.024658,40.925293 
	C173.409470,41.366856 173.549454,41.864563 173.316895,42.780457 
	C173.145432,43.142075 173.037674,43.115479 173.046051,43.060619 
	C171.877426,44.747688 172.768600,46.706551 172.434845,48.949883 
	C169.648132,50.811436 169.648132,50.811436 169.514252,46.099789 
	C169.344894,42.345642 169.873108,38.986778 169.235931,35.314411 
z"/>
<path fill="#4A5766" opacity="1.000000" stroke="none" 
	d="
M141.686401,153.195724 
	C142.828918,153.040939 143.681198,153.088821 144.949219,153.248169 
	C140.664963,159.433121 134.745193,157.856918 128.395355,155.933716 
	C127.320251,154.781708 127.783470,153.994476 129.155136,153.236237 
	C133.504333,156.208694 137.395874,157.474442 141.686401,153.195724 
z"/>
<path fill="#4A5766" opacity="1.000000" stroke="none" 
	d="
M178.741241,70.268814 
	C178.234802,69.981895 178.127884,69.599930 177.949310,68.625702 
	C181.980652,67.270195 186.453873,68.980927 190.636169,66.174942 
	C191.660294,68.485214 191.929871,70.792709 190.393982,73.042709 
	C186.998169,69.587517 183.072632,69.868637 178.741241,70.268814 
z"/>
<path fill="#3B4755" opacity="1.000000" stroke="none" 
	d="
M210.552887,86.239685 
	C210.082153,85.720688 210.068634,85.133163 210.079407,84.105568 
	C216.408005,83.725914 222.712280,83.786331 229.480728,83.828346 
	C229.961151,84.330177 229.977432,84.850418 229.973572,85.760605 
	C223.638992,86.157417 217.324539,86.164284 210.552887,86.239685 
z"/>
<path fill="#404C5A" opacity="1.000000" stroke="none" 
	d="
M324.122314,92.538544 
	C323.553925,92.996323 323.063599,92.991287 322.206177,92.965027 
	C321.807556,86.599174 321.776031,80.254539 321.739807,73.439621 
	C322.252197,72.587578 322.826904,72.454185 323.848206,72.812332 
	C324.224915,79.395607 324.212677,85.735664 324.122314,92.538544 
z"/>
<path fill="#3E5063" opacity="1.000000" stroke="none" 
	d="
M348.506409,151.869354 
	C346.893433,151.379349 346.912262,149.857025 346.997345,148.373581 
	C347.362000,142.014175 346.157379,135.598038 348.041748,128.984436 
	C348.461334,136.268524 348.525665,143.850143 348.506409,151.869354 
z"/>
<path fill="#4E5B68" opacity="1.000000" stroke="none" 
	d="
M324.480194,72.800346 
	C323.681366,73.031647 323.125610,73.007759 322.152466,72.976601 
	C320.926880,70.213661 318.118591,70.061371 315.120239,68.433128 
	C320.388641,67.456284 324.601349,67.824059 329.526855,68.068626 
	C327.993805,70.329422 324.961365,70.050484 324.480194,72.800346 
z"/>
<path fill="#465461" opacity="1.000000" stroke="none" 
	d="
M228.520554,99.849701 
	C231.602020,101.948837 234.577957,100.974945 237.782928,100.178101 
	C239.102829,100.189842 240.373108,100.076187 241.191711,101.837021 
	C235.641571,101.837021 230.325699,101.837021 224.909515,101.837021 
	C225.219070,99.941811 227.141373,100.681053 228.520554,99.849701 
z"/>
<path fill="#465461" opacity="1.000000" stroke="none" 
	d="
M140.321167,124.012764 
	C140.241684,123.491325 140.454300,123.173691 140.777908,122.698563 
	C146.685364,122.131561 147.130341,123.037834 145.235886,132.196030 
	C143.451935,129.365204 143.453247,125.882927 140.321167,124.012764 
z"/>
<path fill="#4E5B68" opacity="1.000000" stroke="none" 
	d="
M179.299438,156.839630 
	C177.680145,156.865723 175.884354,157.954636 175.413391,156.388275 
	C174.823151,154.425217 177.094223,154.666718 178.080399,154.458939 
	C181.778152,153.679825 184.312790,151.065857 188.195648,147.991592 
	C186.548340,153.446838 183.221634,155.185959 179.299438,156.839630 
z"/>
<path fill="#4A5766" opacity="1.000000" stroke="none" 
	d="
M272.715027,101.217400 
	C275.257721,99.691887 277.793488,98.771614 278.700012,95.404129 
	C280.771332,101.143661 279.705994,102.374352 273.321777,102.169662 
	C272.804626,101.869827 272.626282,101.683533 272.715027,101.217400 
z"/>
<path fill="#465461" opacity="1.000000" stroke="none" 
	d="
M210.719208,71.531906 
	C208.952072,67.534355 205.952744,68.900642 202.763504,70.039337 
	C201.027512,69.918045 199.629333,69.488396 198.231155,69.058739 
	C198.246155,68.816620 198.261154,68.574493 198.276154,68.332367 
	C204.057938,68.332367 209.839706,68.332367 215.978745,68.332367 
	C214.736526,70.369392 211.949081,69.375732 210.719208,71.531906 
z"/>
<path fill="#3A4C5A" opacity="1.000000" stroke="none" 
	d="
M145.651581,33.107037 
	C145.991684,37.603466 145.999283,42.037056 146.013489,46.470627 
	C146.018799,48.128922 145.834671,49.924351 148.750275,49.918388 
	C149.569519,50.198574 151.471542,50.377522 149.550034,50.934097 
	C147.725510,51.462582 145.627747,51.047806 143.641922,51.047806 
	C145.516922,45.367397 145.516006,39.873245 143.958771,34.354080 
	C143.834015,33.911980 142.385956,33.974705 143.377350,33.173664 
	C143.790573,32.839783 144.659805,33.070305 145.651581,33.107037 
z"/>
<path fill="#506071" opacity="1.000000" stroke="none" 
	d="
M129.615234,153.152405 
	C129.153244,153.796799 128.657379,154.434311 128.085480,155.467621 
	C127.035896,155.594376 125.419106,158.270416 125.186836,155.716354 
	C124.894676,152.503738 124.419449,149.101089 125.732513,145.528183 
	C127.826904,147.248184 127.514389,149.689316 128.878738,151.646118 
	C128.714035,152.218582 128.629807,152.430649 128.709549,152.644516 
	C128.789581,152.859100 128.870499,152.966461 129.249237,153.026367 
	C129.545792,153.086288 129.581375,153.145538 129.615234,153.152405 
z"/>
<path fill="#465461" opacity="1.000000" stroke="none" 
	d="
M361.715149,155.014328 
	C364.778564,152.928116 365.087250,149.212250 367.877960,147.291656 
	C365.832489,150.345779 368.584045,155.765854 362.373993,156.808487 
	C361.597473,156.330948 361.446350,155.873657 361.715149,155.014328 
z"/>
<path fill="#4E5B68" opacity="1.000000" stroke="none" 
	d="
M272.777039,68.322174 
	C278.993713,67.648514 278.993713,67.648514 278.490082,74.343819 
	C276.080841,73.713081 276.292267,70.175484 273.324280,69.960777 
	C272.661713,69.507576 272.521912,69.082611 272.777039,68.322174 
z"/>
<path fill="#3B4755" opacity="1.000000" stroke="none" 
	d="
M169.778778,44.758987 
	C170.783524,46.400501 168.389572,48.939583 171.805130,49.236366 
	C172.162308,48.833809 172.296295,48.671555 172.629898,48.753811 
	C175.223816,51.091736 177.329193,49.951633 179.701569,48.204544 
	C180.148361,47.882332 180.292404,47.766891 180.626648,47.852695 
	C181.081100,50.352371 180.136734,51.252235 177.764740,51.136967 
	C174.353043,50.971172 170.927292,51.094639 166.392868,51.094639 
	C169.295059,49.599720 169.016678,47.664188 169.102448,45.411186 
	C169.307831,44.840965 169.442596,44.675842 169.778778,44.758987 
z"/>
<path fill="#364354" opacity="1.000000" stroke="none" 
	d="
M205.004883,96.540192 
	C205.003159,97.009842 204.520142,97.013893 204.278625,97.011353 
	C204.005814,89.318031 203.974487,81.627251 203.974899,73.468742 
	C206.151291,77.405136 204.602859,82.080246 204.960556,86.616821 
	C205.207581,89.749794 205.007111,92.918060 205.004883,96.540192 
z"/>
<path fill="#3E5063" opacity="1.000000" stroke="none" 
	d="
M236.434479,89.772949 
	C233.851059,84.977600 234.854095,79.623100 236.070648,73.982407 
	C236.466293,78.910172 236.502090,84.129829 236.434479,89.772949 
z"/>
<path fill="#364354" opacity="1.000000" stroke="none" 
	d="
M199.945465,128.470367 
	C202.070969,135.428528 200.888443,142.944458 200.292755,150.720886 
	C199.959885,143.649963 199.935059,136.293823 199.945465,128.470367 
z"/>
<path fill="#546575" opacity="1.000000" stroke="none" 
	d="
M408.546936,97.150436 
	C409.309387,96.974602 409.843262,96.990974 410.777344,96.987305 
	C411.683075,97.805473 412.188599,98.643692 412.830688,99.749702 
	C412.983673,100.631729 412.791382,101.171448 412.188965,101.852478 
	C410.922058,102.139038 409.855499,102.209435 408.399567,102.173218 
	C407.608337,101.615723 407.156372,101.199532 406.974487,100.283676 
	C407.413666,99.100769 407.865997,98.221703 408.546936,97.150436 
z"/>
<path fill="#404C5A" opacity="1.000000" stroke="none" 
	d="
M290.543243,99.804245 
	C292.395233,101.407585 293.787384,101.625191 295.047882,98.989548 
	C296.278290,100.189354 298.110931,100.763916 299.738464,101.968491 
	C295.462799,101.968491 291.187134,101.968491 286.677582,101.968491 
	C287.308716,100.086006 289.135803,100.627777 290.543243,99.804245 
z"/>
<path fill="#506071" opacity="1.000000" stroke="none" 
	d="
M290.392029,131.951706 
	C290.423706,135.982010 290.175842,140.243576 289.887634,144.995499 
	C287.425598,141.001526 288.215057,136.581207 290.392029,131.951706 
z"/>
<path fill="#4E5B68" opacity="1.000000" stroke="none" 
	d="
M316.867310,125.721893 
	C317.135834,124.844421 317.398712,124.309402 317.800598,123.508812 
	C319.837067,124.310020 321.734528,125.376816 323.789612,126.730057 
	C322.249512,126.918198 320.936829,127.300606 320.966492,129.763763 
	C318.491089,129.876526 317.798828,127.847794 316.867310,125.721893 
z"/>
<path fill="#364354" opacity="1.000000" stroke="none" 
	d="
M361.455627,154.741913 
	C361.923187,155.137711 361.939606,155.587677 361.966461,156.375214 
	C358.291077,156.757706 354.605255,156.802643 350.517639,156.791473 
	C350.101440,156.373871 350.086975,156.012375 350.078247,155.108109 
	C353.724182,154.642273 357.364319,154.719193 361.455627,154.741913 
z"/>
<path fill="#4E5B68" opacity="1.000000" stroke="none" 
	d="
M230.571198,67.930405 
	C230.875397,69.488541 230.753174,70.978355 230.362579,72.722816 
	C229.648849,70.040245 226.809296,70.134499 224.658920,68.861496 
	C226.372391,66.993271 228.422546,68.210442 230.571198,67.930405 
z"/>
<path fill="#3E5063" opacity="1.000000" stroke="none" 
	d="
M178.402893,79.522598 
	C175.733124,76.939041 177.072464,73.671593 177.990585,70.264961 
	C178.414856,73.084633 178.465759,76.099854 178.402893,79.522598 
z"/>
<path fill="#404C5A" opacity="1.000000" stroke="none" 
	d="
M413.297424,68.553177 
	C411.267365,69.219727 408.801910,68.489296 406.188751,69.940491 
	C404.521606,69.938148 403.136230,70.054939 401.976196,68.394302 
	C405.781372,67.464493 409.384277,67.801826 413.297424,68.553177 
z"/>
<path fill="#4A5766" opacity="1.000000" stroke="none" 
	d="
M296.903015,68.584106 
	C294.846527,69.337296 292.364899,68.276482 289.989990,70.213432 
	C288.575012,69.874992 286.849091,70.249367 285.667603,68.360962 
	C289.543915,67.530952 293.093262,67.657928 296.903015,68.584106 
z"/>
<path fill="#364354" opacity="1.000000" stroke="none" 
	d="
M272.536652,100.897430 
	C272.990875,101.123978 272.999634,101.310394 272.995697,101.776474 
	C269.291473,102.098938 265.599976,102.141747 261.454712,102.100342 
	C261.024445,101.191177 261.047913,100.366234 261.071106,99.128067 
	C264.116455,102.658241 268.413208,100.166245 272.536652,100.897430 
z"/>
<path fill="#364354" opacity="1.000000" stroke="none" 
	d="
M189.989716,73.398445 
	C191.829193,71.278107 190.655823,68.998192 191.013519,66.577339 
	C193.347412,69.392998 191.088547,73.027977 192.429550,76.639084 
	C190.210938,76.309418 190.416870,74.828712 189.989716,73.398445 
z"/>
<path fill="#364354" opacity="1.000000" stroke="none" 
	d="
M267.521057,84.139267 
	C267.983398,84.591934 268.015137,85.001801 268.027832,85.719559 
	C265.985779,86.078598 263.962769,86.129745 261.516479,86.261902 
	C261.073517,85.786987 261.053864,85.231079 261.039673,84.257935 
	C263.060272,83.925957 265.075378,84.011215 267.521057,84.139267 
z"/>
<path fill="#465461" opacity="1.000000" stroke="none" 
	d="
M233.515472,125.310471 
	C232.542007,124.664398 231.914810,123.857124 231.209412,122.669830 
	C233.387421,122.173393 235.656769,121.736610 238.062607,122.523300 
	C237.510056,124.938942 234.778778,123.635101 233.515472,125.310471 
z"/>
<path fill="#364354" opacity="1.000000" stroke="none" 
	d="
M272.537750,67.972931 
	C273.001007,68.451988 273.008911,68.858368 272.998779,69.569138 
	C269.364777,68.774567 265.662201,69.347610 261.550598,69.365898 
	C261.091003,69.196426 261.072388,68.965050 261.032257,68.386147 
	C264.701294,67.992500 268.391876,67.946373 272.537750,67.972931 
z"/>
<path fill="#3A4C5A" opacity="1.000000" stroke="none" 
	d="
M48.440308,120.126961 
	C51.227917,117.964798 54.808392,119.479301 58.647503,118.972809 
	C56.002274,121.808052 52.262566,119.622620 48.440308,120.126961 
z"/>
<path fill="#4E5B68" opacity="1.000000" stroke="none" 
	d="
M437.596802,67.935760 
	C437.692047,68.606628 437.390381,69.197151 436.972229,70.100220 
	C435.502136,69.661133 433.519775,70.294579 432.512115,68.469528 
	C434.014130,67.251213 435.678131,68.057182 437.596802,67.935760 
z"/>
<path fill="#364354" opacity="1.000000" stroke="none" 
	d="
M206.038940,151.537384 
	C204.126343,148.605606 205.011841,145.062195 205.759460,141.276550 
	C206.063171,144.366318 206.056793,147.723114 206.038940,151.537384 
z"/>
<path fill="#404C5A" opacity="1.000000" stroke="none" 
	d="
M173.474701,34.195663 
	C173.071625,34.062946 173.057098,33.878059 173.023315,33.415646 
	C174.631989,33.089489 176.263367,33.091629 177.887024,32.980659 
	C180.509247,32.801441 180.390884,34.298645 179.759918,36.590153 
	C178.379395,33.855740 176.100784,34.063087 173.474701,34.195663 
z"/>
<path fill="#3E5063" opacity="1.000000" stroke="none" 
	d="
M255.072052,87.487343 
	C256.708435,90.482239 256.103882,94.004303 255.178741,97.798485 
	C254.910660,94.693642 254.959290,91.316803 255.072052,87.487343 
z"/>
<path fill="#404C5A" opacity="1.000000" stroke="none" 
	d="
M406.613464,100.037415 
	C407.304321,100.467155 407.647308,100.954498 408.000244,101.754211 
	C406.415741,102.066589 404.821320,102.066589 402.889954,102.066589 
	C403.686279,100.268509 405.248596,100.657776 406.613464,100.037415 
z"/>
<path fill="#4E5B68" opacity="1.000000" stroke="none" 
	d="
M166.038727,156.465393 
	C167.151794,155.726364 168.985352,156.630875 169.923569,154.403381 
	C171.512924,154.206467 173.260040,154.490738 172.891312,156.449585 
	C172.565765,158.179031 170.920349,157.688400 169.637192,157.421478 
	C168.519608,157.188995 167.399536,156.968521 166.038727,156.465393 
z"/>
<path fill="#3B4755" opacity="1.000000" stroke="none" 
	d="
M206.058533,137.525284 
	C204.061066,134.617935 205.043564,131.063263 205.733612,127.277298 
	C206.036865,130.361725 206.032135,133.715652 206.058533,137.525284 
z"/>
<path fill="#404C5A" opacity="1.000000" stroke="none" 
	d="
M169.987579,44.600677 
	C169.980194,45.007252 169.576630,45.005291 169.374847,45.005692 
	C169.116547,41.972424 169.060013,38.938759 169.011017,35.450153 
	C171.704803,37.810925 169.407410,41.155624 169.987579,44.600677 
z"/>
<path fill="#546575" opacity="1.000000" stroke="none" 
	d="
M16.661777,22.161798 
	C16.678177,23.588312 16.342224,24.946436 15.997501,26.660198 
	C14.683789,25.283047 11.913356,23.454777 16.661777,22.161798 
z"/>
<path fill="#4E5B68" opacity="1.000000" stroke="none" 
	d="
M442.532440,70.385422 
	C442.129761,69.965569 442.079529,69.408859 442.016418,68.433273 
	C443.512421,67.881279 445.058472,67.359627 446.520111,68.396431 
	C445.834229,70.171028 444.058044,69.615173 442.532440,70.385422 
z"/>
<path fill="#404C5A" opacity="1.000000" stroke="none" 
	d="
M392.394958,102.137474 
	C392.508179,101.438080 393.031128,100.816986 393.837616,100.065704 
	C395.366211,100.362740 396.611237,100.789970 398.300873,101.369751 
	C396.175354,102.802536 394.431976,102.027382 392.394958,102.137474 
z"/>
<path fill="#364354" opacity="1.000000" stroke="none" 
	d="
M209.980255,82.523895 
	C208.198624,79.915428 208.950211,76.718468 209.717026,73.265915 
	C210.017929,76.020775 210.019714,79.046883 209.980255,82.523895 
z"/>
<path fill="#364354" opacity="1.000000" stroke="none" 
	d="
M209.245392,97.171097 
	C209.118027,93.870041 209.237396,90.733574 209.645691,87.313705 
	C209.973648,90.051300 210.012711,93.072289 210.015640,96.545387 
	C209.817047,97.110222 209.654602,97.222954 209.245392,97.171097 
z"/>
<path fill="#3E5063" opacity="1.000000" stroke="none" 
	d="
M261.064972,97.551247 
	C259.130127,94.976349 260.028656,91.765091 260.658752,88.305588 
	C261.000549,91.047218 261.061768,94.073776 261.064972,97.551247 
z"/>
<path fill="#4E5B68" opacity="1.000000" stroke="none" 
	d="
M381.457092,68.448120 
	C379.879700,68.799416 378.155853,68.774574 376.064423,68.791611 
	C377.136627,65.398781 379.253967,66.959106 381.457092,68.448120 
z"/>
<path fill="#404C5A" opacity="1.000000" stroke="none" 
	d="
M384.629333,100.100624 
	C386.220154,100.507477 387.432800,101.010254 388.830414,101.781891 
	C387.415283,102.103088 385.756012,102.446754 384.229614,102.136597 
	C382.158325,101.715729 383.140961,100.847244 384.629333,100.100624 
z"/>
<path fill="#465461" opacity="1.000000" stroke="none" 
	d="
M76.407120,120.186554 
	C77.257332,118.098236 81.097206,120.037781 81.604996,116.282242 
	C83.140007,120.935883 79.925110,120.551521 76.407120,120.186554 
z"/>
<path fill="#788493" opacity="1.000000" stroke="none" 
	d="
M173.535828,43.104156 
	C173.097397,42.649654 173.049377,42.157234 173.034851,41.295265 
	C174.411057,40.956928 175.753738,40.988140 177.493835,40.928604 
	C178.570435,41.516140 178.096817,42.033871 177.352936,42.720757 
	C176.011307,42.946007 174.968765,43.006123 173.535828,43.104156 
z"/>
<path fill="#404C5A" opacity="1.000000" stroke="none" 
	d="
M149.550476,42.371868 
	C149.101562,42.139179 149.083847,41.895527 149.045624,41.286011 
	C151.386642,40.944927 153.748138,40.969704 156.552460,40.990623 
	C156.981247,41.212280 156.967239,41.437790 156.925995,42.001114 
	C154.593063,42.346256 152.287384,42.353580 149.550476,42.371868 
z"/>
<path fill="#404C5A" opacity="1.000000" stroke="none" 
	d="
M282.842957,143.499847 
	C281.442474,141.542526 281.951416,139.069580 282.592804,136.326126 
	C283.453705,138.381958 283.241272,140.728760 282.842957,143.499847 
z"/>
<path fill="#3A4C5A" opacity="1.000000" stroke="none" 
	d="
M63.228096,119.440704 
	C65.590134,119.169807 68.069862,118.568054 70.738495,119.710800 
	C68.430908,120.437035 65.858467,120.662148 63.228096,119.440704 
z"/>
<path fill="#465461" opacity="1.000000" stroke="none" 
	d="
M10.654361,139.155731 
	C10.691710,141.187454 9.071687,141.499908 7.181936,141.905029 
	C7.261805,140.053360 8.749665,139.536057 10.654361,139.155731 
z"/>
<path fill="#4E5B68" opacity="1.000000" stroke="none" 
	d="
M238.484818,70.174614 
	C238.066330,69.760658 238.033615,69.256218 238.003021,68.372498 
	C239.334702,67.960373 240.739151,67.288612 241.983429,68.404251 
	C241.506775,70.117096 239.950470,69.654068 238.484818,70.174614 
z"/>
<path fill="#3A4C5A" opacity="1.000000" stroke="none" 
	d="
M261.006256,77.540253 
	C259.276642,75.603371 259.966583,73.063957 260.695831,70.275917 
	C261.010101,72.374413 261.043121,74.738495 261.006256,77.540253 
z"/>
<path fill="#404C5A" opacity="1.000000" stroke="none" 
	d="
M412.405945,102.144302 
	C412.150879,101.502510 412.313202,100.936386 412.721375,100.193878 
	C414.499817,100.444443 416.032410,100.871391 417.775116,101.356865 
	C416.221100,102.943748 414.415741,102.011070 412.405945,102.144302 
z"/>
<path fill="#404C5A" opacity="1.000000" stroke="none" 
	d="
M340.575928,99.927887 
	C340.971100,100.334885 340.995026,100.829315 341.014679,101.695091 
	C339.735718,102.235451 338.454102,102.524147 337.177307,101.845680 
	C337.553375,100.156097 339.186676,100.585022 340.575928,99.927887 
z"/>
<path fill="#404C5A" opacity="1.000000" stroke="none" 
	d="
M350.392517,102.129784 
	C349.998901,101.552750 350.004730,101.053139 350.036194,100.179672 
	C351.400269,100.261795 352.937164,100.291924 354.022430,101.475235 
	C353.056976,102.808449 351.829071,102.031952 350.392517,102.129784 
z"/>
<path fill="#364354" opacity="1.000000" stroke="none" 
	d="
M96.870270,7.288087 
	C96.941933,6.611602 97.143585,6.384807 97.631882,6.140243 
	C97.899117,7.748691 97.951309,9.438595 97.929832,11.545976 
	C96.477600,10.764906 97.183701,9.115581 96.870270,7.288087 
z"/>
<path fill="#364354" opacity="1.000000" stroke="none" 
	d="
M172.907516,48.576485 
	C172.829498,48.998322 172.428589,48.997856 172.228455,48.996960 
	C172.138519,47.161644 171.612610,45.277592 172.755768,43.253113 
	C173.031464,44.722054 173.008499,46.438351 172.907516,48.576485 
z"/>
<path fill="#404C5A" opacity="1.000000" stroke="none" 
	d="
M154.086975,137.460098 
	C155.550308,138.721176 155.052246,140.576736 154.430847,142.680969 
	C154.131195,141.252670 154.070953,139.564774 154.086975,137.460098 
z"/>
<path fill="#364354" opacity="1.000000" stroke="none" 
	d="
M161.053589,141.578796 
	C159.356232,140.313873 159.886337,138.396866 160.743835,136.240662 
	C161.049133,137.720688 161.067337,139.435806 161.053589,141.578796 
z"/>
<path fill="#404C5A" opacity="1.000000" stroke="none" 
	d="
M253.579163,99.751175 
	C254.171783,100.239517 254.467667,100.831055 254.886093,101.731415 
	C253.944260,102.106468 252.879883,102.172699 251.419998,102.170090 
	C250.882355,101.895851 250.740234,101.690468 250.788849,101.162605 
	C251.747192,100.511551 252.514801,100.182968 253.579163,99.751175 
z"/>
<path fill="#364354" opacity="1.000000" stroke="none" 
	d="
M15.030399,133.593536 
	C15.044126,133.970154 15.016068,134.431976 15.005427,134.663055 
	C12.755198,133.598740 14.460630,131.503281 14.048079,129.446503 
	C15.471933,130.207916 14.843092,131.798187 15.030399,133.593536 
z"/>
<path fill="#404C5A" opacity="1.000000" stroke="none" 
	d="
M362.575684,99.947418 
	C363.228485,100.402298 363.508484,100.939835 363.900208,101.760040 
	C362.717712,102.080017 361.034729,102.994766 360.305878,101.536171 
	C359.844391,100.612679 361.378357,100.350494 362.575684,99.947418 
z"/>
<path fill="#546575" opacity="1.000000" stroke="none" 
	d="
M90.416687,26.158958 
	C90.089340,25.244081 90.042419,24.177057 89.985992,22.709770 
	C92.682800,23.061295 91.702248,24.531660 90.416687,26.158958 
z"/>
<path fill="#465461" opacity="1.000000" stroke="none" 
	d="
M177.328903,43.015400 
	C177.289948,42.383789 177.526047,41.881683 177.826691,41.108715 
	C178.813995,39.683037 179.188553,40.448616 179.120789,41.316650 
	C179.046982,42.261810 179.907837,43.525661 178.456100,44.091690 
	C178.316345,44.146175 177.894730,43.477745 177.328903,43.015400 
z"/>
<path fill="#546575" opacity="1.000000" stroke="none" 
	d="
M23.727436,32.699768 
	C23.961803,32.963631 23.982748,33.416458 24.001019,33.642372 
	C22.533108,34.171185 21.546019,33.061893 20.155968,32.290382 
	C21.144789,32.153530 22.318930,32.294720 23.727436,32.699768 
z"/>
<path fill="#3B4755" opacity="1.000000" stroke="none" 
	d="
M126.003815,128.440857 
	C127.462067,129.401581 127.095825,130.949463 126.354630,132.737762 
	C125.606224,131.612946 125.524376,130.239227 126.003815,128.440857 
z"/>
<path fill="#404C5A" opacity="1.000000" stroke="none" 
	d="
M321.757050,101.446640 
	C322.207428,100.542397 322.844177,99.946091 323.762085,99.168579 
	C323.491425,100.022171 326.359802,103.652290 321.757050,101.446640 
z"/>
<path fill="#3E5063" opacity="1.000000" stroke="none" 
	d="
M254.859665,72.448242 
	C256.601288,73.241829 256.058563,74.860977 255.382294,76.709450 
	C255.050446,75.592606 254.966919,74.225807 254.859665,72.448242 
z"/>
<path fill="#3E5063" opacity="1.000000" stroke="none" 
	d="
M27.407124,120.175766 
	C27.001341,119.883102 26.998205,119.709427 26.990585,119.275406 
	C28.109133,119.003304 29.232161,118.991524 30.777239,118.976089 
	C30.764597,121.195076 29.002567,120.015358 27.407124,120.175766 
z"/>
<path fill="#404C5A" opacity="1.000000" stroke="none" 
	d="
M156.571686,49.984821 
	C157.442749,50.094540 158.036072,50.266506 158.806152,50.697269 
	C158.084793,50.658432 156.537369,52.281460 156.571686,49.984821 
z"/>
<path fill="#4E5B68" opacity="1.000000" stroke="none" 
	d="
M230.190613,80.337234 
	C231.606827,80.303116 232.409927,80.751663 230.533295,81.940384 
	C230.215942,81.547394 230.167496,81.105957 230.190613,80.337234 
z"/>
<path fill="#4A5766" opacity="1.000000" stroke="none" 
	d="
M250.692642,100.794235 
	C250.980560,101.050545 250.981537,101.260963 251.003510,101.786316 
	C250.397186,102.384888 249.631927,102.505264 249.343323,101.835449 
	C248.980316,100.992996 249.791916,100.871758 250.692642,100.794235 
z"/>
<path fill="#3E5063" opacity="1.000000" stroke="none" 
	d="
M90.362457,134.959106 
	C90.070602,134.049118 90.317429,133.331848 91.549988,133.049423 
	C92.002365,133.978928 92.253555,135.002792 90.362457,134.959106 
z"/>
<path fill="#404C5A" opacity="1.000000" stroke="none" 
	d="
M368.373657,102.124130 
	C368.007202,101.531151 368.020111,101.014702 368.060364,100.111725 
	C368.888214,100.082359 370.020935,100.098602 370.048431,101.319336 
	C370.066650,102.128792 369.356842,102.153137 368.373657,102.124130 
z"/>
<path fill="#4A5766" opacity="1.000000" stroke="none" 
	d="
M77.666611,38.107708 
	C77.906631,38.797733 77.827682,39.525463 77.058701,39.565235 
	C76.754303,39.580982 76.421440,39.046448 76.053772,38.486198 
	C76.449074,38.153786 76.892136,38.097633 77.666611,38.107708 
z"/>
<path fill="#404C5A" opacity="1.000000" stroke="none" 
	d="
M344.380676,102.136414 
	C345.001923,100.660080 346.261719,100.794571 347.813049,101.770607 
	C346.937744,102.102608 345.858978,102.157982 344.380676,102.136414 
z"/>
<path fill="#404C5A" opacity="1.000000" stroke="none" 
	d="
M161.273682,51.022408 
	C161.220734,50.692711 161.430527,50.423405 161.878418,50.043804 
	C162.430435,50.156384 162.744339,50.379250 163.058243,50.602112 
	C162.550964,50.762341 162.043701,50.922569 161.273682,51.022408 
z"/>
<path fill="#546575" opacity="1.000000" stroke="none" 
	d="
M123.094101,35.280228 
	C123.581543,34.968655 123.970490,34.960182 124.650742,34.966106 
	C124.451965,35.562138 123.961891,36.143768 123.471817,36.725403 
	C123.313080,36.344711 123.154335,35.964020 123.094101,35.280228 
z"/>
<path fill="#4E5B68" opacity="1.000000" stroke="none" 
	d="
M163.168243,155.263031 
	C163.873108,155.043671 164.848328,154.870758 165.755157,155.954285 
	C165.065796,156.019302 164.229492,155.763000 163.168243,155.263031 
z"/>
<path fill="#465461" opacity="1.000000" stroke="none" 
	d="
M202.646332,70.570625 
	C203.432007,70.370354 203.838028,70.907112 203.889587,72.135826 
	C203.503845,71.975922 203.118820,71.435905 202.646332,70.570625 
z"/>
<path fill="#506071" opacity="1.000000" stroke="none" 
	d="
M290.686340,147.557602 
	C291.391968,147.353241 291.803589,147.813004 291.891663,148.928467 
	C291.514740,148.801743 291.140442,148.330490 290.686340,147.557602 
z"/>
<path fill="#3E5063" opacity="1.000000" stroke="none" 
	d="
M236.533569,95.834488 
	C235.637192,95.759308 234.850479,95.268417 236.037689,94.011101 
	C236.418564,94.364761 236.511963,94.898361 236.533569,95.834488 
z"/>
<path fill="#465461" opacity="1.000000" stroke="none" 
	d="
M99.302505,142.581741 
	C98.639641,142.696823 98.191986,142.235153 98.089798,141.112488 
	C98.466461,141.261948 98.848434,141.760986 99.302505,142.581741 
z"/>
<path fill="#4A5766" opacity="1.000000" stroke="none" 
	d="
M172.048477,96.347328 
	C172.808701,96.525871 173.060059,97.077263 172.104797,97.856720 
	C171.891922,97.526329 171.930695,97.094711 172.048477,96.347328 
z"/>
<path fill="#404C5A" opacity="1.000000" stroke="none" 
	d="
M172.534042,38.462730 
	C172.247238,37.915260 172.313187,37.220760 172.634094,36.280178 
	C172.888290,36.794632 172.887543,37.555161 172.534042,38.462730 
z"/>
<path fill="#4E5B68" opacity="1.000000" stroke="none" 
	d="
M249.081131,153.302658 
	C249.504150,153.257996 250.079315,153.472122 250.753067,153.992767 
	C250.312195,154.053360 249.772736,153.807404 249.081131,153.302658 
z"/>
<path fill="#4E5B68" opacity="1.000000" stroke="none" 
	d="
M244.480957,130.923187 
	C244.876022,131.492615 244.831436,132.186203 243.797531,132.780457 
	C243.703461,132.288162 243.957291,131.694351 244.480957,130.923187 
z"/>
<path fill="#4E5B68" opacity="1.000000" stroke="none" 
	d="
M245.711472,129.082397 
	C245.749191,129.509842 245.522797,130.080795 244.986145,130.739960 
	C244.933029,130.294067 245.190201,129.759979 245.711472,129.082397 
z"/>
<path fill="#506071" opacity="1.000000" stroke="none" 
	d="
M291.631348,129.914917 
	C291.691711,130.367371 291.485596,130.981705 290.948364,131.682846 
	C290.866425,131.205368 291.115631,130.641068 291.631348,129.914917 
z"/>
<path fill="#546575" opacity="1.000000" stroke="none" 
	d="
M17.786297,29.456432 
	C18.123182,29.579655 18.533716,29.984234 18.969383,30.700743 
	C18.616327,30.587711 18.238138,30.162750 17.786297,29.456432 
z"/>
<path fill="#4E5B68" opacity="1.000000" stroke="none" 
	d="
M437.964478,72.251823 
	C438.123260,72.251846 438.278076,72.506248 438.288574,72.870667 
	C438.083038,72.822517 438.021759,72.664360 437.964478,72.251823 
z"/>
<path fill="#4E5B68" opacity="1.000000" stroke="none" 
	d="
M247.950928,152.301025 
	C248.143509,152.231140 248.441772,152.411804 248.855927,152.832550 
	C248.666718,152.898941 248.361664,152.725250 247.950928,152.301025 
z"/>
<path fill="#4E5B68" opacity="1.000000" stroke="none" 
	d="
M167.382446,152.595428 
	C167.161118,152.685165 166.766525,152.505859 166.231415,152.026184 
	C166.463669,151.926010 166.836411,152.126221 167.382446,152.595428 
z"/>
<path fill="#3A4C5A" opacity="1.000000" stroke="none" 
	d="
M148.901688,33.727074 
	C148.634338,33.899902 148.409134,33.749878 148.134796,33.347038 
	C148.324127,33.268978 148.610184,33.372314 148.901688,33.727074 
z"/>
<path fill="#4A5766" opacity="1.000000" stroke="none" 
	d="
M145.532257,153.220230 
	C145.406143,152.999832 145.528610,152.649338 145.912598,152.176147 
	C146.043045,152.399033 145.911957,152.744568 145.532257,153.220230 
z"/>
<path fill="#465461" opacity="1.000000" stroke="none" 
	d="
M209.167374,97.245125 
	C208.998657,97.006500 209.489120,97.006973 209.734314,97.002228 
	C210.083420,97.130051 210.187332,97.262619 210.353882,97.640030 
	C210.056381,97.751167 209.696243,97.617455 209.167374,97.245125 
z"/>
<path fill="#4A5766" opacity="1.000000" stroke="none" 
	d="
M129.448761,152.790375 
	C129.130005,152.964722 128.549881,153.040009 128.796967,152.165497 
	C129.092300,152.170258 129.222000,152.332367 129.448761,152.790375 
z"/>
<path fill="#506071" opacity="1.000000" stroke="none" 
	d="
M289.976807,146.274017 
	C290.218903,146.257599 290.459412,146.517166 290.695190,147.051117 
	C290.452057,147.067001 290.213684,146.808502 289.976807,146.274017 
z"/>
<path fill="#465461" opacity="1.000000" stroke="none" 
	d="
M13.737997,139.133377 
	C13.973152,139.191910 13.644929,139.536453 13.644929,139.536453 
	C13.644929,139.536453 13.208579,139.460098 13.119583,139.321960 
	C13.030586,139.183807 13.502841,139.074844 13.737997,139.133377 
z"/>
<path fill="#404C5A" opacity="1.000000" stroke="none" 
	d="
M172.973206,40.636841 
	C172.702316,40.681705 172.446060,40.354057 172.154205,39.707970 
	C172.408371,39.681129 172.698105,39.972729 172.973206,40.636841 
z"/>
<path fill="#667582" opacity="1.000000" stroke="none" 
	d="
M180.880264,47.755447 
	C180.816849,48.053936 180.410416,48.027267 180.207367,48.012520 
	C180.140228,47.509705 180.068558,46.661045 180.880264,47.755447 
z"/>
<path fill="#4E5B68" opacity="1.000000" stroke="none" 
	d="
M327.105896,130.626709 
	C326.875397,130.651581 326.562958,130.366806 326.187561,129.759338 
	C326.424408,129.730103 326.724213,130.023575 327.105896,130.626709 
z"/>
<path fill="#546575" opacity="1.000000" stroke="none" 
	d="
M16.936642,28.331158 
	C17.148645,28.287127 17.429295,28.504122 17.757257,28.991821 
	C17.538143,29.039076 17.271715,28.815630 16.936642,28.331158 
z"/>
<path fill="#4E5B68" opacity="1.000000" stroke="none" 
	d="
M278.160522,127.639679 
	C277.955414,127.709854 277.625275,127.520546 277.182007,127.061707 
	C277.391113,126.988174 277.713257,127.184189 278.160522,127.639679 
z"/>
<path fill="#546575" opacity="1.000000" stroke="none" 
	d="
M16.031622,27.269253 
	C16.246754,27.219639 16.508669,27.431250 16.847769,27.888481 
	C16.642771,27.932892 16.360590,27.731684 16.031622,27.269253 
z"/>
<path fill="#4A5766" opacity="1.000000" stroke="none" 
	d="
M81.883087,38.739311 
	C81.850601,39.004475 81.424171,39.000092 81.210861,38.999191 
	C80.997543,38.998291 80.999023,38.575882 81.002014,38.365200 
	C81.308525,38.261063 81.612045,38.367607 81.883087,38.739311 
z"/>
<path fill="#F5F8F9" opacity="1.000000" stroke="none" 
	d="
M141.952545,85.594238 
	C138.882385,85.965508 135.777679,85.965508 132.304581,85.965508 
	C133.630234,81.907883 134.912582,77.982841 136.172684,73.675385 
	C139.388535,73.106216 138.125122,76.079865 138.917587,77.506508 
	C140.245270,79.896721 140.950699,82.632584 141.952545,85.594238 
z"/>
<path fill="#F5F8F9" opacity="1.000000" stroke="none" 
	d="
M380.817139,83.705765 
	C379.072357,88.252304 375.310852,86.105186 372.681335,85.702988 
	C370.684814,85.397606 372.632385,82.956635 373.068359,81.595276 
	C373.974518,78.765694 375.187256,76.034294 376.620636,73.172913 
	C378.181366,76.525482 379.395477,79.967690 380.817139,83.705765 
z"/>
<path fill="#FBFCFD" opacity="1.000000" stroke="none" 
	d="
M253.943817,126.348389 
	C260.953827,121.889961 265.849762,122.096565 271.486877,126.915154 
	C273.828247,129.122650 274.808746,131.718033 275.800568,134.703339 
	C276.333069,135.372787 276.474945,135.814545 276.282928,136.641281 
	C276.029236,141.601334 275.965759,146.241852 273.109192,150.650269 
	C266.023651,157.269318 260.405670,157.639954 253.334137,152.103317 
	C247.691696,143.223267 247.964294,134.077972 253.943817,126.348389 
z"/>
<path fill="#FBFCFD" opacity="1.000000" stroke="none" 
	d="
M316.500366,125.263123 
	C318.044861,126.857300 319.216736,128.335175 320.666687,129.977142 
	C322.877472,137.708435 323.805023,145.165512 318.368683,152.176605 
	C312.526062,156.716385 306.750610,157.401672 300.471863,152.827698 
	C295.560547,146.630264 294.873352,139.942078 296.859741,132.397614 
	C296.802368,131.791458 296.725189,131.600906 296.869690,131.195938 
	C297.091370,130.981522 297.215881,130.826797 297.166443,130.740662 
	C297.126740,130.199600 297.277252,129.797379 297.822388,129.233612 
	C298.420563,128.654907 298.764862,128.290375 299.148468,127.668076 
	C304.283936,122.536087 309.937958,121.836647 316.500366,125.263123 
z"/>
<path fill="#465461" opacity="1.000000" stroke="none" 
	d="
M296.912323,131.051849 
	C297.088287,131.155090 297.085175,131.328644 296.980835,131.742111 
	C296.742249,131.785828 296.589020,131.597626 296.482788,131.385834 
	C296.464325,131.349060 296.644714,131.212601 296.912323,131.051849 
z"/>
<path fill="#465461" opacity="1.000000" stroke="none" 
	d="
M297.804077,129.211182 
	C297.944122,129.441208 297.812042,129.863007 297.398499,130.469666 
	C297.255371,130.237335 297.393677,129.820129 297.804077,129.211182 
z"/>
<path fill="#3A4C5A" opacity="1.000000" stroke="none" 
	d="
M276.335571,136.814240 
	C276.054871,136.531219 275.988861,136.095505 275.956848,135.330002 
	C276.714264,135.373169 277.038940,135.880417 276.335571,136.814240 
z"/>
<path fill="#788493" opacity="1.000000" stroke="none" 
	d="
M131.411987,35.982986 
	C131.561676,36.246243 131.575378,36.630539 131.589066,37.014835 
	C131.484711,36.711235 131.380341,36.407631 131.411987,35.982986 
z"/>
</svg>